<svg width="1440" height="1024" viewBox="0 0 1440 1024" fill="none" xmlns="http://www.w3.org/2000/svg">
<rect width="1440" height="1024" fill="white"/>
<g clip-path="url(#clip0_412_41)">
<path fill-rule="evenodd" clip-rule="evenodd" d="M651.84 789.992C651.84 796.692 649.422 803.118 645.119 807.855C640.816 812.593 634.979 815.255 628.893 815.255C622.807 815.255 616.971 812.593 612.667 807.855C608.364 803.118 605.946 796.692 605.946 789.992C605.946 786.674 606.54 783.389 607.693 780.324C608.846 777.259 610.536 774.474 612.667 772.128C614.798 769.782 617.328 767.921 620.112 766.651C622.896 765.382 625.88 764.728 628.893 764.728C631.907 764.728 634.89 765.382 637.674 766.651C640.459 767.921 642.988 769.782 645.119 772.128C647.25 774.474 648.94 777.259 650.093 780.324C651.246 783.389 651.84 786.674 651.84 789.992Z" fill="black"/>
<path d="M944.173 865.038C915.107 866.016 537.431 874.367 468.629 872.139C467.66 872.108 466.717 872.454 465.999 873.104C465.281 873.754 464.843 874.657 464.778 875.623C464.778 875.623 464.284 882.27 466.084 889.234C466.984 892.717 468.458 896.391 471.161 899.407C473.865 902.424 477.97 904.61 482.975 904.712C487.324 904.801 514.334 904.869 553.047 904.921C591.759 904.972 641.944 905 691.892 905C741.84 905 791.551 904.972 829.315 904.9C848.197 904.864 864.092 904.816 875.541 904.758C881.265 904.729 885.878 904.697 889.203 904.662C892.527 904.627 894.24 904.62 895.314 904.537C898.287 904.309 902.751 903.199 908.785 901.595C914.819 899.991 922.112 897.885 929.464 895.665C944.166 891.226 958.87 886.435 964.556 884.121C967.263 883.019 969.589 881.534 971.172 879.266C971.963 878.132 972.567 876.721 972.603 875.123C972.638 873.526 972.013 871.866 971.005 870.627C968.988 868.147 965.939 866.916 961.66 866.043C957.381 865.169 951.724 864.783 944.173 865.038ZM944.423 872.502C951.586 872.261 956.758 872.661 960.167 873.356C963.288 873.993 964.445 874.881 964.781 875.169C964.358 875.669 963.355 876.544 961.736 877.203C956.946 879.152 941.891 884.108 927.303 888.513C920.008 890.716 912.773 892.807 906.866 894.377C900.958 895.947 896.069 896.988 894.743 897.09C894.742 897.09 892.423 897.159 889.124 897.194C885.824 897.229 881.22 897.261 875.503 897.29C864.069 897.348 848.18 897.396 829.302 897.432C791.547 897.504 741.837 897.532 691.892 897.532C641.947 897.532 591.763 897.504 553.055 897.453C514.347 897.401 486.883 897.321 483.13 897.244C480.033 897.181 478.273 896.149 476.73 894.427C475.187 892.705 474.034 890.12 473.322 887.367C472.595 884.556 472.334 881.741 472.246 879.603C547.631 881.654 914.916 873.495 944.423 872.502Z" fill="black"/>
<path fill-rule="evenodd" clip-rule="evenodd" d="M468.506 875.873C468.506 875.873 466.851 900.647 483.054 900.978C499.256 901.309 886.431 901.473 895.028 900.814C903.625 900.152 952.671 884.926 963.146 880.663C972.074 877.029 973.727 867.779 944.299 868.772C914.868 869.762 538.044 878.124 468.506 875.873Z" fill="black"/>
<path d="M792.567 673.235C786.809 673.235 715.229 674.059 642.792 674.885C570.354 675.711 497.168 676.539 490.005 676.539C482.737 676.539 477.683 675.595 472.847 678.161C470.428 679.443 468.555 681.738 467.357 684.566C466.158 687.394 465.412 690.846 464.758 695.435C464 700.748 463.771 713.811 463.656 731.542C463.542 749.272 463.629 771.215 463.794 792.603C464.123 835.381 464.77 875.932 464.77 875.932C464.778 876.422 464.882 876.906 465.077 877.356C465.272 877.807 465.554 878.214 465.906 878.555C466.259 878.897 466.675 879.165 467.131 879.346C467.588 879.526 468.075 879.615 468.566 879.607C469.557 879.591 470.501 879.182 471.19 878.471C471.879 877.76 472.257 876.805 472.241 875.815C472.241 875.815 471.598 835.288 471.27 792.549C471.105 771.18 471.018 749.255 471.132 731.587C471.246 713.92 471.65 700.055 472.158 696.489C472.77 692.201 473.486 689.253 474.24 687.475C474.993 685.697 475.563 685.178 476.355 684.758C477.938 683.918 482.391 684.008 490.005 684.008C497.722 684.008 570.442 683.179 642.879 682.353C715.317 681.527 787.576 680.703 792.567 680.703C797.316 680.703 798.985 681.507 800.351 683.57C801.717 685.633 802.686 690.102 802.887 697.306C803.255 710.582 797.269 847.781 793.025 871.435C792.939 871.918 792.948 872.413 793.053 872.892C793.158 873.371 793.357 873.825 793.637 874.227C793.917 874.63 794.275 874.973 794.688 875.237C795.101 875.502 795.563 875.683 796.046 875.769C797.021 875.944 798.026 875.725 798.839 875.16C799.653 874.595 800.209 873.73 800.384 872.756C805.244 845.666 810.815 713.553 810.359 697.098C810.145 689.435 809.459 683.786 806.588 679.448C803.716 675.111 798.562 673.235 792.567 673.235Z" fill="black"/>
<path d="M555.174 308.077C550.13 307.757 544.886 308.041 539.468 308.936C538.49 309.097 537.616 309.64 537.039 310.445C536.461 311.25 536.228 312.251 536.389 313.228C536.551 314.205 537.094 315.078 537.9 315.655C538.706 316.232 539.708 316.465 540.686 316.304C560.377 313.051 576.035 318.251 589.215 332.107C589.553 332.462 589.958 332.748 590.407 332.947C590.856 333.146 591.339 333.255 591.83 333.267C592.321 333.28 592.809 333.196 593.268 333.019C593.726 332.843 594.145 332.578 594.501 332.24C595.218 331.558 595.635 330.619 595.66 329.63C595.685 328.641 595.316 327.682 594.634 326.964C583.656 315.423 570.307 309.037 555.174 308.077Z" fill="black"/>
<path d="M645.09 333.257C637.558 333.013 630.518 335.297 624.215 339.275C623.377 339.804 622.784 340.644 622.565 341.609C622.347 342.575 622.522 343.589 623.051 344.426C623.581 345.263 624.421 345.856 625.388 346.074C626.355 346.292 627.369 346.117 628.207 345.589C635.314 341.103 642.455 339.426 650.91 341.604C651.385 341.727 651.88 341.756 652.366 341.687C652.852 341.619 653.32 341.456 653.743 341.207C654.166 340.958 654.536 340.629 654.831 340.237C655.127 339.845 655.342 339.4 655.465 338.925C655.588 338.45 655.616 337.955 655.548 337.469C655.479 336.983 655.315 336.516 655.066 336.093C654.816 335.67 654.486 335.301 654.093 335.006C653.701 334.711 653.254 334.496 652.778 334.374C650.167 333.701 647.601 333.338 645.09 333.257Z" fill="black"/>
<path d="M540.252 118.078C526.857 118.811 513.862 124.721 505.077 136.34C497.089 146.905 492.989 162.228 494.289 181.853C490.061 180.473 484.192 178.909 476.418 178.461C463.379 177.71 446.913 180.991 436.028 196.527C423.542 214.343 418.25 238.343 416.738 257.355C416.738 257.357 416.738 257.358 416.738 257.359C416.227 263.795 414.176 281.869 414.819 301.964C415.462 322.058 418.626 344.392 429.445 360.183C436.225 370.079 446.61 372.844 455.689 371.598C464.768 370.352 472.839 365.741 477.598 360.613C479.947 358.08 481.643 355.527 480.84 352.34C480.438 350.746 479.33 349.512 478.27 348.794C477.21 348.075 476.149 347.701 475.087 347.418C470.837 346.287 465.735 346.495 463.461 346.189C458.159 345.476 453.051 340.739 450.491 334.249C447.931 327.759 448.017 319.998 452.243 313.754C456.484 307.487 461.492 306.606 466.76 307.744C472.029 308.883 477.175 312.871 478.971 315.925C480.795 319.028 481.762 325.29 482.262 331.369C482.512 334.409 482.698 337.408 483.017 340.1C483.337 342.792 483.643 345.124 484.882 347.364C486.912 351.033 490.946 353.97 495.699 353.194C500.453 352.419 504.22 348.018 506.249 340.688C510.071 326.88 517.152 285.077 546.326 268.291C558.075 279.85 570.582 287.365 583.884 289.953C597.253 292.555 611.231 290.084 625.446 283.002C639.928 297.631 652.903 306.342 664.522 309.974C676.666 313.769 687.51 311.906 695.776 305.948C712.308 294.033 718.868 267.864 717.11 240.681C715.352 213.499 704.997 184.814 684.642 167.671C665.065 151.185 636.077 146.548 599.394 164.379C592.879 133.873 565.691 116.687 540.252 118.078ZM540.661 125.538C563.662 124.28 589.158 140.355 593.103 170.168C593.182 170.764 593.405 171.332 593.751 171.825C594.097 172.317 594.558 172.718 595.092 172.994C595.627 173.27 596.221 173.413 596.824 173.411C597.426 173.409 598.019 173.261 598.551 172.981C635.556 153.48 661.694 158.113 679.824 173.381C697.953 188.648 707.991 215.555 709.647 241.165C711.303 266.774 704.3 290.598 691.404 299.892C684.956 304.54 677.12 306.086 666.758 302.847C656.396 299.609 643.641 291.28 628.904 275.98C628.339 275.392 627.596 275.006 626.79 274.879C625.984 274.753 625.159 274.894 624.441 275.279C610.511 282.764 597.626 285.019 585.31 282.622C572.995 280.226 561.051 273.081 549.401 260.972C548.845 260.395 548.118 260.011 547.326 259.879C546.535 259.746 545.723 259.871 545.008 260.235C509.462 278.389 502.439 326.432 499.045 338.696C497.417 344.576 495.361 345.681 494.493 345.822C493.626 345.964 492.242 345.224 491.427 343.751C491.244 343.42 490.72 341.59 490.439 339.221C490.157 336.852 489.971 333.89 489.713 330.757C489.197 324.489 488.607 317.562 485.42 312.141C482.203 306.671 475.838 302.067 468.341 300.447C460.845 298.827 451.831 301.024 446.048 309.569H446.052C440.255 318.135 440.205 328.539 443.537 336.987C446.869 345.435 453.679 352.409 462.464 353.59C465.931 354.057 470.473 354.065 472.805 354.603C472.607 354.901 472.569 355.049 472.117 355.536C468.832 359.076 461.742 363.23 454.671 364.201C447.6 365.171 440.847 363.602 435.615 355.966C426.314 342.39 422.913 321.172 422.291 301.726C421.668 282.281 423.646 264.83 424.193 257.947C425.633 239.845 430.933 216.819 442.152 200.811C451.326 187.717 464.454 185.252 475.988 185.916C487.523 186.581 496.767 190.605 496.767 190.605C497.37 190.869 498.033 190.968 498.687 190.894C499.342 190.82 499.965 190.574 500.493 190.182C501.022 189.79 501.438 189.266 501.699 188.661C501.959 188.057 502.056 187.395 501.978 186.742C499.44 165.547 503.646 150.624 511.043 140.841C518.439 131.058 529.161 126.167 540.661 125.538Z" fill="black"/>
<path fill-rule="evenodd" clip-rule="evenodd" d="M505.13 329.569L484.183 318.987C483.677 317.144 483.032 315.458 482.195 314.033C477.182 305.508 459.17 296.848 449.146 311.66C439.123 326.47 448.875 347.993 462.961 349.888C468.822 350.678 482.898 349.406 474.856 358.075C466.812 366.743 444.541 375.608 432.529 358.075C412.409 328.709 419.408 270.972 420.466 257.653C421.942 239.096 427.238 215.58 439.091 198.668C459.151 170.037 498.267 187.184 498.267 187.184C487.785 99.6281 588.413 106.24 596.807 169.677C748.382 89.8 746.287 403.247 626.212 278.57C597.189 294.163 570.762 288.56 546.707 263.559C519.475 277.467 509.765 310.689 505.13 329.569Z" fill="black"/>
<path d="M483.017 315.441C482.075 315.75 481.295 316.42 480.848 317.304C480.626 317.742 480.493 318.219 480.456 318.708C480.419 319.196 480.479 319.688 480.632 320.154C480.785 320.62 481.028 321.051 481.348 321.423C481.668 321.795 482.058 322.1 482.496 322.322L532.668 347.66C533.03 347.842 533.419 347.965 533.82 348.022L664.184 366.797C664.67 366.867 665.165 366.841 665.641 366.72C666.117 366.599 666.564 366.385 666.957 366.092C667.35 365.798 667.682 365.43 667.932 365.008C668.183 364.586 668.348 364.119 668.418 363.634C668.488 363.148 668.462 362.654 668.341 362.178C668.22 361.703 668.006 361.256 667.712 360.863C667.418 360.471 667.049 360.14 666.627 359.889C666.205 359.639 665.738 359.474 665.252 359.404L535.492 340.721L485.871 315.654C485.432 315.433 484.955 315.3 484.465 315.264C483.975 315.228 483.483 315.288 483.017 315.441Z" fill="black"/>
<path d="M534.441 340.508C533.951 340.479 533.46 340.545 532.996 340.705C532.531 340.865 532.103 341.114 531.736 341.439C531.368 341.765 531.068 342.159 530.853 342.6C530.638 343.041 530.512 343.52 530.482 344.009C529.368 362.415 531.797 375.577 536.794 384.433C541.79 393.29 549.862 397.613 558.086 397.082C574.534 396.019 590.558 378.539 595.593 353.353C595.69 352.871 595.691 352.376 595.595 351.894C595.5 351.412 595.31 350.954 595.038 350.546C594.765 350.137 594.414 349.787 594.006 349.514C593.597 349.241 593.139 349.051 592.656 348.956C592.175 348.86 591.679 348.86 591.198 348.955C590.716 349.051 590.258 349.24 589.849 349.513C589.441 349.785 589.091 350.135 588.818 350.543C588.545 350.951 588.355 351.409 588.26 351.89C583.707 374.662 568.7 388.913 557.602 389.63C552.053 389.989 547.224 387.712 543.306 380.766C539.387 373.82 536.884 361.979 537.945 344.459C538.005 343.471 537.669 342.5 537.012 341.759C536.355 341.018 535.43 340.569 534.441 340.508Z" fill="black"/>
<path d="M612.36 351.794C611.385 351.614 610.379 351.827 609.563 352.388C608.746 352.948 608.186 353.809 608.004 354.782C604.99 371.027 605.974 382.075 610.382 389.335C614.79 396.594 622.88 398.931 630.581 397.599C638.282 396.266 646.127 391.873 652.904 385.93C659.68 379.987 665.385 372.457 668.243 364.338C668.571 363.404 668.515 362.378 668.086 361.486C667.658 360.593 666.892 359.908 665.957 359.579C665.022 359.251 663.995 359.307 663.102 359.736C662.208 360.164 661.522 360.929 661.193 361.863C658.903 368.368 653.936 375.086 647.973 380.316C642.01 385.546 635.044 389.247 629.309 390.239C623.574 391.231 619.603 390.123 616.773 385.463C613.943 380.803 612.513 371.461 615.355 356.145C615.535 355.171 615.321 354.166 614.759 353.35C614.197 352.534 613.334 351.974 612.36 351.794Z" fill="black"/>
<path d="M602.827 350.46C602.358 350.316 601.865 350.266 601.376 350.312C600.887 350.358 600.412 350.5 599.979 350.729C599.545 350.959 599.16 351.271 598.847 351.649C598.534 352.027 598.299 352.463 598.155 352.932C589.834 379.975 593.094 401.923 607.257 417.686C607.919 418.423 608.847 418.867 609.836 418.921C610.826 418.975 611.797 418.634 612.535 417.973C612.9 417.646 613.198 417.249 613.41 416.807C613.622 416.364 613.745 415.884 613.771 415.394C613.797 414.904 613.727 414.414 613.563 413.951C613.4 413.488 613.147 413.062 612.818 412.697C600.527 399.018 597.457 380.622 605.301 355.128C605.445 354.659 605.496 354.167 605.45 353.678C605.404 353.19 605.262 352.716 605.032 352.282C604.802 351.849 604.489 351.465 604.111 351.152C603.733 350.84 603.296 350.605 602.827 350.46Z" fill="black"/>
<path fill-rule="evenodd" clip-rule="evenodd" d="M577.88 366.854C577.484 367.905 576.962 368.897 576.343 369.773C575.724 370.649 575.021 371.393 574.273 371.96C573.526 372.528 572.749 372.909 571.987 373.081C571.224 373.254 570.492 373.215 569.831 372.966C569.17 372.718 568.593 372.265 568.134 371.633C567.675 371.001 567.342 370.203 567.155 369.284C566.967 368.365 566.929 367.343 567.042 366.276C567.155 365.21 567.417 364.12 567.813 363.069C568.613 360.946 569.91 359.11 571.42 357.963C572.929 356.817 574.527 356.455 575.862 356.957C577.197 357.459 578.16 358.784 578.538 360.64C578.916 362.496 578.68 364.731 577.88 366.854Z" fill="black"/>
<path fill-rule="evenodd" clip-rule="evenodd" d="M630.974 376.759C630.578 377.81 630.055 378.802 629.436 379.678C628.818 380.554 628.114 381.297 627.367 381.865C626.62 382.432 625.842 382.813 625.08 382.986C624.318 383.159 623.585 383.12 622.924 382.871C622.263 382.623 621.687 382.17 621.228 381.538C620.769 380.906 620.436 380.107 620.248 379.188C620.061 378.269 620.023 377.248 620.136 376.181C620.249 375.115 620.511 374.025 620.907 372.974C621.706 370.851 623.004 369.014 624.513 367.868C626.023 366.722 627.621 366.36 628.956 366.862C630.291 367.364 631.253 368.688 631.632 370.545C632.01 372.401 631.773 374.636 630.974 376.759Z" fill="black"/>
<path d="M630.068 403.646C629.153 403.266 628.125 403.264 627.209 403.642C626.293 404.019 625.564 404.745 625.183 405.658C609.278 443.878 574.807 472.374 540.728 477.956C523.688 480.746 506.824 477.949 491.92 467.987C477.015 458.024 463.95 440.751 455.138 414.027C454.985 413.56 454.741 413.129 454.42 412.757C454.1 412.385 453.709 412.08 453.271 411.859C452.832 411.638 452.354 411.506 451.864 411.469C451.375 411.433 450.882 411.493 450.416 411.647C449.474 411.957 448.695 412.627 448.248 413.511C447.801 414.395 447.724 415.42 448.034 416.36C457.235 444.264 471.211 463.134 487.76 474.197C504.31 485.259 523.314 488.374 541.938 485.324C579.185 479.224 615.228 449.037 632.087 408.526C632.467 407.611 632.468 406.583 632.089 405.668C631.711 404.753 630.984 404.025 630.068 403.646Z" fill="black"/>
<path d="M543.585 423.795C542.699 423.352 541.672 423.28 540.732 423.593C539.791 423.907 539.014 424.58 538.571 425.466C538.352 425.905 538.221 426.383 538.187 426.872C538.153 427.362 538.215 427.853 538.371 428.318C538.526 428.783 538.772 429.213 539.095 429.583C539.417 429.954 539.809 430.257 540.248 430.476C540.248 430.476 551.78 436.263 566.909 436.552C567.9 436.571 568.858 436.196 569.572 435.51C570.286 434.824 570.698 433.882 570.718 432.893C570.727 432.402 570.64 431.915 570.461 431.458C570.281 431.002 570.014 430.585 569.673 430.231C569.333 429.878 568.926 429.595 568.476 429.399C568.026 429.203 567.542 429.097 567.051 429.088C553.748 428.834 543.585 423.795 543.585 423.795Z" fill="black"/>
<path fill-rule="evenodd" clip-rule="evenodd" d="M339.578 640.617C326.431 657.751 304.643 707.54 297.364 727.328C290.083 747.118 291.945 750.5 298.21 752.022C311.055 755.143 377.782 778.408 388.786 781.621C399.79 784.834 399.479 788.31 391.495 792.614C367.731 805.429 351.325 829.656 339.708 845.187C317.221 875.25 330.449 888.792 321.852 888.462C313.253 888.131 261.746 881.57 236.869 876.24C170.759 862.076 165.857 814.032 170.135 773.092C174.817 728.284 225.246 637.574 256.874 587.359C318.048 490.239 381.87 470.675 404.526 464.935C427.888 459.018 435.915 462.55 437.752 473.605C448.076 535.745 484.098 520.961 493.62 514.831C504.923 507.555 506.591 498.64 521.716 498.868C618.046 500.325 634.285 613.926 638.728 638.238C643.173 662.552 639.153 665.934 631.808 666.567C620.776 667.521 516.527 667.888 488.088 668.219C459.651 668.55 459.651 671.853 457.667 683.085C454.07 703.445 455.764 797.91 455.764 797.91C448.991 800.024 434.811 792.625 415.13 781.843C395.448 771.061 353.123 758.587 327.728 752.244C302.332 745.902 302.755 741.462 307.623 720.743C312.49 700.024 339.578 640.617 339.578 640.617ZM477.368 547.202C470.826 547.202 465.516 552.837 465.516 559.78C465.516 566.723 470.826 572.358 477.368 572.358C483.908 572.358 489.218 566.723 489.218 559.78C489.218 552.837 483.908 547.202 477.368 547.202ZM477.368 618.052C472.586 618.052 468.703 622.173 468.703 627.249C468.703 632.325 472.586 636.445 477.368 636.445C482.15 636.445 486.031 632.325 486.031 627.249C486.031 622.173 482.15 618.052 477.368 618.052Z" fill="black"/>
<path d="M372.952 789.715C372.053 789.298 371.025 789.255 370.094 789.595C369.163 789.935 368.406 790.63 367.988 791.528C367.57 792.426 367.527 793.453 367.867 794.383C368.208 795.313 368.904 796.07 369.803 796.487C369.803 796.487 386.388 804.186 405.362 814.462C424.336 824.738 445.823 837.888 454.642 847.393C455.316 848.119 456.251 848.548 457.241 848.585C458.231 848.623 459.196 848.266 459.923 847.593C460.65 846.92 461.079 845.986 461.117 844.996C461.154 844.007 460.797 843.043 460.123 842.317C449.642 831.02 428.128 818.298 408.924 807.898C389.721 797.497 372.952 789.715 372.952 789.715Z" fill="black"/>
<path d="M439.669 844.567C439.205 844.727 438.776 844.977 438.408 845.302C438.04 845.628 437.74 846.022 437.525 846.464C437.092 847.354 437.03 848.379 437.353 849.314C437.676 850.249 438.358 851.018 439.248 851.452C439.248 851.452 452.029 857.924 457.507 863.488C457.851 863.838 458.261 864.117 458.713 864.309C459.166 864.501 459.651 864.602 460.143 864.606C460.634 864.61 461.121 864.518 461.577 864.334C462.032 864.15 462.447 863.878 462.797 863.534C463.503 862.839 463.905 861.892 463.912 860.902C463.92 859.912 463.534 858.959 462.839 858.253C455.527 850.827 442.523 844.742 442.523 844.742C441.632 844.309 440.606 844.246 439.669 844.567Z" fill="black"/>
<path d="M429.82 857.191C428.843 857.023 427.839 857.249 427.03 857.821C426.22 858.392 425.671 859.261 425.503 860.237C425.334 861.212 425.561 862.215 426.132 863.023C426.703 863.832 427.572 864.381 428.548 864.55C428.548 864.55 442.559 867.003 455.655 873.815C456.091 874.041 456.567 874.18 457.056 874.223C457.545 874.266 458.038 874.212 458.506 874.065C458.975 873.917 459.409 873.679 459.786 873.364C460.162 873.048 460.472 872.662 460.699 872.227C461.156 871.349 461.245 870.325 460.947 869.381C460.649 868.437 459.988 867.65 459.109 867.193C444.738 859.717 429.82 857.191 429.82 857.191Z" fill="black"/>
<path d="M324.135 839.304C323.744 839.599 323.414 839.969 323.165 840.392C322.917 840.815 322.754 841.282 322.686 841.768C322.618 842.254 322.647 842.748 322.77 843.223C322.894 843.697 323.11 844.143 323.405 844.534C323.405 844.534 328.236 850.92 334.06 858.087C339.884 865.254 346.387 873.025 351.105 876.719C355.021 879.786 358.175 882.201 363.232 883.479C368.29 884.757 374.843 885.023 386.669 884.917C410.178 884.705 437.578 884.307 459.685 887.209C460.172 887.273 460.667 887.241 461.142 887.114C461.616 886.987 462.061 886.768 462.451 886.469C462.841 886.171 463.168 885.798 463.413 885.373C463.659 884.948 463.818 884.478 463.882 883.992C463.946 883.505 463.913 883.011 463.786 882.538C463.659 882.064 463.439 881.62 463.14 881.231C462.841 880.842 462.468 880.516 462.043 880.271C461.618 880.026 461.148 879.867 460.661 879.803C437.684 876.787 410.074 877.238 386.602 877.449C374.935 877.554 368.792 877.182 365.068 876.24C361.343 875.299 359.629 873.909 355.715 870.843C352.603 868.407 345.596 860.428 339.867 853.377C334.138 846.327 329.371 840.029 329.371 840.029C328.773 839.239 327.885 838.719 326.904 838.583C325.922 838.448 324.926 838.707 324.135 839.304Z" fill="black"/>
<path d="M874.552 360.317C873.598 360.053 872.577 360.179 871.716 360.667C871.288 360.908 870.912 361.232 870.61 361.619C870.308 362.005 870.085 362.448 869.954 362.921C869.823 363.394 869.787 363.888 869.847 364.375C869.907 364.862 870.063 365.333 870.306 365.759C881.317 385.147 880.941 403.549 868.7 422.983C868.438 423.398 868.261 423.861 868.178 424.344C868.096 424.828 868.11 425.323 868.219 425.802C868.328 426.28 868.531 426.732 868.815 427.133C869.099 427.533 869.46 427.873 869.876 428.134C870.715 428.661 871.729 428.833 872.695 428.614C873.661 428.394 874.5 427.8 875.028 426.963C888.426 405.693 888.916 383.387 876.809 362.071C876.32 361.211 875.508 360.579 874.552 360.317Z" fill="black"/>
<path d="M861.199 376.39C860.245 376.659 859.438 377.295 858.954 378.159C858.469 379.022 858.348 380.043 858.617 380.995C859.876 385.45 859.859 388.926 859.251 391.172C858.643 393.418 857.658 394.373 856.527 394.819C855.395 395.264 853.695 395.271 851.3 394.006C848.904 392.741 845.983 390.179 843.123 385.996C842.564 385.178 841.703 384.616 840.729 384.432C839.755 384.249 838.748 384.459 837.929 385.017C837.111 385.575 836.548 386.435 836.364 387.408C836.18 388.381 836.39 389.387 836.949 390.205C840.329 395.148 843.998 398.602 847.804 400.612C851.609 402.621 855.717 403.164 859.267 401.766C862.818 400.368 865.39 397.102 866.468 393.123C867.545 389.143 867.344 384.384 865.813 378.966C865.543 378.013 864.905 377.207 864.04 376.724C863.174 376.241 862.153 376.121 861.199 376.39Z" fill="black"/>
<path d="M921.154 350.335C920.681 350.466 920.238 350.688 919.85 350.989C919.463 351.29 919.138 351.665 918.896 352.091C918.653 352.518 918.497 352.988 918.437 353.475C918.376 353.961 918.412 354.455 918.543 354.928C921.108 364.236 918.521 370.873 915.622 372.873C914.173 373.873 912.676 374.157 910.395 373.294C908.114 372.431 905.108 370.141 902.031 365.684C901.468 364.869 900.605 364.311 899.63 364.132C898.655 363.953 897.649 364.168 896.833 364.73C896.429 365.008 896.083 365.364 895.816 365.776C895.549 366.187 895.366 366.648 895.277 367.131C895.189 367.613 895.196 368.109 895.299 368.588C895.402 369.068 895.599 369.523 895.878 369.927C899.548 375.242 903.528 378.682 907.75 380.279C911.973 381.875 916.495 381.344 919.869 379.016C926.617 374.36 928.878 364.293 925.751 352.944C925.621 352.471 925.399 352.029 925.097 351.642C924.795 351.255 924.42 350.931 923.994 350.688C923.567 350.446 923.096 350.29 922.609 350.23C922.122 350.169 921.627 350.205 921.154 350.335Z" fill="black"/>
<path d="M937.482 427.375C936.638 426.857 935.623 426.694 934.659 426.923C933.695 427.152 932.862 427.754 932.342 428.596C926.502 438.064 920.319 445.586 913.92 449.542C907.522 453.498 901.159 454.362 892.724 450.5C892.278 450.296 891.796 450.181 891.305 450.163C890.814 450.145 890.325 450.223 889.865 450.394C889.405 450.564 888.983 450.824 888.623 451.158C888.263 451.491 887.973 451.892 887.768 452.338C887.563 452.784 887.449 453.266 887.43 453.756C887.412 454.246 887.491 454.735 887.661 455.194C887.832 455.654 888.092 456.076 888.426 456.435C888.76 456.794 889.161 457.085 889.608 457.289C899.919 462.009 909.754 460.901 917.854 455.893C925.954 450.885 932.575 442.45 938.704 432.514C938.961 432.096 939.134 431.632 939.212 431.148C939.29 430.663 939.272 430.169 939.158 429.691C939.045 429.214 938.838 428.764 938.551 428.366C938.263 427.969 937.9 427.632 937.482 427.375Z" fill="black"/>
<path d="M982.732 441.915C981.801 441.576 980.773 441.619 979.874 442.037C978.975 442.454 978.279 443.211 977.939 444.141C974.234 454.27 965.837 465.257 955.566 472.771C945.294 480.286 933.383 484.272 922.397 481.74C908.486 478.533 895.028 484.647 882.816 494.421C870.605 504.196 859.226 517.825 848.776 531.145C808.347 582.675 783.047 656.131 783.047 656.131C782.886 656.595 782.819 657.086 782.848 657.575C782.877 658.065 783.003 658.544 783.217 658.985C783.432 659.426 783.731 659.821 784.099 660.147C784.466 660.472 784.894 660.722 785.358 660.882C785.822 661.043 786.313 661.11 786.803 661.081C787.293 661.052 787.773 660.927 788.215 660.712C788.656 660.498 789.051 660.199 789.377 659.832C789.703 659.465 789.953 659.037 790.114 658.574C790.114 658.574 815.431 585.752 854.658 535.754C865.004 522.567 876.169 509.308 887.489 500.247C898.809 491.186 909.868 486.515 920.716 489.016C934.491 492.191 948.51 487.192 959.984 478.798C971.458 470.403 980.623 458.561 984.959 446.704C985.3 445.774 985.256 444.747 984.838 443.849C984.42 442.951 983.663 442.255 982.732 441.915Z" fill="black"/>
<path d="M918.905 513.162C918.415 513.199 917.938 513.331 917.499 513.552C917.06 513.773 916.67 514.079 916.349 514.451C916.029 514.822 915.785 515.254 915.632 515.72C915.478 516.186 915.418 516.678 915.455 517.167C922.847 615.597 919.144 708.05 878.599 781.418C878.361 781.847 878.21 782.319 878.155 782.807C878.1 783.294 878.142 783.788 878.278 784.259C878.414 784.73 878.642 785.17 878.948 785.554C879.254 785.937 879.633 786.257 880.063 786.494C880.493 786.731 880.966 786.881 881.454 786.936C881.942 786.991 882.436 786.949 882.908 786.813C883.38 786.676 883.82 786.448 884.204 786.142C884.588 785.836 884.907 785.457 885.144 785.027C926.877 709.511 930.341 615.567 922.91 516.609C922.836 515.621 922.373 514.703 921.622 514.057C920.871 513.411 919.894 513.089 918.905 513.162Z" fill="black"/>
<path d="M1068.14 469.587C1062.59 469.57 1057.09 470.504 1051.41 472.234C1039.17 475.959 1028.59 486.584 1017.77 497.514C1006.94 508.443 995.941 519.813 984.576 525.702C966.506 535.066 955.274 531.268 947.632 525.511C939.989 519.753 936.502 511.696 936.502 511.696C936.31 511.244 936.032 510.834 935.682 510.489C935.332 510.145 934.918 509.873 934.462 509.689C934.007 509.505 933.52 509.412 933.029 509.416C932.538 509.42 932.052 509.52 931.6 509.712C931.148 509.903 930.738 510.182 930.394 510.532C930.05 510.881 929.778 511.295 929.594 511.75C929.41 512.205 929.317 512.691 929.321 513.182C929.326 513.672 929.427 514.157 929.618 514.609C929.618 514.609 933.687 524.36 943.13 531.474C952.574 538.589 967.959 542.723 988.017 532.329C1001.07 525.567 1012.32 513.632 1023.08 502.769C1033.84 491.906 1044.15 482.249 1053.58 479.377C1063.88 476.242 1072.28 476.024 1082.65 479.689C1093.02 483.355 1105.35 491.178 1122.22 504.39C1158.27 532.643 1222.62 579.433 1257.09 699.686C1265.87 730.311 1263.13 764.242 1254.88 793.249C1246.63 822.257 1232.67 846.359 1220.52 856.874C1220.52 856.874 1220.52 856.874 1220.52 856.874C1212.72 863.628 1197.86 877.934 1169.69 886.434C1141.52 894.934 1100.13 897.472 1039.93 879.149C1039.74 879.091 1039.61 878.951 1039.57 878.757C1039.52 878.567 1039.58 878.383 1039.73 878.249C1039.74 878.237 1039.76 878.224 1039.77 878.211C1045.65 872.766 1054.19 863.07 1058.92 849.173C1063.66 835.277 1064.41 817.189 1055.05 795.837C1054.99 795.705 1054.99 795.563 1055.05 795.425C1055.1 795.311 1055.2 795.242 1055.31 795.191C1067.05 792.189 1102.86 785.693 1166.01 796.642C1166.49 796.725 1166.98 796.713 1167.46 796.606C1167.94 796.498 1168.4 796.297 1168.8 796.015C1169.2 795.732 1169.54 795.374 1169.8 794.959C1170.07 794.545 1170.24 794.083 1170.33 793.599C1170.41 793.116 1170.4 792.621 1170.29 792.143C1170.18 791.664 1169.98 791.211 1169.7 790.81C1169.42 790.41 1169.06 790.068 1168.64 789.806C1168.23 789.544 1167.77 789.366 1167.28 789.282C1102.9 778.12 1065.84 784.745 1053.21 787.998C1053.12 788.023 1053.03 788.051 1052.94 788.082C1050.83 788.801 1049.11 790.376 1048.21 792.412C1048.21 792.415 1048.21 792.417 1048.21 792.42C1047.31 794.457 1047.31 796.787 1048.2 798.83C1056.9 818.653 1056.03 834.471 1051.84 846.768C1047.65 859.065 1039.96 867.852 1034.69 872.731L1034.73 872.694C1032.59 874.617 1031.64 877.561 1032.27 880.375C1032.89 883.186 1034.99 885.454 1037.75 886.292C1099.05 904.95 1142.13 902.555 1171.85 893.585C1201.57 884.616 1218.02 868.916 1225.41 862.517C1239.59 850.242 1253.52 825.346 1262.07 795.292C1270.62 765.238 1273.57 730.045 1264.28 697.631C1229.26 575.491 1162.65 526.584 1126.83 498.514C1109.71 485.099 1096.87 476.799 1085.14 472.651C1079.27 470.577 1073.68 469.605 1068.14 469.587Z" fill="black"/>
<path d="M944.361 797.367C944.361 797.367 904.742 794.779 881.027 826.314C875.838 833.212 871.36 840.732 869.021 847.431C867.851 850.78 867.161 853.931 867.469 857.003C867.776 860.075 869.608 863.309 872.696 864.705C872.697 864.705 872.699 864.705 872.7 864.705C877.004 866.648 881.904 865.52 886.725 862.804C891.546 860.089 896.789 855.675 902.932 849.619C928.385 824.526 949.621 817.207 966.934 818.217C967.424 818.245 967.915 818.177 968.379 818.016C968.843 817.855 969.271 817.604 969.638 817.278C970.005 816.952 970.304 816.556 970.518 816.115C970.731 815.673 970.856 815.193 970.884 814.704C970.941 813.715 970.603 812.744 969.943 812.005C969.284 811.265 968.357 810.818 967.368 810.761C947.571 809.607 924.112 818.248 897.684 844.301C891.779 850.123 886.834 854.17 883.054 856.299C879.275 858.428 877.165 858.525 875.779 857.899C875.118 857.601 875.037 857.56 874.907 856.261C874.777 854.96 875.121 852.639 876.079 849.894C877.997 844.403 882.159 837.244 887.005 830.802C908.194 802.627 943.889 804.818 943.889 804.818C944.38 804.849 944.871 804.784 945.335 804.625C945.8 804.466 946.229 804.218 946.597 803.893C946.966 803.569 947.267 803.175 947.483 802.735C947.699 802.294 947.826 801.816 947.857 801.326C947.918 800.338 947.585 799.366 946.929 798.623C946.274 797.881 945.35 797.429 944.361 797.367Z" fill="black"/>
<path d="M968.369 831.89C960.107 832.151 950.165 834.611 940.932 838.208C931.699 841.805 923.263 846.412 918.092 851.894C913.99 856.241 910.505 858.155 908.013 858.716C905.521 859.277 903.967 858.745 902.582 857.62C902.77 857.773 902.505 857.571 902.373 856.728C902.241 855.885 902.25 854.615 902.382 853.369C902.644 850.877 903.299 848.589 903.299 848.589C903.575 847.638 903.462 846.616 902.984 845.749C902.506 844.881 901.702 844.239 900.75 843.963C899.798 843.687 898.776 843.801 897.907 844.278C897.039 844.756 896.396 845.558 896.12 846.51C896.12 846.51 895.294 849.297 894.948 852.586C894.774 854.23 894.695 856.03 894.985 857.883C895.275 859.735 895.942 861.857 897.864 863.417C900.878 865.864 905.176 867.01 909.657 866.001C914.138 864.992 918.749 862.085 923.532 857.016C927.246 853.079 935.059 848.513 943.648 845.168C952.236 841.822 961.684 839.573 968.602 839.354C968.604 839.354 968.605 839.354 968.607 839.354C974.977 839.152 978.383 840.051 982.115 842.325C985.846 844.599 989.953 848.599 996.277 854.482C1003.53 861.231 1014.01 863.899 1024.96 863.259C1035.9 862.618 1047.47 858.668 1057.37 851.569C1058.17 850.992 1058.72 850.119 1058.88 849.142C1059.04 848.165 1058.8 847.164 1058.23 846.359C1057.94 845.961 1057.58 845.622 1057.16 845.363C1056.74 845.104 1056.28 844.929 1055.8 844.85C1055.31 844.77 1054.81 844.786 1054.34 844.898C1053.86 845.01 1053.41 845.215 1053.01 845.501C1044.29 851.751 1033.96 855.25 1024.52 855.803C1015.08 856.356 1006.68 853.96 1001.37 849.018C995.128 843.211 990.89 838.929 986.007 835.953C981.124 832.977 975.651 831.659 968.369 831.89Z" fill="black"/>
<path d="M957.426 770.466C938.051 770.68 918.156 774.402 901.981 782.172C888.22 788.783 874.926 798.847 864.565 809.248C854.205 819.649 846.66 830.061 844.908 839.121C843.3 847.434 845.104 854.922 850.457 859.166C855.809 863.41 863.729 863.764 872.537 860.487C873.466 860.142 874.219 859.442 874.632 858.541C875.044 857.641 875.081 856.614 874.736 855.686C874.565 855.226 874.304 854.805 873.97 854.445C873.635 854.086 873.233 853.796 872.786 853.592C872.34 853.388 871.857 853.274 871.366 853.257C870.876 853.239 870.386 853.318 869.926 853.49C862.617 856.209 857.77 855.428 855.104 853.315C852.438 851.201 850.975 847.109 852.246 840.537C853.372 834.714 860.069 824.353 869.867 814.516C879.666 804.679 892.445 795.039 905.218 788.903C934.834 774.677 981.395 775.382 1006.71 786.635C1033.77 798.665 1051.36 802.001 1051.36 802.001C1051.85 802.092 1052.34 802.087 1052.82 801.987C1053.3 801.886 1053.76 801.692 1054.17 801.416C1054.57 801.139 1054.92 800.785 1055.19 800.374C1055.46 799.963 1055.64 799.504 1055.73 799.021C1055.91 798.048 1055.7 797.042 1055.14 796.225C1054.58 795.407 1053.72 794.845 1052.75 794.662C1052.75 794.662 1036.19 791.566 1009.75 779.813C995.659 773.549 976.802 770.252 957.426 770.466Z" fill="black"/>
<path d="M1105.56 584.818C1105.08 584.934 1104.63 585.143 1104.24 585.433C1103.84 585.722 1103.5 586.087 1103.25 586.506C1102.99 586.926 1102.82 587.391 1102.75 587.875C1102.67 588.36 1102.7 588.855 1102.81 589.331C1110.18 619.486 1111.96 661.882 1116.19 700.786C1120.42 739.69 1126.63 775.367 1145.71 792.891C1146.44 793.561 1147.4 793.915 1148.39 793.873C1149.38 793.832 1150.32 793.399 1150.99 792.67C1151.32 792.309 1151.58 791.886 1151.74 791.425C1151.91 790.965 1151.99 790.475 1151.97 789.985C1151.95 789.495 1151.83 789.015 1151.62 788.57C1151.42 788.125 1151.12 787.726 1150.76 787.394C1134.98 772.899 1127.81 738.518 1123.63 699.977C1119.44 661.436 1117.75 618.993 1110.08 587.56C1109.96 587.083 1109.75 586.635 1109.46 586.239C1109.17 585.843 1108.8 585.509 1108.39 585.254C1107.97 584.999 1107.5 584.83 1107.01 584.755C1106.53 584.68 1106.03 584.701 1105.56 584.818Z" fill="black"/>
<path d="M894.981 300.722C894.197 300.81 893.462 301.144 892.88 301.675C892.298 302.207 891.898 302.909 891.74 303.68C891.74 303.68 888.55 319.165 878.044 335.149C867.538 351.133 850.166 367.276 820.988 369.097C820.458 369.131 819.94 369.277 819.471 369.526C819.001 369.775 818.59 370.121 818.265 370.542C817.94 370.962 817.709 371.447 817.586 371.964C817.464 372.481 817.453 373.018 817.555 373.54C817.555 373.54 836.005 468.846 919.569 488.774C920.047 488.888 920.542 488.907 921.027 488.83C921.512 488.752 921.977 488.58 922.396 488.323C922.814 488.066 923.178 487.73 923.466 487.332C923.754 486.935 923.96 486.484 924.074 486.007C924.304 485.044 924.141 484.029 923.621 483.186C923.102 482.342 922.268 481.74 921.304 481.51C848.004 464.029 828.369 386.587 825.965 375.969C855.031 372.608 873.511 355.654 884.293 339.25C890.937 329.141 894.352 320.446 896.466 313.932C909.357 337.617 925.82 351.255 939.818 358.278C955.416 366.104 968.018 366.567 968.018 366.567C968.653 366.589 969.283 366.449 969.848 366.16C970.414 365.871 970.896 365.444 971.25 364.917C971.604 364.39 971.818 363.782 971.872 363.15C971.925 362.518 971.816 361.883 971.556 361.304C970.248 358.4 969.732 353.068 970.442 347.505C971.152 341.943 972.999 336.116 975.507 331.936C978.015 327.756 980.876 325.565 983.641 325.43C986.407 325.295 990.54 327.106 995.831 334.228C1005.42 347.132 1002.26 358.658 996.653 368.076C991.041 377.494 982.87 383.792 982.87 383.792C982.354 384.186 981.95 384.707 981.697 385.304C980.408 388.349 980.34 391.907 980.488 396.798C980.635 401.689 981.269 407.617 982.461 413.943C984.844 426.596 989.366 440.821 997.249 451.129C1007.8 464.933 1024.86 471.219 1039.07 474.28C1053.29 477.34 1065.04 477.122 1065.04 477.122C1065.53 477.113 1066.01 477.008 1066.46 476.812C1066.91 476.617 1067.32 476.334 1067.66 475.981C1068 475.628 1068.27 475.212 1068.45 474.755C1068.63 474.299 1068.72 473.812 1068.71 473.321C1068.7 472.831 1068.6 472.347 1068.4 471.897C1068.2 471.448 1067.92 471.041 1067.57 470.7C1067.21 470.36 1066.8 470.092 1066.34 469.912C1065.88 469.733 1065.4 469.645 1064.91 469.654C1064.91 469.654 1053.97 469.846 1040.65 466.978C1027.33 464.111 1012.01 458.134 1003.19 446.595C996.523 437.877 992.053 424.484 989.807 412.56C988.684 406.597 988.093 400.998 987.959 396.573C987.833 392.411 988.344 389.421 988.543 388.709C990.153 387.433 997.271 381.642 1003.08 371.898C1009.57 361.008 1013.26 345.156 1001.83 329.777C995.776 321.623 989.506 317.666 983.274 317.971C977.042 318.275 972.314 322.732 969.095 328.098C965.876 333.463 963.856 340.081 963.029 346.559C962.499 350.712 962.684 354.648 963.292 358.366C958.973 357.706 952.516 356.29 943.172 351.602C928.878 344.431 911.417 330.53 898.802 302.88C898.475 302.164 897.929 301.569 897.242 301.182C896.556 300.794 895.765 300.633 894.981 300.722Z" fill="black"/>
<path d="M971.802 169.805C964.836 169.499 957.469 169.744 949.671 170.555C918.994 173.749 901.287 189.466 891.706 204.282C884.807 214.952 882.558 223.309 881.49 228.254C858.953 215.797 839.696 212.054 823.75 215.439C806.735 219.05 793.799 230.323 784.49 244.94C765.873 274.175 760.683 317.028 763.056 346.672C767.63 403.771 752.965 415.86 743.612 434.201C743.611 434.201 743.609 434.201 743.608 434.201C738.974 443.29 733.314 457.714 732.666 474.734C732.017 491.754 736.534 511.398 751.997 530.107C783.441 568.152 839.614 555.025 839.614 555.025C840.581 554.804 841.42 554.209 841.947 553.37C842.475 552.532 842.647 551.518 842.426 550.553C842.205 549.587 841.61 548.749 840.77 548.222C839.931 547.696 838.916 547.523 837.95 547.744C837.95 547.744 785.833 559.321 757.758 525.352C743.462 508.054 739.546 490.536 740.137 475.018C740.728 459.5 745.976 446.01 750.27 437.59C758.773 420.916 775.194 404.596 770.507 346.076C768.252 317.914 773.653 275.872 790.798 248.949C799.37 235.488 810.607 225.863 825.301 222.744C839.996 219.625 858.615 222.964 882.103 236.939C882.636 237.255 883.239 237.435 883.858 237.46C884.478 237.486 885.094 237.358 885.651 237.087C886.208 236.816 886.689 236.41 887.051 235.907C887.413 235.404 887.643 234.819 887.722 234.205C887.722 234.205 889.341 221.707 897.988 208.333C906.636 194.959 921.951 180.948 950.447 177.982C980.343 174.87 1002.4 180.33 1019.92 193.089C1037.43 205.847 1050.57 226.229 1061.5 253.533C1072.48 280.979 1079 305.213 1092.14 324.435C1105.28 343.656 1125.31 357.289 1161.37 362.784C1172.8 364.526 1194.1 371.539 1210.65 384.859C1227.19 398.178 1239.19 417.179 1234.14 444.749C1229.07 472.477 1212.35 488.342 1192.44 497.026C1172.52 505.71 1149.36 506.778 1133.04 503.923C1132.06 503.752 1131.06 503.976 1130.24 504.545C1129.43 505.114 1128.88 505.982 1128.71 506.957C1128.54 507.932 1128.76 508.936 1129.33 509.746C1129.9 510.557 1130.77 511.108 1131.75 511.279C1149.53 514.389 1173.8 513.299 1195.43 503.869C1217.05 494.438 1235.99 476.227 1241.5 446.091C1247.04 415.796 1233.28 393.495 1215.33 379.045C1197.39 364.596 1175.45 357.376 1162.5 355.403H1162.49C1127.81 350.117 1110.43 337.944 1098.32 320.221C1086.2 302.497 1079.6 278.645 1068.44 250.758C1057.23 222.73 1043.46 200.991 1024.32 187.054C1009.97 176.602 992.699 170.723 971.802 169.805Z" fill="black"/>
<path fill-rule="evenodd" clip-rule="evenodd" d="M838.782 551.386C838.782 551.386 784.637 563.736 754.878 527.729C725.118 491.722 738.013 453.404 746.941 435.895C755.869 418.388 771.412 404.183 766.781 346.374C762.152 288.567 787.967 176.581 884.016 233.729C884.016 233.729 890.887 180.428 950.059 174.268C1011.15 167.91 1042.83 196.813 1064.97 252.146C1087.12 307.478 1091.19 348.313 1161.93 359.093C1186.32 362.808 1248.4 387.557 1237.82 445.422C1227.24 503.285 1166.51 513.565 1132.39 507.599C1129.64 505.442 1127.01 503.398 1124.52 501.45C1097.3 480.117 1081.37 472.273 1064.97 473.389C1064.97 473.389 1019.6 474.204 1000.22 448.862C985.669 429.835 982.23 393.63 985.139 386.759C985.139 386.759 1019.85 360.286 998.832 332.003C976.134 301.45 961.004 346.98 968.146 362.836C968.146 362.836 921.323 361.25 895.4 304.431C895.4 304.431 882.172 369.019 821.223 372.824C821.223 372.824 839.384 465.812 920.437 485.142C896.066 480.495 872.2 507.343 851.717 533.45C847.214 539.19 842.898 545.213 838.782 551.386Z" fill="black"/>
<path d="M838.789 183.816C828.647 183.053 817.229 185.947 804.573 193.418C803.719 193.921 803.101 194.743 802.853 195.702C802.606 196.661 802.75 197.679 803.254 198.531C803.758 199.384 804.581 200.002 805.541 200.249C806.501 200.496 807.519 200.352 808.373 199.848C820.07 192.944 829.906 190.637 838.225 191.263C846.544 191.889 853.531 195.42 859.638 200.978C871.853 212.092 879.999 231.523 884.322 248.803C884.441 249.279 884.653 249.727 884.945 250.121C885.238 250.516 885.605 250.848 886.026 251.101C886.447 251.353 886.914 251.52 887.4 251.592C887.885 251.664 888.38 251.64 888.857 251.521C889.818 251.28 890.645 250.669 891.155 249.82C891.665 248.971 891.816 247.955 891.577 246.995C887.049 228.896 878.808 208.317 864.674 195.456C857.606 189.025 848.93 184.579 838.789 183.816Z" fill="black"/>
</g>
<defs>
<clipPath id="clip0_412_41">
<rect width="1101" height="787" fill="white" transform="translate(169 118)"/>
</clipPath>
</defs>
</svg>
