<svg width="326" height="569" viewBox="0 0 326 569" fill="none" xmlns="http://www.w3.org/2000/svg">
<path d="M113.011 276.572H116.287C116.95 276.572 117.486 276.404 117.897 276.068C118.308 275.732 118.513 275.219 118.513 274.528C118.513 273.837 118.308 273.324 117.897 272.988C117.486 272.652 116.95 272.484 116.287 272.484H113.011V276.572ZM112.059 271.672H116.497C116.945 271.672 117.351 271.737 117.715 271.868C118.079 271.989 118.392 272.176 118.653 272.428C118.914 272.671 119.115 272.969 119.255 273.324C119.395 273.679 119.465 274.08 119.465 274.528C119.465 274.976 119.395 275.377 119.255 275.732C119.115 276.087 118.914 276.39 118.653 276.642C118.392 276.885 118.079 277.071 117.715 277.202C117.351 277.323 116.945 277.384 116.497 277.384H113.011V281.668H112.059V271.672ZM124.097 271.672H125.049V280.856H130.649V281.668H124.097V271.672ZM136.251 277.748H140.185L138.253 272.624L136.251 277.748ZM137.763 271.672H138.827L142.747 281.668H141.725L140.507 278.56H135.957L134.753 281.668H133.745L137.763 271.672ZM148.622 277.552L144.702 271.672H145.822L149.112 276.74L152.388 271.672H153.522L149.574 277.552V281.668H148.622V277.552ZM157.615 271.672H164.517V272.484H158.567V276.096H164.139V276.908H158.567V280.856H164.587V281.668H157.615V271.672ZM170.086 276.418H173.642C173.931 276.418 174.206 276.376 174.468 276.292C174.729 276.199 174.958 276.068 175.154 275.9C175.35 275.732 175.504 275.531 175.616 275.298C175.737 275.055 175.798 274.78 175.798 274.472C175.798 273.856 175.62 273.371 175.266 273.016C174.911 272.661 174.37 272.484 173.642 272.484H170.086V276.418ZM169.134 271.672H173.712C174.122 271.672 174.51 271.723 174.874 271.826C175.247 271.929 175.569 272.087 175.84 272.302C176.12 272.507 176.339 272.778 176.498 273.114C176.666 273.441 176.75 273.828 176.75 274.276C176.75 274.911 176.586 275.461 176.26 275.928C175.933 276.395 175.448 276.693 174.804 276.824V276.852C175.13 276.899 175.401 276.987 175.616 277.118C175.83 277.239 176.003 277.398 176.134 277.594C176.274 277.79 176.372 278.019 176.428 278.28C176.493 278.532 176.535 278.807 176.554 279.106C176.563 279.274 176.572 279.479 176.582 279.722C176.591 279.965 176.61 280.212 176.638 280.464C176.666 280.707 176.708 280.94 176.764 281.164C176.829 281.379 176.913 281.547 177.016 281.668H175.966C175.91 281.575 175.863 281.463 175.826 281.332C175.798 281.192 175.774 281.052 175.756 280.912C175.746 280.763 175.737 280.618 175.728 280.478C175.718 280.338 175.709 280.217 175.7 280.114C175.681 279.759 175.648 279.409 175.602 279.064C175.564 278.709 175.476 278.397 175.336 278.126C175.205 277.846 175.009 277.622 174.748 277.454C174.496 277.286 174.146 277.211 173.698 277.23H170.086V281.668H169.134V271.672ZM189.158 273.758C189.541 273.749 189.886 273.73 190.194 273.702C190.511 273.665 190.782 273.585 191.006 273.464C191.239 273.343 191.431 273.161 191.58 272.918C191.739 272.666 191.851 272.316 191.916 271.868H192.63V281.668H191.748V274.388H189.158V273.758Z" fill="white"/>
<path d="M153.121 62.8104C153.121 79.7954 139.224 93.5722 122.072 93.5722C104.92 93.5722 91.0234 79.7954 91.0234 62.8104C91.0234 45.8254 104.92 32.0486 122.072 32.0486C139.224 32.0486 153.121 45.8254 153.121 62.8104Z" stroke="white"/>
<path d="M153.121 187.858C153.121 204.843 139.224 218.619 122.072 218.619C104.92 218.619 91.0234 204.843 91.0234 187.858C91.0234 170.873 104.92 157.096 122.072 157.096C139.224 157.096 153.121 170.873 153.121 187.858Z" stroke="white"/>
<circle cx="153.334" cy="62.8104" r="62.3104" stroke="white"/>
<circle cx="153.334" cy="125.334" r="124.834" stroke="white"/>
<path d="M215.644 188.144C215.644 222.397 187.749 250.168 153.334 250.168C118.919 250.168 91.0234 222.397 91.0234 188.144C91.0234 153.892 118.919 126.121 153.334 126.121C187.749 126.121 215.644 153.892 215.644 188.144Z" stroke="white"/>
<circle cx="184.883" cy="62.8104" r="30.7618" stroke="white"/>
<circle cx="184.883" cy="187.858" r="30.7618" stroke="white"/>
<path d="M21.0135 554.507H24.2895C24.9522 554.507 25.4889 554.339 25.8995 554.003C26.3102 553.667 26.5155 553.154 26.5155 552.463C26.5155 551.772 26.3102 551.259 25.8995 550.923C25.4889 550.587 24.9522 550.419 24.2895 550.419H21.0135V554.507ZM20.0615 549.607H24.4995C24.9475 549.607 25.3535 549.672 25.7175 549.803C26.0815 549.924 26.3942 550.111 26.6555 550.363C26.9169 550.606 27.1175 550.904 27.2575 551.259C27.3975 551.614 27.4675 552.015 27.4675 552.463C27.4675 552.911 27.3975 553.312 27.2575 553.667C27.1175 554.022 26.9169 554.325 26.6555 554.577C26.3942 554.82 26.0815 555.006 25.7175 555.137C25.3535 555.258 24.9475 555.319 24.4995 555.319H21.0135V559.603H20.0615V549.607ZM32.0999 549.607H33.0519V558.791H38.6519V559.603H32.0999V549.607ZM44.2534 555.683H48.1874L46.2554 550.559L44.2534 555.683ZM45.7654 549.607H46.8294L50.7494 559.603H49.7274L48.5094 556.495H43.9594L42.7554 559.603H41.7474L45.7654 549.607ZM56.6247 555.487L52.7047 549.607H53.8247L57.1147 554.675L60.3907 549.607H61.5247L57.5767 555.487V559.603H56.6247V555.487ZM65.6173 549.607H72.5193V550.419H66.5693V554.031H72.1413V554.843H66.5693V558.791H72.5893V559.603H65.6173V549.607ZM78.0882 554.353H81.6442C81.9335 554.353 82.2088 554.311 82.4702 554.227C82.7315 554.134 82.9602 554.003 83.1562 553.835C83.3522 553.667 83.5062 553.466 83.6182 553.233C83.7395 552.99 83.8002 552.715 83.8002 552.407C83.8002 551.791 83.6228 551.306 83.2682 550.951C82.9135 550.596 82.3722 550.419 81.6442 550.419H78.0882V554.353ZM77.1362 549.607H81.7142C82.1248 549.607 82.5122 549.658 82.8762 549.761C83.2495 549.864 83.5715 550.022 83.8422 550.237C84.1222 550.442 84.3415 550.713 84.5002 551.049C84.6682 551.376 84.7522 551.763 84.7522 552.211C84.7522 552.846 84.5888 553.396 84.2622 553.863C83.9355 554.33 83.4502 554.628 82.8062 554.759V554.787C83.1328 554.834 83.4035 554.922 83.6182 555.053C83.8328 555.174 84.0055 555.333 84.1362 555.529C84.2762 555.725 84.3742 555.954 84.4302 556.215C84.4955 556.467 84.5375 556.742 84.5562 557.041C84.5655 557.209 84.5748 557.414 84.5842 557.657C84.5935 557.9 84.6122 558.147 84.6402 558.399C84.6682 558.642 84.7102 558.875 84.7662 559.099C84.8315 559.314 84.9155 559.482 85.0182 559.603H83.9682C83.9122 559.51 83.8655 559.398 83.8282 559.267C83.8002 559.127 83.7768 558.987 83.7582 558.847C83.7488 558.698 83.7395 558.553 83.7302 558.413C83.7208 558.273 83.7115 558.152 83.7022 558.049C83.6835 557.694 83.6508 557.344 83.6042 556.999C83.5668 556.644 83.4782 556.332 83.3382 556.061C83.2075 555.781 83.0115 555.557 82.7502 555.389C82.4982 555.221 82.1482 555.146 81.7002 555.165H78.0882V559.603H77.1362V549.607ZM97.1465 556.481C97.1279 556.873 97.1699 557.228 97.2725 557.545C97.3845 557.862 97.5432 558.133 97.7485 558.357C97.9632 558.581 98.2245 558.758 98.5325 558.889C98.8499 559.01 99.2045 559.071 99.5965 559.071C99.9232 559.071 100.236 559.024 100.535 558.931C100.833 558.838 101.099 558.698 101.333 558.511C101.566 558.324 101.753 558.096 101.893 557.825C102.033 557.554 102.103 557.246 102.103 556.901C102.103 556.546 102.042 556.243 101.921 555.991C101.799 555.73 101.631 555.515 101.417 555.347C101.202 555.17 100.95 555.039 100.661 554.955C100.381 554.871 100.077 554.829 99.7505 554.829H99.0085V554.087H99.7505C99.9745 554.087 100.203 554.054 100.437 553.989C100.679 553.914 100.894 553.807 101.081 553.667C101.277 553.518 101.435 553.331 101.557 553.107C101.678 552.883 101.739 552.617 101.739 552.309C101.739 551.982 101.683 551.707 101.571 551.483C101.459 551.25 101.305 551.058 101.109 550.909C100.913 550.75 100.684 550.638 100.423 550.573C100.171 550.498 99.8952 550.461 99.5965 550.461C99.2325 550.461 98.9105 550.522 98.6305 550.643C98.3505 550.764 98.1125 550.937 97.9165 551.161C97.7299 551.376 97.5899 551.637 97.4965 551.945C97.4032 552.244 97.3612 552.575 97.3705 552.939H96.4885C96.4885 552.472 96.5585 552.043 96.6985 551.651C96.8479 551.259 97.0532 550.923 97.3145 550.643C97.5852 550.354 97.9119 550.13 98.2945 549.971C98.6772 549.803 99.1065 549.719 99.5825 549.719C99.9652 549.719 100.339 549.77 100.703 549.873C101.067 549.966 101.389 550.116 101.669 550.321C101.958 550.517 102.187 550.774 102.355 551.091C102.532 551.399 102.621 551.772 102.621 552.211C102.621 552.743 102.476 553.205 102.187 553.597C101.907 553.989 101.501 554.25 100.969 554.381V554.409C101.613 554.512 102.107 554.782 102.453 555.221C102.807 555.65 102.985 556.187 102.985 556.831C102.985 557.316 102.891 557.746 102.705 558.119C102.527 558.483 102.285 558.791 101.977 559.043C101.669 559.295 101.309 559.482 100.899 559.603C100.488 559.734 100.059 559.799 99.6105 559.799C99.1065 559.799 98.6399 559.724 98.2105 559.575C97.7905 559.426 97.4265 559.211 97.1185 558.931C96.8199 558.651 96.5912 558.306 96.4325 557.895C96.2832 557.484 96.2272 557.013 96.2645 556.481H97.1465Z" fill="white"/>
<circle cx="54.0495" cy="488.301" r="41.8014" stroke="white"/>
<path d="M204.568 513.886H207.844C208.506 513.886 209.043 513.718 209.454 513.382C209.864 513.046 210.07 512.533 210.07 511.842C210.07 511.151 209.864 510.638 209.454 510.302C209.043 509.966 208.506 509.798 207.844 509.798H204.568V513.886ZM203.616 508.986H208.054C208.502 508.986 208.908 509.051 209.272 509.182C209.636 509.303 209.948 509.49 210.21 509.742C210.471 509.985 210.672 510.283 210.812 510.638C210.952 510.993 211.022 511.394 211.022 511.842C211.022 512.29 210.952 512.691 210.812 513.046C210.672 513.401 210.471 513.704 210.21 513.956C209.948 514.199 209.636 514.385 209.272 514.516C208.908 514.637 208.502 514.698 208.054 514.698H204.568V518.982H203.616V508.986ZM215.654 508.986H216.606V518.17H222.206V518.982H215.654V508.986ZM227.808 515.062H231.742L229.81 509.938L227.808 515.062ZM229.32 508.986H230.384L234.304 518.982H233.282L232.064 515.874H227.514L226.31 518.982H225.302L229.32 508.986ZM240.179 514.866L236.259 508.986H237.379L240.669 514.054L243.945 508.986H245.079L241.131 514.866V518.982H240.179V514.866ZM249.171 508.986H256.073V509.798H250.123V513.41H255.695V514.222H250.123V518.17H256.143V518.982H249.171V508.986ZM261.642 513.732H265.198C265.488 513.732 265.763 513.69 266.024 513.606C266.286 513.513 266.514 513.382 266.71 513.214C266.906 513.046 267.06 512.845 267.172 512.612C267.294 512.369 267.354 512.094 267.354 511.786C267.354 511.17 267.177 510.685 266.822 510.33C266.468 509.975 265.926 509.798 265.198 509.798H261.642V513.732ZM260.69 508.986H265.268C265.679 508.986 266.066 509.037 266.43 509.14C266.804 509.243 267.126 509.401 267.396 509.616C267.676 509.821 267.896 510.092 268.054 510.428C268.222 510.755 268.306 511.142 268.306 511.59C268.306 512.225 268.143 512.775 267.816 513.242C267.49 513.709 267.004 514.007 266.36 514.138V514.166C266.687 514.213 266.958 514.301 267.172 514.432C267.387 514.553 267.56 514.712 267.69 514.908C267.83 515.104 267.928 515.333 267.984 515.594C268.05 515.846 268.092 516.121 268.11 516.42C268.12 516.588 268.129 516.793 268.138 517.036C268.148 517.279 268.166 517.526 268.194 517.778C268.222 518.021 268.264 518.254 268.32 518.478C268.386 518.693 268.47 518.861 268.572 518.982H267.522C267.466 518.889 267.42 518.777 267.382 518.646C267.354 518.506 267.331 518.366 267.312 518.226C267.303 518.077 267.294 517.932 267.284 517.792C267.275 517.652 267.266 517.531 267.256 517.428C267.238 517.073 267.205 516.723 267.158 516.378C267.121 516.023 267.032 515.711 266.892 515.44C266.762 515.16 266.566 514.936 266.304 514.768C266.052 514.6 265.702 514.525 265.254 514.544H261.642V518.982H260.69V508.986ZM286.315 518.982H279.861C279.87 518.497 279.954 518.067 280.113 517.694C280.271 517.321 280.481 516.985 280.743 516.686C281.004 516.387 281.298 516.117 281.625 515.874C281.951 515.622 282.287 515.384 282.633 515.16C282.978 514.927 283.319 514.693 283.655 514.46C284 514.217 284.308 513.961 284.579 513.69C284.849 513.419 285.05 513.144 285.181 512.864C285.321 512.575 285.391 512.234 285.391 511.842C285.391 511.525 285.33 511.245 285.209 511.002C285.097 510.75 284.938 510.54 284.733 510.372C284.537 510.195 284.303 510.064 284.033 509.98C283.771 509.887 283.491 509.84 283.193 509.84C282.791 509.84 282.446 509.915 282.157 510.064C281.877 510.213 281.648 510.414 281.471 510.666C281.293 510.918 281.163 511.207 281.079 511.534C281.004 511.861 280.971 512.206 280.981 512.57H280.099C280.089 512.066 280.145 511.604 280.267 511.184C280.397 510.755 280.593 510.386 280.855 510.078C281.116 509.77 281.443 509.532 281.835 509.364C282.236 509.187 282.703 509.098 283.235 509.098C283.664 509.098 284.061 509.159 284.425 509.28C284.798 509.392 285.12 509.565 285.391 509.798C285.671 510.022 285.885 510.307 286.035 510.652C286.193 510.997 286.273 511.399 286.273 511.856C286.273 512.267 286.203 512.64 286.063 512.976C285.932 513.312 285.75 513.62 285.517 513.9C285.293 514.18 285.031 514.441 284.733 514.684C284.443 514.917 284.135 515.137 283.809 515.342C283.575 515.501 283.3 515.678 282.983 515.874C282.665 516.061 282.357 516.271 282.059 516.504C281.769 516.737 281.513 516.994 281.289 517.274C281.065 517.545 280.925 517.843 280.869 518.17H286.315V518.982Z" fill="white"/>
<path d="M240.879 402.991C240.879 426.073 221.994 444.792 198.69 444.792C175.385 444.792 156.5 426.073 156.5 402.991C156.5 379.909 175.385 361.19 198.69 361.19C221.994 361.19 240.879 379.909 240.879 402.991Z" stroke="white"/>
<circle cx="240.991" cy="402.991" r="84.491" stroke="white"/>
<circle cx="283.681" cy="402.991" r="41.8014" stroke="white"/>
</svg>
