<svg width="685" height="410" viewBox="0 0 685 410" fill="none" xmlns="http://www.w3.org/2000/svg">
<path d="M15.2558 135.783H18.9998C19.7571 135.783 20.3705 135.591 20.8398 135.207C21.3091 134.823 21.5438 134.236 21.5438 133.447C21.5438 132.657 21.3091 132.071 20.8398 131.687C20.3705 131.303 19.7571 131.111 18.9998 131.111H15.2558V135.783ZM14.1678 130.183H19.2398C19.7518 130.183 20.2158 130.257 20.6318 130.407C21.0478 130.545 21.4051 130.759 21.7038 131.047C22.0025 131.324 22.2318 131.665 22.3918 132.071C22.5518 132.476 22.6318 132.935 22.6318 133.447C22.6318 133.959 22.5518 134.417 22.3918 134.823C22.2318 135.228 22.0025 135.575 21.7038 135.863C21.4051 136.14 21.0478 136.353 20.6318 136.503C20.2158 136.641 19.7518 136.711 19.2398 136.711H15.2558V141.607H14.1678V130.183ZM27.9259 130.183H29.0139V140.679H35.4139V141.607H27.9259V130.183ZM41.8157 137.127H46.3117L44.1037 131.271L41.8157 137.127ZM43.5437 130.183H44.7597L49.2397 141.607H48.0717L46.6797 138.055H41.4797L40.1037 141.607H38.9517L43.5437 130.183ZM55.9543 136.903L51.4743 130.183H52.7543L56.5143 135.975L60.2583 130.183H61.5543L57.0423 136.903V141.607H55.9543V136.903ZM66.2316 130.183H74.1196V131.111H67.3196V135.239H73.6876V136.167H67.3196V140.679H74.1996V141.607H66.2316V130.183ZM80.4839 135.607H84.5479C84.8786 135.607 85.1933 135.559 85.4919 135.463C85.7906 135.356 86.0519 135.207 86.2759 135.015C86.4999 134.823 86.6759 134.593 86.8039 134.327C86.9426 134.049 87.0119 133.735 87.0119 133.383C87.0119 132.679 86.8093 132.124 86.4039 131.719C85.9986 131.313 85.3799 131.111 84.5479 131.111H80.4839V135.607ZM79.3959 130.183H84.6279C85.0973 130.183 85.5399 130.241 85.9559 130.359C86.3826 130.476 86.7506 130.657 87.0599 130.903C87.3799 131.137 87.6306 131.447 87.8119 131.831C88.0039 132.204 88.0999 132.647 88.0999 133.159C88.0999 133.884 87.9133 134.513 87.5399 135.047C87.1666 135.58 86.6119 135.921 85.8759 136.071V136.103C86.2493 136.156 86.5586 136.257 86.8039 136.407C87.0493 136.545 87.2466 136.727 87.3959 136.951C87.5559 137.175 87.6679 137.436 87.7319 137.735C87.8066 138.023 87.8546 138.337 87.8759 138.679C87.8866 138.871 87.8973 139.105 87.9079 139.383C87.9186 139.66 87.9399 139.943 87.9719 140.231C88.0039 140.508 88.0519 140.775 88.1159 141.031C88.1906 141.276 88.2866 141.468 88.4039 141.607H87.2039C87.1399 141.5 87.0866 141.372 87.0439 141.223C87.0119 141.063 86.9853 140.903 86.9639 140.743C86.9533 140.572 86.9426 140.407 86.9319 140.247C86.9213 140.087 86.9106 139.948 86.8999 139.831C86.8786 139.425 86.8413 139.025 86.7879 138.631C86.7453 138.225 86.6439 137.868 86.4839 137.559C86.3346 137.239 86.1106 136.983 85.8119 136.791C85.5239 136.599 85.1239 136.513 84.6119 136.535H80.4839V141.607H79.3959V130.183ZM102.265 138.039C102.244 138.487 102.292 138.892 102.409 139.255C102.537 139.617 102.718 139.927 102.953 140.183C103.198 140.439 103.497 140.641 103.849 140.791C104.212 140.929 104.617 140.999 105.065 140.999C105.438 140.999 105.796 140.945 106.137 140.839C106.478 140.732 106.782 140.572 107.049 140.359C107.316 140.145 107.529 139.884 107.689 139.575C107.849 139.265 107.929 138.913 107.929 138.519C107.929 138.113 107.86 137.767 107.721 137.479C107.582 137.18 107.39 136.935 107.145 136.743C106.9 136.54 106.612 136.391 106.281 136.295C105.961 136.199 105.614 136.151 105.241 136.151H104.393V135.303H105.241C105.497 135.303 105.758 135.265 106.025 135.191C106.302 135.105 106.548 134.983 106.761 134.823C106.985 134.652 107.166 134.439 107.305 134.183C107.444 133.927 107.513 133.623 107.513 133.271C107.513 132.897 107.449 132.583 107.321 132.327C107.193 132.06 107.017 131.841 106.793 131.671C106.569 131.489 106.308 131.361 106.009 131.287C105.721 131.201 105.406 131.159 105.065 131.159C104.649 131.159 104.281 131.228 103.961 131.367C103.641 131.505 103.369 131.703 103.145 131.959C102.932 132.204 102.772 132.503 102.665 132.855C102.558 133.196 102.51 133.575 102.521 133.991H101.513C101.513 133.457 101.593 132.967 101.753 132.519C101.924 132.071 102.158 131.687 102.457 131.367C102.766 131.036 103.14 130.78 103.577 130.599C104.014 130.407 104.505 130.311 105.049 130.311C105.486 130.311 105.913 130.369 106.329 130.487C106.745 130.593 107.113 130.764 107.433 130.999C107.764 131.223 108.025 131.516 108.217 131.879C108.42 132.231 108.521 132.657 108.521 133.159C108.521 133.767 108.356 134.295 108.025 134.743C107.705 135.191 107.241 135.489 106.633 135.639V135.671C107.369 135.788 107.934 136.097 108.329 136.599C108.734 137.089 108.937 137.703 108.937 138.439C108.937 138.993 108.83 139.484 108.617 139.911C108.414 140.327 108.137 140.679 107.785 140.967C107.433 141.255 107.022 141.468 106.553 141.607C106.084 141.756 105.593 141.831 105.081 141.831C104.505 141.831 103.972 141.745 103.481 141.575C103.001 141.404 102.585 141.159 102.233 140.839C101.892 140.519 101.63 140.124 101.449 139.655C101.278 139.185 101.214 138.647 101.257 138.039H102.265Z" fill="white"/>
<circle cx="54.0495" cy="47.9152" r="41.8014" stroke="white"/>
<path d="M163.403 398.559H167.147C167.904 398.559 168.517 398.367 168.987 397.983C169.456 397.599 169.691 397.012 169.691 396.223C169.691 395.433 169.456 394.847 168.987 394.463C168.517 394.079 167.904 393.887 167.147 393.887H163.403V398.559ZM162.315 392.959H167.387C167.899 392.959 168.363 393.033 168.779 393.183C169.195 393.321 169.552 393.535 169.851 393.823C170.149 394.1 170.379 394.441 170.539 394.847C170.699 395.252 170.779 395.711 170.779 396.223C170.779 396.735 170.699 397.193 170.539 397.599C170.379 398.004 170.149 398.351 169.851 398.639C169.552 398.916 169.195 399.129 168.779 399.279C168.363 399.417 167.899 399.487 167.387 399.487H163.403V404.383H162.315V392.959ZM176.073 392.959H177.161V403.455H183.561V404.383H176.073V392.959ZM189.963 399.903H194.459L192.251 394.047L189.963 399.903ZM191.691 392.959H192.907L197.387 404.383H196.219L194.827 400.831H189.627L188.251 404.383H187.099L191.691 392.959ZM204.101 399.679L199.621 392.959H200.901L204.661 398.751L208.405 392.959H209.701L205.189 399.679V404.383H204.101V399.679ZM214.378 392.959H222.266V393.887H215.466V398.015H221.834V398.943H215.466V403.455H222.346V404.383H214.378V392.959ZM228.631 398.383H232.695C233.025 398.383 233.34 398.335 233.639 398.239C233.937 398.132 234.199 397.983 234.423 397.791C234.647 397.599 234.823 397.369 234.951 397.103C235.089 396.825 235.159 396.511 235.159 396.159C235.159 395.455 234.956 394.9 234.551 394.495C234.145 394.089 233.527 393.887 232.695 393.887H228.631V398.383ZM227.543 392.959H232.775C233.244 392.959 233.687 393.017 234.103 393.135C234.529 393.252 234.897 393.433 235.207 393.679C235.527 393.913 235.777 394.223 235.959 394.607C236.151 394.98 236.247 395.423 236.247 395.935C236.247 396.66 236.06 397.289 235.687 397.823C235.313 398.356 234.759 398.697 234.023 398.847V398.879C234.396 398.932 234.705 399.033 234.951 399.183C235.196 399.321 235.393 399.503 235.543 399.727C235.703 399.951 235.815 400.212 235.879 400.511C235.953 400.799 236.001 401.113 236.023 401.455C236.033 401.647 236.044 401.881 236.055 402.159C236.065 402.436 236.087 402.719 236.119 403.007C236.151 403.284 236.199 403.551 236.263 403.807C236.337 404.052 236.433 404.244 236.551 404.383H235.351C235.287 404.276 235.233 404.148 235.191 403.999C235.159 403.839 235.132 403.679 235.111 403.519C235.1 403.348 235.089 403.183 235.079 403.023C235.068 402.863 235.057 402.724 235.047 402.607C235.025 402.201 234.988 401.801 234.935 401.407C234.892 401.001 234.791 400.644 234.631 400.335C234.481 400.015 234.257 399.759 233.959 399.567C233.671 399.375 233.271 399.289 232.759 399.311H228.631V404.383H227.543V392.959ZM256.828 404.383H249.452C249.462 403.828 249.558 403.337 249.74 402.911C249.921 402.484 250.161 402.1 250.46 401.759C250.758 401.417 251.094 401.108 251.468 400.831C251.841 400.543 252.225 400.271 252.62 400.015C253.014 399.748 253.404 399.481 253.788 399.215C254.182 398.937 254.534 398.644 254.844 398.335C255.153 398.025 255.382 397.711 255.532 397.391C255.692 397.06 255.772 396.671 255.772 396.223C255.772 395.86 255.702 395.54 255.564 395.263C255.436 394.975 255.254 394.735 255.02 394.543C254.796 394.34 254.529 394.191 254.22 394.095C253.921 393.988 253.601 393.935 253.26 393.935C252.801 393.935 252.406 394.02 252.076 394.191C251.756 394.361 251.494 394.591 251.292 394.879C251.089 395.167 250.94 395.497 250.844 395.871C250.758 396.244 250.721 396.639 250.732 397.055H249.724C249.713 396.479 249.777 395.951 249.916 395.471C250.065 394.98 250.289 394.559 250.588 394.207C250.886 393.855 251.26 393.583 251.708 393.391C252.166 393.188 252.7 393.087 253.308 393.087C253.798 393.087 254.252 393.156 254.668 393.295C255.094 393.423 255.462 393.62 255.772 393.887C256.092 394.143 256.337 394.468 256.508 394.863C256.689 395.257 256.78 395.716 256.78 396.239C256.78 396.708 256.7 397.135 256.54 397.519C256.39 397.903 256.182 398.255 255.916 398.575C255.66 398.895 255.361 399.193 255.02 399.471C254.689 399.737 254.337 399.988 253.964 400.223C253.697 400.404 253.382 400.607 253.02 400.831C252.657 401.044 252.305 401.284 251.964 401.551C251.633 401.817 251.34 402.111 251.084 402.431C250.828 402.74 250.668 403.081 250.604 403.455H256.828V404.383Z" fill="white"/>
<path d="M205.472 259.449C205.472 282.531 186.587 301.251 163.282 301.251C139.977 301.251 121.093 282.531 121.093 259.449C121.093 236.367 139.977 217.648 163.282 217.648C186.587 217.648 205.472 236.367 205.472 259.449Z" stroke="white"/>
<circle cx="205.584" cy="259.449" r="84.491" stroke="white"/>
<circle cx="248.274" cy="259.449" r="41.8014" stroke="white"/>
<path d="M478.32 396.591H482.064C482.822 396.591 483.435 396.399 483.904 396.015C484.374 395.631 484.608 395.044 484.608 394.255C484.608 393.466 484.374 392.879 483.904 392.495C483.435 392.111 482.822 391.919 482.064 391.919H478.32V396.591ZM477.232 390.991H482.304C482.816 390.991 483.28 391.066 483.696 391.215C484.112 391.354 484.47 391.567 484.768 391.855C485.067 392.132 485.296 392.474 485.456 392.879C485.616 393.284 485.696 393.743 485.696 394.255C485.696 394.767 485.616 395.226 485.456 395.631C485.296 396.036 485.067 396.383 484.768 396.671C484.47 396.948 484.112 397.162 483.696 397.311C483.28 397.45 482.816 397.519 482.304 397.519H478.32V402.415H477.232V390.991ZM490.99 390.991H492.078V401.487H498.478V402.415H490.99V390.991ZM504.88 397.935H509.376L507.168 392.079L504.88 397.935ZM506.608 390.991H507.824L512.304 402.415H511.136L509.744 398.863H504.544L503.168 402.415H502.016L506.608 390.991ZM519.019 397.711L514.539 390.991H515.819L519.579 396.783L523.323 390.991H524.619L520.107 397.711V402.415H519.019V397.711ZM529.296 390.991H537.184V391.919H530.384V396.047H536.752V396.975H530.384V401.487H537.264V402.415H529.296V390.991ZM543.548 396.415H547.612C547.943 396.415 548.258 396.367 548.556 396.271C548.855 396.164 549.116 396.015 549.34 395.823C549.564 395.631 549.74 395.402 549.868 395.135C550.007 394.858 550.076 394.543 550.076 394.191C550.076 393.487 549.874 392.932 549.468 392.527C549.063 392.122 548.444 391.919 547.612 391.919H543.548V396.415ZM542.46 390.991H547.692C548.162 390.991 548.604 391.05 549.02 391.167C549.447 391.284 549.815 391.466 550.124 391.711C550.444 391.946 550.695 392.255 550.876 392.639C551.068 393.012 551.164 393.455 551.164 393.967C551.164 394.692 550.978 395.322 550.604 395.855C550.231 396.388 549.676 396.73 548.94 396.879V396.911C549.314 396.964 549.623 397.066 549.868 397.215C550.114 397.354 550.311 397.535 550.46 397.759C550.62 397.983 550.732 398.244 550.796 398.543C550.871 398.831 550.919 399.146 550.94 399.487C550.951 399.679 550.962 399.914 550.972 400.191C550.983 400.468 551.004 400.751 551.036 401.039C551.068 401.316 551.116 401.583 551.18 401.839C551.255 402.084 551.351 402.276 551.468 402.415H550.268C550.204 402.308 550.151 402.18 550.108 402.031C550.076 401.871 550.05 401.711 550.028 401.551C550.018 401.38 550.007 401.215 549.996 401.055C549.986 400.895 549.975 400.756 549.964 400.639C549.943 400.234 549.906 399.834 549.852 399.439C549.81 399.034 549.708 398.676 549.548 398.367C549.399 398.047 549.175 397.791 548.876 397.599C548.588 397.407 548.188 397.322 547.676 397.343H543.548V402.415H542.46V390.991ZM565.345 393.375C565.783 393.364 566.177 393.343 566.529 393.311C566.892 393.268 567.201 393.178 567.457 393.039C567.724 392.9 567.943 392.692 568.113 392.415C568.295 392.127 568.423 391.727 568.497 391.215H569.313V402.415H568.305V394.095H565.345V393.375Z" fill="white"/>
<path d="M515.255 84.991C515.255 108.073 496.37 126.792 473.066 126.792C449.761 126.792 430.876 108.073 430.876 84.991C430.876 61.909 449.761 43.1895 473.066 43.1895C496.37 43.1895 515.255 61.909 515.255 84.991Z" stroke="white"/>
<path d="M515.255 254.197C515.255 277.279 496.37 295.998 473.066 295.998C449.761 295.998 430.876 277.279 430.876 254.197C430.876 231.115 449.761 212.395 473.066 212.395C496.37 212.395 515.255 231.115 515.255 254.197Z" stroke="white"/>
<circle cx="515.367" cy="84.991" r="84.491" stroke="white"/>
<circle cx="515.367" cy="169.594" r="169.094" stroke="white"/>
<path d="M599.858 254.585C599.858 301.031 562.032 338.688 515.367 338.688C468.702 338.688 430.876 301.031 430.876 254.585C430.876 208.138 468.702 170.482 515.367 170.482C562.032 170.482 599.858 208.138 599.858 254.585Z" stroke="white"/>
<circle cx="558.056" cy="84.991" r="41.8014" stroke="white"/>
<circle cx="558.056" cy="254.197" r="41.8014" stroke="white"/>
</svg>
