<svg width="925" height="554" viewBox="0 0 925 554" fill="none" xmlns="http://www.w3.org/2000/svg">
<path d="M21.4227 201.72H26.1027C27.0493 201.72 27.816 201.48 28.4027 201C28.9893 200.52 29.2827 199.787 29.2827 198.8C29.2827 197.813 28.9893 197.08 28.4027 196.6C27.816 196.12 27.0493 195.88 26.1027 195.88H21.4227V201.72ZM20.0627 194.72H26.4027C27.0427 194.72 27.6227 194.813 28.1427 195C28.6627 195.173 29.1093 195.44 29.4827 195.8C29.856 196.147 30.1427 196.573 30.3427 197.08C30.5427 197.587 30.6427 198.16 30.6427 198.8C30.6427 199.44 30.5427 200.013 30.3427 200.52C30.1427 201.027 29.856 201.46 29.4827 201.82C29.1093 202.167 28.6627 202.433 28.1427 202.62C27.6227 202.793 27.0427 202.88 26.4027 202.88H21.4227V209H20.0627V194.72ZM37.2603 194.72H38.6203V207.84H46.6203V209H37.2603V194.72ZM54.6225 203.4H60.2425L57.4825 196.08L54.6225 203.4ZM56.7825 194.72H58.3025L63.9025 209H62.4425L60.7025 204.56H54.2025L52.4825 209H51.0425L56.7825 194.72ZM72.2958 203.12L66.6958 194.72H68.2958L72.9958 201.96L77.6758 194.72H79.2958L73.6558 203.12V209H72.2958V203.12ZM85.1423 194.72H95.0023V195.88H86.5023V201.04H94.4623V202.2H86.5023V207.84H95.1023V209H85.1423V194.72ZM102.958 201.5H108.038C108.451 201.5 108.844 201.44 109.218 201.32C109.591 201.187 109.918 201 110.198 200.76C110.478 200.52 110.698 200.233 110.858 199.9C111.031 199.553 111.118 199.16 111.118 198.72C111.118 197.84 110.864 197.147 110.358 196.64C109.851 196.133 109.078 195.88 108.038 195.88H102.958V201.5ZM101.598 194.72H108.138C108.724 194.72 109.278 194.793 109.798 194.94C110.331 195.087 110.791 195.313 111.178 195.62C111.578 195.913 111.891 196.3 112.118 196.78C112.358 197.247 112.478 197.8 112.478 198.44C112.478 199.347 112.244 200.133 111.778 200.8C111.311 201.467 110.618 201.893 109.698 202.08V202.12C110.164 202.187 110.551 202.313 110.858 202.5C111.164 202.673 111.411 202.9 111.598 203.18C111.798 203.46 111.938 203.787 112.018 204.16C112.111 204.52 112.171 204.913 112.198 205.34C112.211 205.58 112.224 205.873 112.238 206.22C112.251 206.567 112.278 206.92 112.318 207.28C112.358 207.627 112.418 207.96 112.498 208.28C112.591 208.587 112.711 208.827 112.858 209H111.358C111.278 208.867 111.211 208.707 111.158 208.52C111.118 208.32 111.084 208.12 111.058 207.92C111.044 207.707 111.031 207.5 111.018 207.3C111.004 207.1 110.991 206.927 110.978 206.78C110.951 206.273 110.904 205.773 110.838 205.28C110.784 204.773 110.658 204.327 110.458 203.94C110.271 203.54 109.991 203.22 109.618 202.98C109.258 202.74 108.758 202.633 108.118 202.66H102.958V209H101.598V194.72ZM130.204 197.7C130.751 197.687 131.244 197.66 131.684 197.62C132.137 197.567 132.524 197.453 132.844 197.28C133.177 197.107 133.451 196.847 133.664 196.5C133.891 196.14 134.051 195.64 134.144 195H135.164V209H133.904V198.6H130.204V197.7Z" fill="white"/>
<circle cx="73.5" cy="87.5" r="54" stroke="white"/>
<path d="M241.923 479.72H246.603C247.549 479.72 248.316 479.48 248.903 479C249.489 478.52 249.783 477.787 249.783 476.8C249.783 475.813 249.489 475.08 248.903 474.6C248.316 474.12 247.549 473.88 246.603 473.88H241.923V479.72ZM240.563 472.72H246.903C247.543 472.72 248.123 472.813 248.643 473C249.163 473.173 249.609 473.44 249.983 473.8C250.356 474.147 250.643 474.573 250.843 475.08C251.043 475.587 251.143 476.16 251.143 476.8C251.143 477.44 251.043 478.013 250.843 478.52C250.643 479.027 250.356 479.46 249.983 479.82C249.609 480.167 249.163 480.433 248.643 480.62C248.123 480.793 247.543 480.88 246.903 480.88H241.923V487H240.563V472.72ZM257.76 472.72H259.12V485.84H267.12V487H257.76V472.72ZM275.123 481.4H280.743L277.983 474.08L275.123 481.4ZM277.283 472.72H278.803L284.403 487H282.943L281.203 482.56H274.703L272.983 487H271.543L277.283 472.72ZM292.796 481.12L287.196 472.72H288.796L293.496 479.96L298.176 472.72H299.796L294.156 481.12V487H292.796V481.12ZM305.642 472.72H315.502V473.88H307.002V479.04H314.962V480.2H307.002V485.84H315.602V487H305.642V472.72ZM323.458 479.5H328.538C328.951 479.5 329.344 479.44 329.718 479.32C330.091 479.187 330.418 479 330.698 478.76C330.978 478.52 331.198 478.233 331.358 477.9C331.531 477.553 331.618 477.16 331.618 476.72C331.618 475.84 331.364 475.147 330.858 474.64C330.351 474.133 329.578 473.88 328.538 473.88H323.458V479.5ZM322.098 472.72H328.638C329.224 472.72 329.778 472.793 330.298 472.94C330.831 473.087 331.291 473.313 331.678 473.62C332.078 473.913 332.391 474.3 332.618 474.78C332.858 475.247 332.978 475.8 332.978 476.44C332.978 477.347 332.744 478.133 332.278 478.8C331.811 479.467 331.118 479.893 330.198 480.08V480.12C330.664 480.187 331.051 480.313 331.358 480.5C331.664 480.673 331.911 480.9 332.098 481.18C332.298 481.46 332.438 481.787 332.518 482.16C332.611 482.52 332.671 482.913 332.698 483.34C332.711 483.58 332.724 483.873 332.738 484.22C332.751 484.567 332.778 484.92 332.818 485.28C332.858 485.627 332.918 485.96 332.998 486.28C333.091 486.587 333.211 486.827 333.358 487H331.858C331.778 486.867 331.711 486.707 331.658 486.52C331.618 486.32 331.584 486.12 331.558 485.92C331.544 485.707 331.531 485.5 331.518 485.3C331.504 485.1 331.491 484.927 331.478 484.78C331.451 484.273 331.404 483.773 331.338 483.28C331.284 482.773 331.158 482.327 330.958 481.94C330.771 481.54 330.491 481.22 330.118 480.98C329.758 480.74 329.258 480.633 328.618 480.66H323.458V487H322.098V472.72ZM358.704 487H349.484C349.497 486.307 349.617 485.693 349.844 485.16C350.071 484.627 350.371 484.147 350.744 483.72C351.117 483.293 351.537 482.907 352.004 482.56C352.471 482.2 352.951 481.86 353.444 481.54C353.937 481.207 354.424 480.873 354.904 480.54C355.397 480.193 355.837 479.827 356.224 479.44C356.611 479.053 356.897 478.66 357.084 478.26C357.284 477.847 357.384 477.36 357.384 476.8C357.384 476.347 357.297 475.947 357.124 475.6C356.964 475.24 356.737 474.94 356.444 474.7C356.164 474.447 355.831 474.26 355.444 474.14C355.071 474.007 354.671 473.94 354.244 473.94C353.671 473.94 353.177 474.047 352.764 474.26C352.364 474.473 352.037 474.76 351.784 475.12C351.531 475.48 351.344 475.893 351.224 476.36C351.117 476.827 351.071 477.32 351.084 477.84H349.824C349.811 477.12 349.891 476.46 350.064 475.86C350.251 475.247 350.531 474.72 350.904 474.28C351.277 473.84 351.744 473.5 352.304 473.26C352.877 473.007 353.544 472.88 354.304 472.88C354.917 472.88 355.484 472.967 356.004 473.14C356.537 473.3 356.997 473.547 357.384 473.88C357.784 474.2 358.091 474.607 358.304 475.1C358.531 475.593 358.644 476.167 358.644 476.82C358.644 477.407 358.544 477.94 358.344 478.42C358.157 478.9 357.897 479.34 357.564 479.74C357.244 480.14 356.871 480.513 356.444 480.86C356.031 481.193 355.591 481.507 355.124 481.8C354.791 482.027 354.397 482.28 353.944 482.56C353.491 482.827 353.051 483.127 352.624 483.46C352.211 483.793 351.844 484.16 351.524 484.56C351.204 484.947 351.004 485.373 350.924 485.84H358.704V487Z" fill="white"/>
<path d="M294.5 308.5C294.5 338.319 270.104 362.5 240 362.5C209.896 362.5 185.5 338.319 185.5 308.5C185.5 278.681 209.896 254.5 240 254.5C270.104 254.5 294.5 278.681 294.5 308.5Z" stroke="white"/>
<circle cx="294.5" cy="308.5" r="109" stroke="white"/>
<circle cx="349.5" cy="308.5" r="54" stroke="white"/>
<path d="M673.423 528.72H678.103C679.049 528.72 679.816 528.48 680.403 528C680.989 527.52 681.283 526.787 681.283 525.8C681.283 524.813 680.989 524.08 680.403 523.6C679.816 523.12 679.049 522.88 678.103 522.88H673.423V528.72ZM672.063 521.72H678.403C679.043 521.72 679.623 521.813 680.143 522C680.663 522.173 681.109 522.44 681.483 522.8C681.856 523.147 682.143 523.573 682.343 524.08C682.543 524.587 682.643 525.16 682.643 525.8C682.643 526.44 682.543 527.013 682.343 527.52C682.143 528.027 681.856 528.46 681.483 528.82C681.109 529.167 680.663 529.433 680.143 529.62C679.623 529.793 679.043 529.88 678.403 529.88H673.423V536H672.063V521.72ZM689.26 521.72H690.62V534.84H698.62V536H689.26V521.72ZM706.623 530.4H712.243L709.483 523.08L706.623 530.4ZM708.783 521.72H710.303L715.903 536H714.443L712.703 531.56H706.203L704.483 536H703.043L708.783 521.72ZM724.296 530.12L718.696 521.72H720.296L724.996 528.96L729.676 521.72H731.296L725.656 530.12V536H724.296V530.12ZM737.142 521.72H747.002V522.88H738.502V528.04H746.462V529.2H738.502V534.84H747.102V536H737.142V521.72ZM754.958 528.5H760.038C760.451 528.5 760.844 528.44 761.218 528.32C761.591 528.187 761.918 528 762.198 527.76C762.478 527.52 762.698 527.233 762.858 526.9C763.031 526.553 763.118 526.16 763.118 525.72C763.118 524.84 762.864 524.147 762.358 523.64C761.851 523.133 761.078 522.88 760.038 522.88H754.958V528.5ZM753.598 521.72H760.138C760.724 521.72 761.278 521.793 761.798 521.94C762.331 522.087 762.791 522.313 763.178 522.62C763.578 522.913 763.891 523.3 764.118 523.78C764.358 524.247 764.478 524.8 764.478 525.44C764.478 526.347 764.244 527.133 763.778 527.8C763.311 528.467 762.618 528.893 761.698 529.08V529.12C762.164 529.187 762.551 529.313 762.858 529.5C763.164 529.673 763.411 529.9 763.598 530.18C763.798 530.46 763.938 530.787 764.018 531.16C764.111 531.52 764.171 531.913 764.198 532.34C764.211 532.58 764.224 532.873 764.238 533.22C764.251 533.567 764.278 533.92 764.318 534.28C764.358 534.627 764.418 534.96 764.498 535.28C764.591 535.587 764.711 535.827 764.858 536H763.358C763.278 535.867 763.211 535.707 763.158 535.52C763.118 535.32 763.084 535.12 763.058 534.92C763.044 534.707 763.031 534.5 763.018 534.3C763.004 534.1 762.991 533.927 762.978 533.78C762.951 533.273 762.904 532.773 762.838 532.28C762.784 531.773 762.658 531.327 762.458 530.94C762.271 530.54 761.991 530.22 761.618 529.98C761.258 529.74 760.758 529.633 760.118 529.66H754.958V536H753.598V521.72ZM782.184 531.54C782.157 532.1 782.217 532.607 782.364 533.06C782.524 533.513 782.751 533.9 783.044 534.22C783.351 534.54 783.724 534.793 784.164 534.98C784.617 535.153 785.124 535.24 785.684 535.24C786.151 535.24 786.597 535.173 787.024 535.04C787.451 534.907 787.831 534.707 788.164 534.44C788.497 534.173 788.764 533.847 788.964 533.46C789.164 533.073 789.264 532.633 789.264 532.14C789.264 531.633 789.177 531.2 789.004 530.84C788.831 530.467 788.591 530.16 788.284 529.92C787.977 529.667 787.617 529.48 787.204 529.36C786.804 529.24 786.371 529.18 785.904 529.18H784.844V528.12H785.904C786.224 528.12 786.551 528.073 786.884 527.98C787.231 527.873 787.537 527.72 787.804 527.52C788.084 527.307 788.311 527.04 788.484 526.72C788.657 526.4 788.744 526.02 788.744 525.58C788.744 525.113 788.664 524.72 788.504 524.4C788.344 524.067 788.124 523.793 787.844 523.58C787.564 523.353 787.237 523.193 786.864 523.1C786.504 522.993 786.111 522.94 785.684 522.94C785.164 522.94 784.704 523.027 784.304 523.2C783.904 523.373 783.564 523.62 783.284 523.94C783.017 524.247 782.817 524.62 782.684 525.06C782.551 525.487 782.491 525.96 782.504 526.48H781.244C781.244 525.813 781.344 525.2 781.544 524.64C781.757 524.08 782.051 523.6 782.424 523.2C782.811 522.787 783.277 522.467 783.824 522.24C784.371 522 784.984 521.88 785.664 521.88C786.211 521.88 786.744 521.953 787.264 522.1C787.784 522.233 788.244 522.447 788.644 522.74C789.057 523.02 789.384 523.387 789.624 523.84C789.877 524.28 790.004 524.813 790.004 525.44C790.004 526.2 789.797 526.86 789.384 527.42C788.984 527.98 788.404 528.353 787.644 528.54V528.58C788.564 528.727 789.271 529.113 789.764 529.74C790.271 530.353 790.524 531.12 790.524 532.04C790.524 532.733 790.391 533.347 790.124 533.88C789.871 534.4 789.524 534.84 789.084 535.2C788.644 535.56 788.131 535.827 787.544 536C786.957 536.187 786.344 536.28 785.704 536.28C784.984 536.28 784.317 536.173 783.704 535.96C783.104 535.747 782.584 535.44 782.144 535.04C781.717 534.64 781.391 534.147 781.164 533.56C780.951 532.973 780.871 532.3 780.924 531.54H782.184Z" fill="white"/>
<path d="M706.5 109.5C706.5 139.319 682.104 163.5 652 163.5C621.896 163.5 597.5 139.319 597.5 109.5C597.5 79.6809 621.896 55.5 652 55.5C682.104 55.5 706.5 79.6809 706.5 109.5Z" stroke="white"/>
<path d="M706.5 327.5C706.5 357.319 682.104 381.5 652 381.5C621.896 381.5 597.5 357.319 597.5 327.5C597.5 297.681 621.896 273.5 652 273.5C682.104 273.5 706.5 297.681 706.5 327.5Z" stroke="white"/>
<circle cx="706.5" cy="109.5" r="109" stroke="white"/>
<circle cx="706.5" cy="218.5" r="218" stroke="white"/>
<path d="M815.5 328C815.5 387.921 766.701 436.5 706.5 436.5C646.299 436.5 597.5 387.921 597.5 328C597.5 268.079 646.299 219.5 706.5 219.5C766.701 219.5 815.5 268.079 815.5 328Z" stroke="white"/>
<circle cx="761.5" cy="109.5" r="54" stroke="white"/>
<circle cx="761.5" cy="327.5" r="54" stroke="white"/>
</svg>
