<svg width="609" height="605" viewBox="0 0 609 605" fill="none" xmlns="http://www.w3.org/2000/svg">
<path d="M258.617 475.04C251.555 436.448 277.742 348.302 291.718 309.053C296.376 311.387 335.362 303.348 347.867 284.156C357.871 268.802 374.861 262.771 383.175 260.036C394.208 256.404 412.598 256.923 416.03 265.741L419.708 274.819C431.723 311.387 421.261 366.976 413.824 391.787L386.362 396.974C365.57 361.288 376.228 317.785 384.156 300.495C375.721 312.529 352.036 325.22 341.247 330.061C340.757 361.962 294.66 471.928 284.608 478.93C276.565 484.532 263.93 478.671 258.617 475.04Z" fill="black"/>
<path d="M276.229 481.396L272.796 488.001M262.005 477.21L255.455 495.522L254.893 497.091C254.27 498.677 253.838 501.336 254.893 503.602C255.637 505.199 257.121 506.601 259.798 507.294C266.272 508.968 290.617 510.782 301.98 511.479C303.942 511.741 307.67 510.747 306.885 504.678C306.1 498.608 301.98 493.055 297.321 490.813C293.541 488.995 283.794 486.173 272.796 488.001L262.005 477.21ZM269.362 488.72C270.517 488.427 271.663 488.189 272.796 488.001L269.362 488.72Z" stroke="black" stroke-width="3" stroke-linecap="round"/>
<path d="M390.278 395.566C390.033 403.262 390.695 418.412 392.491 420.729C394.703 423.582 397.407 423.841 413.877 418.394C427.053 414.036 432.314 413.984 435.509 413.465C437.722 413.106 440.426 412.791 440.426 406.98C440.426 399.717 437.722 394.788 429.364 393.75C422.677 392.92 413.14 397.209 409.207 399.457V392.453" stroke="black" stroke-width="3" stroke-linecap="round"/>
<path d="M358.814 134.461C333.562 137.162 283.943 148.549 287.473 172.481C288.014 174.513 289.569 177.756 292.468 180.805C295.26 183.743 299.298 186.502 304.879 187.829" stroke="black" stroke-width="3" stroke-linecap="round"/>
<path d="M292.468 180.806C300.364 193.813 323.511 222.064 352.93 231.012" stroke="black" stroke-width="3" stroke-linecap="round"/>
<path d="M352.741 231.012C354.539 228.454 359.265 223.832 364.813 223.612" stroke="black" stroke-width="3" stroke-linecap="round"/>
<path d="M364.813 223.612C364.649 216.308 358.829 197.472 336.856 180.561" stroke="black" stroke-width="3" stroke-linecap="round"/>
<path d="M330.502 186.616C332.782 182.707 339.788 174.409 349.564 172.49" stroke="black" stroke-width="3" stroke-linecap="round"/>
<path d="M385.146 179.216C386.205 180.541 388.323 184.145 388.323 187.961" stroke="black" stroke-width="3" stroke-linecap="round"/>
<path d="M384.896 235.055C389.904 234.796 400.361 234.019 402.135 232.981C404.351 231.686 404.843 231.686 404.843 229.093C404.843 226.502 384.896 230.908 384.896 222.614C386.703 220.713 389.625 216.444 386.867 214.578C384.108 212.712 378.329 218.121 375.785 221.058C373.159 223.996 367.265 228.627 364.703 223.65" stroke="black" stroke-width="3" stroke-linecap="round"/>
<path d="M353.376 230.909C355.592 237.734 363.571 249.986 377.755 244.387C391.94 238.788 392.531 235.833 391.053 235.056" stroke="black" stroke-width="3" stroke-linecap="round"/>
<path d="M475.538 233.813C478.985 232.815 486.519 228.176 489.079 217.595C491.64 207.014 488.177 206.962 486.125 208.259" stroke="black" stroke-width="3" stroke-linecap="round"/>
<path d="M462.734 226.153C463.801 220.275 467.56 208.933 474.06 210.593" stroke="black" stroke-width="3" stroke-linecap="round"/>
<path d="M465.443 216.557C460.913 212.616 458.139 221.658 457.318 226.672C452.197 228.331 450.26 236.181 449.932 239.898C461.783 241.185 470.204 237.815 475.538 233.813C478.803 231.362 480.911 228.674 481.94 226.672C484.484 219.497 488.193 204.525 482.678 202.035C477.163 199.546 475.62 205.147 475.538 208.259C476.129 215.313 472.665 223.127 470.86 226.153" stroke="black" stroke-width="3" stroke-linecap="round"/>
<path d="M394.042 234.971C404.71 245.517 430.825 261.267 449.932 239.898" stroke="black" stroke-width="3" stroke-linecap="round"/>
<path d="M392.136 236.393C392.136 241.289 390.992 252.449 386.417 257.919" stroke="black" stroke-width="3" stroke-linecap="round"/>
<path d="M292.378 247.829C282.309 262.218 268.212 294.738 292.378 309.715" stroke="black" stroke-width="3" stroke-linecap="round"/>
<path d="M593.557 185.943L599.276 175.853" stroke="black" stroke-width="3" stroke-linecap="round"/>
<path d="M596.352 191.218L606.9 190.698" stroke="black" stroke-width="3" stroke-linecap="round"/>
<path d="M594.192 197.379L600.546 206.123" stroke="black" stroke-width="3" stroke-linecap="round"/>
<path d="M386.492 514.212H214.859V603" stroke="#A0A0A0" stroke-width="3" stroke-linecap="round"/>
<path d="M505.825 425.684H365.375V533.943" stroke="#A0A0A0" stroke-width="3" stroke-linecap="round"/>
<path d="M598.64 301.588H484.709V446.193" stroke="#A0A0A0" stroke-width="3" stroke-linecap="round"/>
<path d="M578.506 207.132V321.839" stroke="#A0A0A0" stroke-width="3" stroke-linecap="round"/>
<path d="M578.506 167.108V176.861" stroke="black" stroke-width="3" stroke-linecap="round"/>
<path d="M355.943 237.426L215.283 254.555C199.012 240.756 202.949 220.154 206.952 211.578L304.727 199.17" stroke="black" stroke-width="3" stroke-linecap="round"/>
<path d="M404.218 233.291L452.494 228.38" stroke="black" stroke-width="3" stroke-linecap="round"/>
<path d="M487.781 222.951L519.393 220.624L561.787 200.281C556.69 194.553 559.486 189.45 561.609 187.624L519.393 177.198L352.267 191.932" stroke="black" stroke-width="3" stroke-linecap="round"/>
<path d="M191.805 211.792L206.134 210.159C196.196 233.728 207.587 249.763 214.859 256.002L198.135 258.592C184.157 240.569 187.76 220.4 191.805 211.792Z" fill="black"/>
<path d="M563.312 201.415C557.994 195.538 560.982 188.54 563.198 186.28L583.391 191.555L563.312 201.415Z" fill="black"/>
<path d="M519.851 177.198C514.576 184.287 507.192 202.821 519.851 220.249" stroke="black" stroke-width="3"/>
<path d="M398.373 139C402.575 136.261 434.192 138.901 440.339 96.7976C450.862 96.9281 456.585 87.802 448.555 83.8964C439.995 79.2234 440.637 70.6441 442.188 65.5891C444.654 58.9597 444.803 51.9995 444.271 50.5437" stroke="black" stroke-width="3" stroke-linecap="round"/>
<path d="M431.061 81.594C432.256 81.6088 433.241 80.0835 433.262 78.1872C433.283 76.2909 432.332 74.7416 431.137 74.7268C429.943 74.712 428.958 76.2373 428.937 78.1336C428.916 80.0299 429.867 81.5791 431.061 81.594Z" fill="black"/>
<path d="M425.191 67.6974C426.947 65.7102 431.487 62.8038 435.601 67.0732" stroke="black" stroke-width="3" stroke-linecap="round"/>
<path d="M413.264 106.386C416.491 111.643 420.034 113.136 426.916 109.744" stroke="black" stroke-width="3" stroke-linecap="round"/>
<path d="M386.848 69.5397C386.1 71.2779 385.474 75.2238 388.949 77.1019" stroke="black" stroke-width="3" stroke-linecap="round"/>
<path d="M349.808 51.6905C345.713 75.4058 358.524 93.2579 367.812 106.982C377.731 101.308 393.988 87.8173 387.753 86.361C381.2 84.8307 374.288 65.9061 380.652 60.117C388.118 53.325 394.849 63.6016 396.132 71.394L402.146 60.3836C400.445 52.6825 399.779 39.1736 410.716 46.7467C421.653 54.3198 437.696 52.336 444.351 50.3975C457.472 40.455 477.856 17.2636 454.431 4.03826C434.946 -6.96158 409.592 6.94519 394.115 19.4412C383.636 16.5124 355.39 19.3556 349.808 51.6905Z" fill="black"/>
<path d="M368.54 105.393C373.277 111.43 375.629 116.442 375.337 126.826" stroke="black" stroke-width="3" stroke-linecap="round"/>
<path d="M363.271 140.729C361.612 134.605 360.641 122.924 370.02 125.194C381.744 128.032 405.64 140.305 403.889 147.109" stroke="black" stroke-width="3" stroke-linecap="round"/>
<path d="M403.89 156.682C412.468 165.09 414.374 170.472 415.645 180.562" stroke="black" stroke-width="3" stroke-linecap="round"/>
<path d="M2 429.419C13.6524 428.296 41.1096 435.651 59.4511 473.483C59.9308 474.473 61.2836 474.499 61.7615 473.509C80.5749 434.518 103.665 394.965 176.65 442.588C177.772 443.32 179.244 441.994 178.688 440.729C166.847 413.767 160.448 362.35 215.627 336.842C216.733 336.331 216.684 334.589 215.526 334.23L201.253 329.814C199.944 329.409 200.087 327.508 201.444 327.379C216.148 325.976 236.89 326.89 229.749 336.074C221.411 346.797 219.361 353.577 221.393 364.771" stroke="#A0A0A0" stroke-width="3" stroke-linecap="round"/>
</svg>
