<svg width="951" height="685" viewBox="0 0 951 685" fill="none" xmlns="http://www.w3.org/2000/svg">
<path d="M384.094 608.01C401.844 550.203 431.02 452.225 439.325 410.944C439.36 410.771 439.458 410.631 439.599 410.538C475.787 386.668 514.931 373.683 528.098 371.092C528.258 371.06 528.414 371.103 528.548 371.202C562.08 396.061 582.825 411.254 595.648 424.189C628.259 457.083 634.466 520.158 633.896 561.214C633.896 561.447 633.774 561.654 633.584 561.767L620.14 569.643C619.809 569.836 619.398 569.67 619.263 569.297C608.289 538.018 587.824 513.333 574.432 468.472C574.442 468.835 574.149 469.155 573.786 469.145C537.401 468.159 535.94 465.937 503.106 455.297C483.513 521.57 427.56 586.967 399.804 615.094C399.629 615.271 399.381 615.313 399.157 615.216L384.447 608.801C384.15 608.672 383.995 608.333 384.094 608.01Z" fill="black"/>
<path d="M483.025 225.102C486.089 220.228 519.404 207.237 507.054 161.305C517.813 156.219 519.6 144.085 509.71 144.09C498.941 143.576 495.804 134.519 495.149 128.601C494.727 120.626 491.804 113.463 490.62 112.244" stroke="black" stroke-width="3" stroke-linecap="round"/>
<path d="M491.349 149.884C492.769 149.213 493.15 146.838 492.201 144.579C491.251 142.321 489.331 141.034 487.911 141.706C486.491 142.377 486.11 144.752 487.059 147.01C488.009 149.269 489.929 150.555 491.349 149.884Z" fill="black"/>
<path d="M478.797 139.177C479.704 136.282 483.037 131.07 489.106 133.378" stroke="black" stroke-width="3" stroke-linecap="round"/>
<path d="M483.761 184.499C489.364 188.253 493.626 188.016 499.125 181.148" stroke="black" stroke-width="3" stroke-linecap="round"/>
<path d="M440.622 160.07C440.629 162.211 441.736 166.541 446.099 166.73" stroke="black" stroke-width="3" stroke-linecap="round"/>
<path d="M395.074 160.26C401.388 186.445 422.3 198.275 437.806 207.647C445.386 196.949 455.957 175.145 448.974 176.755C441.634 178.446 426.245 162.598 430.159 153.546C434.751 142.925 446.135 150.054 450.881 157.354L452.133 143.157C447.002 136.157 440.356 122.728 454.823 125.018C469.289 127.307 484.726 117.33 490.636 112.055C499.586 95.421 510.069 61.69 480.406 59.8376C455.735 58.2969 436.097 85.0357 425.88 105.439C413.931 107.653 386.466 124.557 395.074 160.26Z" fill="black"/>
<path d="M437.845 205.667C445.328 209.466 449.935 213.405 454.224 224.127" stroke="black" stroke-width="3" stroke-linecap="round"/>
<path d="M445.199 301.19C447.518 318.511 448.961 364.585 436.498 411.777C436.34 412.374 436.977 412.866 437.456 412.51C450.792 402.605 485.635 381.847 530.465 369.564C530.762 369.482 530.961 369.193 530.926 368.869C528.011 342.718 526.44 287.744 540.675 273.365C540.753 273.286 540.842 273.236 540.947 273.21C570.301 266.024 632.585 243.132 650.748 207.371C650.772 207.318 650.791 207.264 650.803 207.204C652.108 200.739 653.003 187.537 646.391 185.264C646.262 185.219 646.121 185.227 645.993 185.282C602.64 203.872 554.32 219.271 492.217 230.95" stroke="black" stroke-width="3" stroke-linecap="round"/>
<path d="M445.199 323.284C415.541 357.594 387.942 370.66 366.904 380.408C352.206 388.354 320.333 394.054 334.593 369.421C395.871 288.324 409.352 274.222 423.752 260.251C432.023 252.227 435.701 247.255 456.535 241.407" stroke="black" stroke-width="3" stroke-linecap="round"/>
<path d="M359.41 632.597C358.185 624.149 381.981 611.802 386.067 609.528L398.628 614.727C397.648 621.225 394.543 625.015 393.113 626.098L359.41 632.597Z" stroke="black" stroke-width="3"/>
<path d="M625.967 580.611C621.065 579.571 620.863 572.164 621.371 568.59L632.401 562.741C635.772 563.716 644.779 566.25 653.848 568.59C662.918 570.929 661.71 574.113 659.976 575.413L625.967 580.611Z" stroke="black" stroke-width="3"/>
<path d="M562.316 643.643C562.316 666.075 545.169 684.257 524.017 684.257C502.866 684.257 485.719 666.075 485.719 643.643C485.719 621.213 502.866 603.03 524.017 603.03C545.169 603.03 562.316 621.213 562.316 643.643Z" fill="black"/>
<path d="M299.971 648.517L747.296 561.442" stroke="black" stroke-width="3" stroke-linecap="round"/>
<path d="M692.76 102.346H667.023C664.485 102.346 662.427 104.528 662.427 107.22V127.364C662.427 130.056 664.485 132.238 667.023 132.238H692.76C695.298 132.238 697.355 130.056 697.355 127.364V107.22C697.355 104.528 695.298 102.346 692.76 102.346Z" stroke="black" stroke-width="3"/>
<path d="M736.267 94.5483H719.109C716.571 94.5483 714.513 96.7303 714.513 99.422V125.415C714.513 128.106 716.571 130.288 719.109 130.288H736.267C738.805 130.288 740.862 128.106 740.862 125.415V99.422C740.862 96.7303 738.805 94.5483 736.267 94.5483Z" stroke="black" stroke-width="3"/>
<path d="M779.774 78.303H763.229C760.691 78.303 758.633 80.485 758.633 83.1766V125.415C758.633 128.106 760.691 130.288 763.229 130.288H779.774C782.312 130.288 784.37 128.106 784.37 125.415V83.1766C784.37 80.485 782.312 78.303 779.774 78.303Z" stroke="black" stroke-width="3"/>
<path d="M824.506 61.7324H807.349C803.964 61.7324 801.221 64.6418 801.221 68.2306V125.414C801.221 129.003 803.964 131.913 807.349 131.913H824.506C827.891 131.913 830.634 129.003 830.634 125.414V68.2306C830.634 64.6418 827.891 61.7324 824.506 61.7324Z" fill="black"/>
<path d="M869.852 91.9492H853.307C850.769 91.9492 848.711 94.1312 848.711 96.8228V125.415C848.711 128.106 850.769 130.288 853.307 130.288H869.852C872.39 130.288 874.448 128.106 874.448 125.415V96.8228C874.448 94.1312 872.39 91.9492 869.852 91.9492Z" stroke="black" stroke-width="3"/>
<path d="M915.81 108.195H898.652C896.114 108.195 894.056 110.377 894.056 113.068V125.415C894.056 128.106 896.114 130.288 898.652 130.288H915.81C918.348 130.288 920.406 128.106 920.406 125.415V113.068C920.406 110.377 918.348 108.195 915.81 108.195Z" stroke="black" stroke-width="3"/>
<path d="M816.24 52.8015C815.75 53.3995 814.88 53.3995 814.389 52.8015L809.107 46.3383C808.421 45.4967 808.985 44.1875 810.032 44.1875H820.597C821.645 44.1875 822.208 45.4967 821.522 46.3383L816.24 52.8015Z" fill="black"/>
<path fill-rule="evenodd" clip-rule="evenodd" d="M786.514 0H845.953C849.338 0 852.081 2.90933 852.081 6.49817V41.5883C852.081 45.1771 849.338 48.0864 845.953 48.0864H786.514C783.13 48.0864 780.386 45.1771 780.386 41.5883V6.49817C780.386 2.90933 783.13 0 786.514 0ZM802.446 22.0937H841.664C843.018 22.0937 844.115 23.2574 844.115 24.6929C844.115 26.1284 843.018 27.2922 841.664 27.2922H802.446C801.093 27.2922 799.995 26.1284 799.995 24.6929C799.995 23.2574 801.093 22.0937 802.446 22.0937ZM790.804 23.7436C790.395 23.7436 789.965 24.1125 789.965 24.693C789.965 25.2735 790.395 25.6425 790.804 25.6425C791.212 25.6425 791.642 25.2735 791.642 24.693C791.642 24.1125 791.212 23.7436 790.804 23.7436ZM787.965 24.693C787.965 23.1202 789.182 21.7436 790.804 21.7436C792.426 21.7436 793.642 23.1202 793.642 24.693C793.642 26.2658 792.426 27.6425 790.804 27.6425C789.182 27.6425 787.965 26.2658 787.965 24.693ZM802.446 34.4403H818.379C819.732 34.4403 820.83 35.604 820.83 37.0396C820.83 38.4751 819.732 39.6389 818.379 39.6389H802.446C801.093 39.6389 799.995 38.4751 799.995 37.0396C799.995 35.604 801.093 34.4403 802.446 34.4403ZM806.736 9.09734H790.804C789.45 9.09734 788.353 10.2611 788.353 11.6966C788.353 13.1321 789.45 14.2959 790.804 14.2959H806.736C808.09 14.2959 809.187 13.1321 809.187 11.6966C809.187 10.2611 808.09 9.09734 806.736 9.09734ZM790.804 34.4403C792.157 34.4403 793.255 35.604 793.255 37.0396C793.255 38.4751 792.157 39.6389 790.804 39.6389C789.45 39.6389 788.353 38.4751 788.353 37.0396C788.353 35.604 789.45 34.4403 790.804 34.4403Z" fill="black"/>
<path d="M122.241 503.585C131.872 498.334 142.857 496.567 153.523 498.553C164.188 500.539 173.949 506.169 181.316 514.586C188.683 523.002 193.253 533.742 194.328 545.168C195.403 556.595 192.925 568.081 187.272 577.875C181.618 587.669 173.099 595.234 163.014 599.416C152.929 603.598 141.831 604.167 131.412 601.038C120.993 597.908 111.825 591.251 105.305 582.082C98.7867 572.912 95.2743 561.734 95.3037 550.251L144.939 550.395L122.241 503.585Z" stroke="black" stroke-width="3"/>
<path d="M86.1119 544.546C86.1119 535.041 88.6004 525.722 93.3004 517.628C98.0003 509.535 104.727 502.983 112.731 498.705L134.521 544.546H86.1119Z" fill="black"/>
<path d="M701.841 184.615C702.54 186.34 702.797 190.153 698.783 192.465C698.489 192.636 698.164 192.799 697.821 192.953C692.803 195.176 691.552 191.521 691.552 189.415V187.27" stroke="black" stroke-width="3" stroke-linecap="round"/>
<path d="M701.191 179.309C702.54 180.171 704.384 182.361 701.841 184.615C701.651 184.783 701.437 184.951 701.191 185.12C698.256 187.171 694.083 187.44 691.552 187.27C691.087 187.239 690.682 187.193 690.345 187.141C688.979 186.736 686.779 185.164 688.899 182.113" stroke="black" stroke-width="3" stroke-linecap="round"/>
<path d="M700.23 172.993C701.596 173.329 703.943 174.66 702.399 177.288C700.855 179.915 693.078 181.583 689.383 182.088C689.224 182.105 689.065 182.114 688.899 182.113C687.441 182.107 686.007 181.357 686.007 179.309C686.007 176.415 689.543 175.435 690.346 175.266" stroke="black" stroke-width="3" stroke-linecap="round"/>
<path d="M692.147 164.404C693.514 164.993 694.347 167.132 691.069 168.95C687.79 170.769 688.581 173.246 689.383 174.256C690.67 175.435 694.831 176.328 701.192 170.466C707.558 164.605 697.576 160.95 691.553 159.855" stroke="black" stroke-width="3" stroke-linecap="round"/>
<path d="M678.053 170.466C680.786 168.193 686.105 165.009 685.529 170.466C684.947 175.923 681.27 178.299 679.499 178.804" stroke="black" stroke-width="3" stroke-linecap="round"/>
<path d="M678.053 192.346C679.652 190.887 682.379 186.115 680.455 178.699" stroke="black" stroke-width="3" stroke-linecap="round"/>
<path d="M679.223 168.694L676.215 151.407" stroke="black" stroke-width="3" stroke-linecap="round"/>
<path d="M690.002 148.483L692.055 166.154" stroke="black" stroke-width="3" stroke-linecap="round"/>
<path d="M694.721 193.583C694.721 198.408 696.902 204.758 692.055 206.282C686.142 208.142 685.517 202.472 684.309 196.63L681.16 179.106" stroke="black" stroke-width="3" stroke-linecap="round"/>
<path d="M677.44 162.129C674.07 162.779 666.165 166.418 661.508 175.776C656.851 185.133 652.42 188.122 650.784 188.447" stroke="black" stroke-width="3" stroke-linecap="round"/>
<path d="M651.703 204.692C660.282 205.667 677.992 205.277 683.874 198.519" stroke="black" stroke-width="3" stroke-linecap="round"/>
<path d="M677.746 151.082C693.991 151.082 707.16 137.118 707.16 119.891C707.16 102.665 693.991 88.7 677.746 88.7C661.502 88.7 648.333 102.665 648.333 119.891C648.333 137.118 661.502 151.082 677.746 151.082Z" stroke="black" stroke-width="3"/>
<path d="M948.863 180.355C937.11 182.912 942.619 200.074 934.01 204.64C923.727 210.092 920.185 179.401 921.521 166.374C921.907 160.662 928.176 158.122 929.022 166.374C929.922 175.14 919.665 209.131 907.911 196.015L900.068 186.385C897.887 183.535 893.591 179.576 889.957 186.385C886.323 193.193 880.533 190.943 878.094 188.967L870.428 183.052" stroke="black" stroke-width="3" stroke-linecap="round"/>
<path d="M875.925 156.834L814.904 145.873C814.304 145.764 813.936 146.561 814.396 146.996L842.657 173.989C842.706 174.032 842.749 174.068 842.81 174.091C845.31 175.134 854.906 171.125 860.017 168.7C860.36 168.536 860.758 168.736 860.863 169.121C862.039 173.491 863.461 177.532 864.19 179.458C864.3 179.741 864.594 179.898 864.79 179.672C866.157 178.074 866.347 169.937 866.249 165.267C866.243 164.933 866.469 164.651 866.782 164.586C870.538 163.808 875.618 160.309 877.781 158.578" stroke="black" stroke-width="3" stroke-linecap="round"/>
<path d="M860.624 168.243C854.116 165.066 837.651 157.11 823.857 150.698" stroke="black" stroke-width="3" stroke-linecap="round"/>
<path d="M864.3 179.939L852.045 172.142" stroke="black" stroke-width="3" stroke-linecap="round"/>
<path d="M861.849 161.745L845.304 156.546" stroke="black" stroke-width="3" stroke-linecap="round"/>
<path d="M448.097 244.271C443.705 238.856 437.557 227.441 448.097 225.102C461.271 222.177 490.991 222.827 492.216 230.625" stroke="black" stroke-width="3" stroke-linecap="round"/>
<path d="M306.968 415.206C309.351 416.572 316.536 417.093 326.21 408.244C335.885 399.395 338.001 391.507 337.849 388.669" stroke="black" stroke-width="3" stroke-linecap="round"/>
<path d="M294.996 414.991C294.725 417.433 296.255 421.177 304.538 416.619L306.967 415.206L311.193 412.749" stroke="black" stroke-width="3" stroke-linecap="round"/>
<path d="M292.84 407.426C290.894 408.638 287.758 411.767 290.786 414.593C291.7 415.446 293.211 415.469 294.996 414.991C299.128 413.883 304.733 410.085 307.815 407.647" stroke="black" stroke-width="3" stroke-linecap="round"/>
<path d="M328.949 376.692C324.382 374.912 314.947 371.442 308.676 373.752C307.103 374.378 303.536 375.241 301.857 373.682C299.76 371.733 295.783 376.732 301.19 380.078C306.597 383.423 310.119 379.876 309.403 385.187C308.83 389.436 297.735 396.33 292.259 399.246C290.292 400.191 287.043 402.93 289.782 406.33C290.46 407.172 291.538 407.482 292.84 407.426C296.799 407.253 302.835 403.695 306.058 401.389" stroke="black" stroke-width="3" stroke-linecap="round"/>
<path d="M168.435 142.861C184.584 160.39 214.588 168.114 230.404 170.223C231.521 170.372 231.915 171.914 231.008 172.623L189.397 205.171C189.261 205.277 189.105 205.353 188.941 205.392C158.132 212.683 129.408 180.159 118.01 161.682C117.576 160.979 117.899 160.044 118.652 159.776L167.152 142.528C167.604 142.367 168.101 142.499 168.435 142.861Z" stroke="black" stroke-width="3" stroke-linecap="round"/>
<path d="M144.608 169.556C149.51 168.476 160.173 165.114 163.604 160.302" stroke="black" stroke-width="3" stroke-linecap="round"/>
<path d="M158.396 181.253C161.459 181.361 168.506 179.759 172.183 172.481" stroke="black" stroke-width="3" stroke-linecap="round"/>
<path d="M173.409 189.051C178.004 188.401 187.87 184.697 190.566 175.08" stroke="black" stroke-width="3" stroke-linecap="round"/>
<path d="M65.0755 278.673C48.9255 296.201 18.9215 303.926 3.10637 306.034C1.98867 306.184 1.59529 307.725 2.5022 308.435L44.1133 340.982C44.2488 341.088 44.405 341.164 44.5692 341.203C75.3787 348.495 104.103 315.971 115.5 297.494C115.935 296.79 115.611 295.856 114.859 295.588L66.3586 278.34C65.9064 278.179 65.4095 278.311 65.0755 278.673Z" stroke="black" stroke-width="3" stroke-linecap="round"/>
<path d="M88.9023 305.368C84.0001 304.288 73.3378 300.926 69.9062 296.114" stroke="black" stroke-width="3" stroke-linecap="round"/>
<path d="M75.1148 317.065C72.0509 317.173 65.004 315.571 61.3274 308.293" stroke="black" stroke-width="3" stroke-linecap="round"/>
<path d="M60.1012 324.863C55.5054 324.213 45.6397 320.509 42.9435 310.892" stroke="black" stroke-width="3" stroke-linecap="round"/>
</svg>
