<svg width="768" height="649" viewBox="0 0 768 649" fill="none" xmlns="http://www.w3.org/2000/svg">
<path d="M121.123 497.304L115.288 499.514L103.876 483.049L103.801 483.077L106.235 502.943L100.287 505.196L83.1016 481.165L88.9745 478.941L100.087 495.519L100.162 495.491L97.9147 475.554L103.414 473.472L114.948 490.147L115.023 490.119L112.429 470.057L118.189 467.875L121.123 497.304ZM120.147 467.134L126.02 464.91L129.902 475.159L140.712 471.065L136.83 460.815L142.703 458.591L152.819 485.299L146.946 487.524L142.583 476.002L131.772 480.097L136.136 491.618L130.263 493.843L120.147 467.134ZM147.125 456.916L167.1 449.35L168.971 454.288L154.868 459.629L157.036 465.353L169.979 460.451L171.707 465.014L158.764 469.916L161.244 476.462L175.645 471.008L177.516 475.946L157.241 483.625L147.125 456.916ZM170.633 448.012L176.469 445.802L194.402 459.498L194.477 459.47L187.691 441.552L193.189 439.469L203.305 466.178L197.432 468.402L179.55 454.729L179.476 454.758L186.248 472.638L180.749 474.721L170.633 448.012ZM220.372 447.823L204.394 435.226L210.978 432.732L221.22 440.915L223.434 428.014L229.98 425.535L226.301 445.748L230.183 455.998L224.31 458.222L220.372 447.823ZM241.29 436.649C241.715 437.772 242.255 438.822 242.911 439.8C243.582 440.743 244.365 441.53 245.259 442.161C246.154 442.791 247.162 443.194 248.283 443.368C249.395 443.517 250.611 443.342 251.933 442.841C253.255 442.341 254.282 441.666 255.016 440.818C255.741 439.945 256.229 438.976 256.481 437.91C256.734 436.845 256.786 435.742 256.639 434.6C256.507 433.424 256.229 432.275 255.804 431.152C255.36 429.98 254.793 428.898 254.103 427.904C253.438 426.901 252.658 426.085 251.763 425.454C250.859 424.798 249.851 424.396 248.74 424.247C247.619 424.072 246.397 424.236 245.076 424.736C243.754 425.237 242.731 425.924 242.007 426.797C241.273 427.645 240.784 428.614 240.541 429.704C240.289 430.769 240.233 431.903 240.375 433.104C240.541 434.295 240.846 435.477 241.29 436.649ZM235.417 438.874C234.661 436.879 234.262 434.92 234.218 432.998C234.165 431.05 234.458 429.228 235.099 427.531C235.739 425.834 236.733 424.317 238.08 422.98C239.452 421.634 241.161 420.573 243.206 419.798C245.275 419.015 247.258 418.677 249.153 418.786C251.048 418.896 252.797 419.374 254.401 420.221C256.005 421.067 257.432 422.238 258.682 423.732C259.923 425.201 260.921 426.933 261.677 428.928C262.413 430.873 262.804 432.807 262.847 434.729C262.882 436.627 262.574 438.412 261.924 440.084C261.274 441.756 260.275 443.26 258.928 444.597C257.572 445.909 255.859 446.957 253.789 447.741C251.744 448.516 249.766 448.866 247.856 448.791C245.961 448.682 244.216 448.216 242.622 447.394C241.028 446.572 239.615 445.439 238.383 443.995C237.142 442.526 236.154 440.819 235.417 438.874ZM288.802 422.247C290.171 425.863 290.181 428.939 288.832 431.475C287.473 433.985 285.011 435.916 281.445 437.267C277.829 438.636 274.692 438.826 272.036 437.836C269.405 436.837 267.4 434.516 266.021 430.876L259.73 414.267L265.603 412.043L271.894 428.651C272.168 429.374 272.499 430.061 272.888 430.713C273.278 431.364 273.775 431.888 274.382 432.285C274.98 432.658 275.694 432.887 276.524 432.971C277.37 433.021 278.392 432.82 279.589 432.367C281.683 431.573 282.955 430.564 283.404 429.339C283.843 428.089 283.684 426.467 282.929 424.472L276.638 407.863L282.511 405.639L288.802 422.247ZM297.27 413.864L303.704 411.428C305.051 410.918 305.947 410.236 306.394 409.382C306.84 408.529 306.809 407.429 306.299 406.082C305.808 404.785 305.117 403.978 304.226 403.659C303.326 403.315 302.203 403.399 300.856 403.909L294.422 406.346L297.27 413.864ZM286.821 404.006L301.222 398.552C302.419 398.098 303.567 397.892 304.666 397.932C305.78 397.938 306.802 398.15 307.73 398.568C308.683 398.977 309.505 399.564 310.194 400.329C310.898 401.061 311.444 401.937 311.832 402.96C312.427 404.531 312.605 406.018 312.366 407.42C312.152 408.812 311.41 410.091 310.141 411.257L310.169 411.331C310.968 411.257 311.684 411.342 312.319 411.587C312.944 411.806 313.514 412.146 314.031 412.606C314.538 413.042 314.981 413.572 315.361 414.198C315.766 414.815 316.12 415.45 316.425 416.105C316.611 416.519 316.825 417.009 317.067 417.573C317.309 418.137 317.568 418.709 317.845 419.288C318.146 419.859 318.463 420.394 318.796 420.896C319.144 421.363 319.526 421.731 319.942 422.002L314.069 424.226C313.424 423.501 312.842 422.566 312.323 421.423C311.804 420.279 311.267 419.199 310.711 418.184C309.983 416.863 309.171 416.001 308.278 415.598C307.384 415.195 306.201 415.272 304.73 415.83L298.857 418.054L302.81 428.491L296.937 430.715L286.821 404.006ZM122.361 523.611C122.006 522.976 121.55 522.45 120.993 522.033C120.427 521.592 119.802 521.258 119.118 521.033C118.433 520.807 117.712 520.71 116.954 520.74C116.211 520.736 115.478 520.872 114.755 521.145C113.433 521.646 112.41 522.333 111.685 523.206C110.952 524.054 110.463 525.023 110.22 526.114C109.968 527.179 109.912 528.312 110.054 529.513C110.22 530.705 110.525 531.887 110.969 533.059C111.394 534.181 111.934 535.231 112.59 536.209C113.261 537.152 114.043 537.939 114.938 538.57C115.833 539.201 116.841 539.603 117.962 539.777C119.073 539.927 120.29 539.751 121.612 539.25C123.407 538.57 124.596 537.493 125.178 536.018C125.785 534.533 125.86 532.851 125.405 530.97L131.091 528.817C131.574 530.544 131.759 532.199 131.645 533.782C131.532 535.365 131.144 536.824 130.48 538.159C129.816 539.493 128.893 540.67 127.711 541.688C126.528 542.706 125.114 543.527 123.468 544.151C121.423 544.925 119.445 545.275 117.535 545.2C115.64 545.091 113.895 544.625 112.301 543.803C110.706 542.982 109.294 541.849 108.062 540.404C106.821 538.935 105.833 537.228 105.096 535.283C104.34 533.288 103.941 531.329 103.897 529.407C103.844 527.459 104.137 525.637 104.778 523.94C105.418 522.244 106.412 520.727 107.759 519.389C109.131 518.043 110.84 516.982 112.884 516.208C114.356 515.65 115.82 515.338 117.277 515.271C118.76 515.194 120.168 515.374 121.502 515.81C122.852 516.211 124.09 516.883 125.217 517.825C126.343 518.767 127.287 519.978 128.047 521.458L122.361 523.611ZM137.947 522.841C138.372 523.963 138.912 525.013 139.568 525.991C140.239 526.934 141.022 527.721 141.916 528.352C142.811 528.983 143.819 529.385 144.94 529.559C146.052 529.709 147.268 529.533 148.59 529.032C149.912 528.532 150.94 527.857 151.673 527.009C152.398 526.136 152.886 525.167 153.138 524.102C153.391 523.037 153.443 521.933 153.296 520.791C153.164 519.615 152.886 518.466 152.461 517.344C152.017 516.172 151.45 515.089 150.76 514.095C150.095 513.093 149.315 512.276 148.421 511.645C147.516 510.99 146.509 510.587 145.397 510.438C144.276 510.264 143.055 510.427 141.733 510.927C140.411 511.428 139.388 512.115 138.664 512.988C137.93 513.836 137.442 514.805 137.199 515.896C136.946 516.961 136.891 518.094 137.032 519.295C137.198 520.487 137.503 521.669 137.947 522.841ZM132.074 525.065C131.319 523.07 130.919 521.111 130.875 519.189C130.822 517.241 131.115 515.419 131.756 513.722C132.396 512.026 133.39 510.509 134.737 509.171C136.109 507.825 137.818 506.764 139.863 505.99C141.933 505.206 143.915 504.868 145.81 504.978C147.705 505.087 149.454 505.565 151.058 506.412C152.662 507.259 154.089 508.429 155.339 509.923C156.58 511.392 157.578 513.124 158.334 515.119C159.07 517.064 159.461 518.998 159.504 520.921C159.539 522.818 159.231 524.603 158.581 526.275C157.931 527.947 156.933 529.451 155.586 530.788C154.229 532.101 152.516 533.149 150.446 533.933C148.401 534.707 146.423 535.057 144.513 534.982C142.618 534.873 140.874 534.407 139.279 533.585C137.685 532.764 136.272 531.631 135.04 530.186C133.8 528.717 132.811 527.01 132.074 525.065ZM156.5 500.416L164.767 497.285L177.97 513.285L178.045 513.257L176.999 492.652L185.266 489.521L195.381 516.229L189.883 518.312L182.714 499.384L182.639 499.412L183.262 520.819L178.735 522.534L165.091 506.272L165.016 506.301L172.114 525.041L166.616 527.124L156.5 500.416ZM200.321 498.19L204.885 496.461C205.558 496.206 206.188 495.911 206.773 495.575C207.359 495.239 207.837 494.844 208.207 494.391C208.567 493.912 208.786 493.359 208.862 492.731C208.962 492.094 208.852 491.352 208.531 490.504C208.21 489.656 207.801 489.027 207.303 488.616C206.83 488.197 206.305 487.939 205.727 487.844C205.14 487.725 204.516 487.733 203.855 487.869C203.194 488.006 202.526 488.201 201.853 488.456L197.289 490.185L200.321 498.19ZM189.688 487.846L201.733 483.284C203.404 482.651 204.92 482.362 206.281 482.417C207.632 482.446 208.821 482.723 209.846 483.248C210.897 483.762 211.778 484.469 212.489 485.369C213.225 486.259 213.801 487.253 214.217 488.35C214.623 489.423 214.85 490.549 214.898 491.728C214.961 492.873 214.769 493.987 214.323 495.068C213.902 496.14 213.2 497.147 212.217 498.09C211.225 499.008 209.893 499.783 208.222 500.416L202.05 502.754L205.677 512.33L199.804 514.554L189.688 487.846ZM213.89 478.679L233.865 471.113L235.735 476.051L221.633 481.392L223.801 487.116L236.743 482.214L238.472 486.777L225.529 491.679L228.009 498.226L242.41 492.771L244.28 497.709L224.006 505.388L213.89 478.679ZM245.178 472.475L237.173 475.507L235.303 470.569L257.186 462.281L259.056 467.218L251.051 470.25L259.297 492.021L253.424 494.245L245.178 472.475ZM259.518 461.398L265.39 459.173L275.506 485.882L269.633 488.106L259.518 461.398ZM277.582 460.202L269.577 463.234L267.707 458.296L289.59 450.008L291.46 454.946L283.455 457.977L291.701 479.748L285.828 481.973L277.582 460.202ZM291.921 449.125L297.794 446.9L307.91 473.609L302.037 475.833L291.921 449.125ZM312.019 456.911C312.444 458.033 312.984 459.083 313.64 460.061C314.311 461.005 315.094 461.792 315.988 462.422C316.883 463.053 317.891 463.455 319.012 463.63C320.124 463.779 321.34 463.603 322.662 463.103C323.984 462.602 325.011 461.928 325.745 461.079C326.47 460.206 326.958 459.237 327.21 458.172C327.463 457.107 327.515 456.003 327.368 454.862C327.236 453.685 326.958 452.536 326.533 451.414C326.089 450.242 325.522 449.159 324.832 448.166C324.167 447.163 323.387 446.346 322.493 445.716C321.588 445.06 320.58 444.658 319.469 444.508C318.348 444.334 317.126 444.497 315.805 444.998C314.483 445.498 313.46 446.185 312.736 447.058C312.002 447.907 311.513 448.876 311.27 449.966C311.018 451.031 310.962 452.164 311.104 453.365C311.27 454.557 311.575 455.739 312.019 456.911ZM306.146 459.135C305.39 457.14 304.991 455.182 304.947 453.259C304.894 451.312 305.187 449.49 305.828 447.793C306.468 446.096 307.462 444.579 308.809 443.242C310.181 441.895 311.89 440.835 313.935 440.06C316.004 439.276 317.987 438.939 319.882 439.048C321.777 439.157 323.526 439.635 325.13 440.482C326.734 441.329 328.161 442.499 329.411 443.993C330.652 445.462 331.65 447.195 332.406 449.19C333.142 451.135 333.533 453.069 333.576 454.991C333.611 456.889 333.303 458.673 332.653 460.345C332.003 462.017 331.005 463.522 329.657 464.859C328.301 466.171 326.588 467.219 324.518 468.003C322.473 468.778 320.495 469.127 318.585 469.052C316.69 468.943 314.946 468.478 313.351 467.656C311.757 466.834 310.344 465.701 309.112 464.257C307.872 462.788 306.883 461.081 306.146 459.135ZM330.572 434.486L336.407 432.276L354.341 445.972L354.416 445.943L347.629 428.025L353.128 425.943L363.244 452.651L357.371 454.876L339.489 441.203L339.414 441.231L346.186 459.112L340.687 461.194L330.572 434.486ZM367.811 420.381L371.814 418.866L376.362 430.873L372.359 432.389L367.811 420.381ZM374.769 417.746L378.772 416.23L383.319 428.238L379.317 429.754L374.769 417.746ZM390.418 437.055L398.256 414.496L385.052 419.498L383.181 414.56L404.204 406.598L405.961 411.236L398.123 433.795L412.824 428.227L414.694 433.165L392.175 441.694L390.418 437.055ZM407.288 405.43L413.161 403.205L423.277 429.914L417.404 432.138L407.288 405.43ZM445.842 417.903C445.305 419.646 444.504 421.033 443.44 422.063C442.366 423.069 441.181 423.817 439.884 424.308C437.84 425.083 435.862 425.432 433.952 425.357C432.057 425.248 430.312 424.783 428.718 423.961C427.123 423.139 425.71 422.006 424.479 420.562C423.238 419.093 422.249 417.386 421.513 415.44C420.757 413.445 420.357 411.487 420.314 409.564C420.26 407.617 420.554 405.795 421.194 404.098C421.835 402.401 422.829 400.884 424.176 399.547C425.548 398.2 427.256 397.14 429.301 396.365C430.673 395.846 432.075 395.557 433.507 395.499C434.955 395.407 436.341 395.566 437.666 395.977C439.016 396.378 440.249 397.038 441.366 397.955C442.484 398.872 443.405 400.063 444.131 401.527L438.52 403.652C437.604 402.288 436.506 401.421 435.225 401.051C433.944 400.68 432.593 400.764 431.171 401.303C429.85 401.803 428.827 402.49 428.102 403.363C427.368 404.212 426.88 405.181 426.637 406.271C426.385 407.336 426.329 408.469 426.47 409.67C426.636 410.862 426.942 412.044 427.385 413.216C427.811 414.338 428.351 415.388 429.006 416.366C429.677 417.31 430.46 418.097 431.355 418.727C432.25 419.358 433.257 419.76 434.379 419.935C435.49 420.084 436.707 419.908 438.029 419.408C439.974 418.671 441.286 417.618 441.965 416.249C442.659 414.845 442.74 413.175 442.206 411.239L436.296 413.477L434.638 409.1L445.86 404.85L451.329 419.289L447.588 420.706L445.842 417.903ZM455.968 407.395C456.308 408.293 456.758 408.992 457.319 409.492C457.879 409.993 458.497 410.344 459.171 410.544C459.862 410.711 460.606 410.757 461.405 410.682C462.194 410.583 462.976 410.387 463.749 410.094C464.272 409.896 464.819 409.646 465.389 409.344C465.95 409.018 466.445 408.631 466.874 408.183C467.304 407.735 467.613 407.233 467.801 406.677C467.98 406.096 467.942 405.469 467.687 404.795C467.413 404.072 466.954 403.576 466.311 403.306C465.692 403.028 464.952 402.88 464.09 402.864C463.229 402.848 462.281 402.908 461.249 403.042C460.216 403.177 459.162 403.291 458.085 403.385C456.993 403.513 455.907 403.583 454.827 403.592C453.738 403.577 452.711 403.424 451.745 403.134C450.78 402.844 449.9 402.365 449.105 401.696C448.325 400.993 447.704 400.031 447.241 398.809C446.722 397.438 446.56 396.144 446.756 394.93C446.967 393.681 447.419 392.54 448.112 391.508C448.804 390.475 449.688 389.57 450.762 388.793C451.836 388.015 452.972 387.4 454.169 386.946C455.565 386.418 456.961 386.074 458.356 385.917C459.766 385.725 461.102 385.789 462.364 386.11C463.626 386.43 464.751 387.03 465.74 387.91C466.745 388.756 467.54 389.952 468.126 391.498L462.44 393.652C462.088 392.872 461.663 392.278 461.165 391.867C460.693 391.448 460.163 391.178 459.576 391.058C458.988 390.938 458.36 390.934 457.689 391.045C457.043 391.147 456.359 391.335 455.635 391.609C455.162 391.789 454.707 392.018 454.271 392.297C453.835 392.576 453.464 392.916 453.16 393.317C452.88 393.708 452.686 394.138 452.579 394.606C452.471 395.075 452.526 395.596 452.743 396.169C452.941 396.693 453.202 397.079 453.524 397.328C453.846 397.576 454.346 397.729 455.024 397.786C455.726 397.834 456.64 397.801 457.767 397.688C458.918 397.566 460.409 397.4 462.241 397.192C462.777 397.102 463.534 397.03 464.511 396.973C465.503 396.883 466.544 396.959 467.634 397.202C468.724 397.445 469.765 397.935 470.757 398.671C471.764 399.373 472.551 400.472 473.118 401.969C473.581 403.191 473.774 404.415 473.697 405.642C473.619 406.869 473.253 408.048 472.599 409.18C471.959 410.278 471.022 411.303 469.786 412.256C468.575 413.199 467.059 414.016 465.238 414.705C463.767 415.262 462.262 415.619 460.724 415.773C459.22 415.944 457.786 415.845 456.421 415.479C455.081 415.102 453.872 414.434 452.795 413.473C451.718 412.512 450.881 411.204 450.282 409.548L455.968 407.395ZM476.387 403.211L482.26 400.987L484.441 406.748C484.763 407.596 484.893 408.43 484.834 409.251C484.808 410.088 484.633 410.867 484.307 411.589C483.982 412.311 483.519 412.971 482.919 413.569C482.353 414.183 481.694 414.703 480.944 415.13L479.924 412.437C480.269 412.22 480.562 411.938 480.801 411.591C481.065 411.234 481.26 410.847 481.387 410.428C481.523 410.034 481.578 409.615 481.551 409.168C481.534 408.747 481.438 408.342 481.262 407.952L478.569 408.972L476.387 403.211ZM479.013 378.264L483.016 376.748L487.564 388.755L483.561 390.271L479.013 378.264ZM485.971 375.628L489.974 374.113L494.522 386.12L490.519 387.636L485.971 375.628ZM129.837 576.213L113.859 563.616L120.443 561.122L130.685 569.305L132.899 556.404L139.446 553.925L135.767 574.139L139.649 584.388L133.776 586.612L129.837 576.213ZM150.755 565.04C151.18 566.162 151.721 567.212 152.376 568.19C153.047 569.133 153.83 569.92 154.725 570.551C155.619 571.182 156.627 571.584 157.748 571.758C158.86 571.908 160.077 571.732 161.398 571.231C162.72 570.731 163.748 570.056 164.482 569.208C165.206 568.335 165.694 567.366 165.947 566.301C166.199 565.236 166.252 564.132 166.104 562.99C165.973 561.814 165.694 560.665 165.269 559.543C164.825 558.371 164.258 557.288 163.568 556.294C162.903 555.292 162.124 554.475 161.229 553.844C160.325 553.189 159.317 552.786 158.205 552.637C157.084 552.463 155.863 552.626 154.541 553.127C153.219 553.627 152.196 554.314 151.472 555.187C150.738 556.035 150.25 557.005 150.007 558.095C149.754 559.16 149.699 560.293 149.84 561.494C150.006 562.686 150.311 563.868 150.755 565.04ZM144.882 567.264C144.127 565.269 143.727 563.31 143.683 561.388C143.63 559.44 143.924 557.618 144.564 555.921C145.205 554.225 146.199 552.708 147.546 551.37C148.918 550.024 150.626 548.963 152.671 548.189C154.741 547.405 156.723 547.068 158.618 547.177C160.513 547.286 162.262 547.764 163.866 548.611C165.47 549.458 166.897 550.628 168.147 552.122C169.388 553.591 170.386 555.323 171.142 557.318C171.879 559.263 172.269 561.197 172.313 563.12C172.347 565.017 172.039 566.802 171.389 568.474C170.739 570.146 169.741 571.65 168.394 572.988C167.037 574.3 165.324 575.348 163.254 576.132C161.209 576.906 159.232 577.256 157.321 577.181C155.427 577.072 153.682 576.606 152.087 575.785C150.493 574.963 149.08 573.83 147.849 572.385C146.608 570.916 145.619 569.209 144.882 567.264ZM198.267 550.638C199.637 554.254 199.647 557.329 198.297 559.865C196.939 562.376 194.476 564.307 190.91 565.657C187.294 567.027 184.158 567.216 181.502 566.226C178.87 565.227 176.865 562.907 175.486 559.266L169.196 542.657L175.069 540.433L181.359 557.041C181.633 557.765 181.965 558.452 182.354 559.103C182.743 559.754 183.241 560.278 183.848 560.676C184.445 561.048 185.159 561.277 185.99 561.362C186.836 561.412 187.857 561.21 189.054 560.757C191.149 559.963 192.42 558.954 192.869 557.729C193.308 556.479 193.15 554.857 192.394 552.862L186.104 536.253L191.977 534.029L198.267 550.638ZM216.71 545.064C217.05 545.962 217.5 546.661 218.06 547.162C218.621 547.662 219.238 548.013 219.913 548.214C220.603 548.38 221.348 548.426 222.147 548.351C222.936 548.252 223.717 548.056 224.49 547.763C225.014 547.565 225.561 547.315 226.131 547.013C226.692 546.687 227.187 546.3 227.616 545.852C228.045 545.404 228.354 544.902 228.543 544.346C228.722 543.765 228.684 543.138 228.429 542.465C228.155 541.741 227.696 541.245 227.052 540.976C226.433 540.697 225.693 540.549 224.832 540.534C223.97 540.518 223.023 540.577 221.99 540.711C220.958 540.846 219.903 540.96 218.827 541.054C217.735 541.183 216.649 541.252 215.569 541.262C214.48 541.246 213.452 541.094 212.487 540.803C211.522 540.513 210.641 540.034 209.846 539.366C209.067 538.663 208.446 537.7 207.983 536.478C207.464 535.107 207.302 533.814 207.497 532.599C207.709 531.35 208.161 530.209 208.853 529.177C209.546 528.145 210.429 527.24 211.504 526.462C212.578 525.684 213.713 525.069 214.91 524.616C216.307 524.087 217.703 523.744 219.097 523.586C220.507 523.394 221.843 523.458 223.105 523.779C224.367 524.099 225.493 524.7 226.482 525.58C227.487 526.425 228.282 527.621 228.867 529.167L223.182 531.321C222.829 530.542 222.405 529.947 221.907 529.537C221.434 529.117 220.904 528.847 220.317 528.727C219.73 528.607 219.101 528.603 218.43 528.715C217.785 528.817 217.1 529.005 216.377 529.278C215.903 529.458 215.448 529.687 215.012 529.966C214.576 530.246 214.206 530.586 213.901 530.986C213.622 531.377 213.428 531.807 213.32 532.275C213.213 532.744 213.267 533.265 213.485 533.839C213.683 534.362 213.943 534.748 214.266 534.997C214.588 535.246 215.088 535.399 215.765 535.456C216.468 535.503 217.382 535.471 218.508 535.358C219.66 535.235 221.151 535.07 222.983 534.861C223.519 534.772 224.276 534.699 225.252 534.643C226.245 534.552 227.286 534.628 228.376 534.871C229.466 535.114 230.507 535.604 231.499 536.34C232.506 537.042 233.293 538.142 233.86 539.638C234.322 540.86 234.515 542.084 234.438 543.311C234.361 544.538 233.995 545.717 233.34 546.849C232.701 547.947 231.763 548.972 230.527 549.925C229.316 550.868 227.801 551.685 225.98 552.374C224.509 552.932 223.004 553.288 221.466 553.443C219.962 553.613 218.528 553.515 217.162 553.148C215.822 552.771 214.614 552.103 213.537 551.142C212.46 550.181 211.622 548.873 211.024 547.217L216.71 545.064ZM229.494 519.819L235.366 517.595L239.248 527.845L250.059 523.75L246.177 513.501L252.05 511.276L262.166 537.985L256.293 540.209L251.929 528.688L241.119 532.782L245.482 544.304L239.609 546.528L229.494 519.819ZM266.286 521.283C266.711 522.405 267.251 523.455 267.906 524.433C268.577 525.376 269.36 526.163 270.255 526.794C271.15 527.425 272.158 527.827 273.279 528.001C274.39 528.151 275.607 527.975 276.929 527.474C278.25 526.974 279.278 526.299 280.012 525.451C280.736 524.578 281.225 523.609 281.477 522.544C281.729 521.479 281.782 520.375 281.635 519.233C281.503 518.057 281.224 516.908 280.799 515.786C280.355 514.614 279.789 513.531 279.099 512.537C278.434 511.535 277.654 510.718 276.759 510.087C275.855 509.432 274.847 509.029 273.735 508.88C272.614 508.706 271.393 508.869 270.071 509.37C268.75 509.87 267.727 510.557 267.002 511.43C266.268 512.278 265.78 513.248 265.537 514.338C265.285 515.403 265.229 516.536 265.37 517.737C265.537 518.929 265.842 520.111 266.286 521.283ZM260.413 523.507C259.657 521.512 259.257 519.553 259.214 517.631C259.16 515.683 259.454 513.861 260.095 512.164C260.735 510.468 261.729 508.951 263.076 507.613C264.448 506.267 266.156 505.206 268.201 504.432C270.271 503.648 272.253 503.311 274.148 503.42C276.043 503.529 277.793 504.007 279.396 504.854C281 505.701 282.427 506.871 283.678 508.365C284.918 509.834 285.917 511.566 286.672 513.561C287.409 515.506 287.799 517.44 287.843 519.363C287.877 521.26 287.57 523.045 286.92 524.717C286.27 526.389 285.271 527.893 283.924 529.231C282.568 530.543 280.854 531.591 278.785 532.375C276.74 533.149 274.762 533.499 272.852 533.424C270.957 533.315 269.212 532.849 267.618 532.028C266.023 531.206 264.61 530.073 263.379 528.628C262.138 527.159 261.149 525.452 260.413 523.507ZM313.797 506.881C315.167 510.497 315.177 513.572 313.828 516.108C312.469 518.619 310.006 520.55 306.44 521.9C302.824 523.27 299.688 523.459 297.032 522.469C294.401 521.47 292.396 519.15 291.017 515.509L284.726 498.9L290.599 496.676L296.889 513.284C297.163 514.008 297.495 514.695 297.884 515.346C298.273 515.997 298.771 516.521 299.378 516.919C299.975 517.291 300.689 517.52 301.52 517.605C302.366 517.655 303.387 517.453 304.584 517C306.679 516.206 307.951 515.197 308.399 513.972C308.838 512.722 308.68 511.1 307.924 509.105L301.634 492.496L307.507 490.272L313.797 506.881ZM311.816 488.64L317.689 486.415L325.935 508.186L338.953 503.256L340.823 508.193L321.932 515.348L311.816 488.64ZM347.361 500.071L352.598 498.088C353.446 497.767 354.217 497.318 354.911 496.741C355.605 496.165 356.145 495.446 356.533 494.587C356.911 493.702 357.093 492.678 357.08 491.514C357.067 490.35 356.781 489.032 356.224 487.561C355.714 486.214 355.119 485.057 354.438 484.088C353.773 483.085 352.995 482.311 352.104 481.764C351.213 481.218 350.193 480.934 349.044 480.913C347.911 480.857 346.621 481.103 345.175 481.651L340.985 483.238L347.361 500.071ZM333.242 480.525L344.763 476.161C346.484 475.509 348.184 475.179 349.863 475.171C351.567 475.152 353.163 475.489 354.651 476.18C356.164 476.862 357.531 477.912 358.753 479.331C360 480.741 361.044 482.556 361.884 484.775C362.621 486.72 363.052 488.61 363.177 490.445C363.301 492.28 363.079 493.99 362.51 495.574C361.966 497.149 361.065 498.573 359.808 499.848C358.567 501.088 356.924 502.095 354.879 502.87L343.358 507.233L333.242 480.525ZM370.482 466.42L374.484 464.904L379.032 476.912L375.03 478.428L370.482 466.42ZM377.439 463.785L381.442 462.269L385.99 474.277L381.987 475.793L377.439 463.785ZM393.089 483.094L400.927 460.535L387.722 465.537L385.852 460.599L406.875 452.636L408.631 457.275L400.793 479.834L415.494 474.266L417.364 479.203L394.846 487.732L393.089 483.094ZM422.897 465.303L429.817 462.681L422.739 454.156L422.664 454.184L422.897 465.303ZM417.253 448.706L423.275 446.425L443.379 469.35L437.281 471.66L433.009 466.477L423.021 470.26L423.179 477.001L417.269 479.24L417.253 448.706ZM463.088 458.421C462.551 460.164 461.75 461.551 460.686 462.581C459.612 463.587 458.427 464.335 457.13 464.826C455.086 465.601 453.108 465.951 451.198 465.876C449.303 465.766 447.558 465.301 445.964 464.479C444.369 463.657 442.956 462.524 441.725 461.08C440.484 459.611 439.495 457.904 438.759 455.959C438.003 453.964 437.603 452.005 437.56 450.082C437.506 448.135 437.8 446.313 438.44 444.616C439.081 442.919 440.075 441.402 441.422 440.065C442.794 438.718 444.502 437.658 446.547 436.883C447.919 436.364 449.321 436.075 450.753 436.018C452.201 435.925 453.587 436.085 454.912 436.495C456.262 436.897 457.495 437.556 458.612 438.473C459.73 439.39 460.651 440.581 461.377 442.045L455.766 444.171C454.85 442.807 453.752 441.939 452.471 441.569C451.19 441.199 449.839 441.283 448.417 441.821C447.096 442.322 446.073 443.009 445.348 443.882C444.614 444.73 444.126 445.699 443.883 446.789C443.631 447.854 443.575 448.987 443.716 450.189C443.882 451.38 444.188 452.562 444.631 453.734C445.056 454.857 445.597 455.907 446.252 456.884C446.923 457.828 447.706 458.615 448.601 459.246C449.496 459.876 450.503 460.279 451.625 460.453C452.736 460.602 453.953 460.427 455.275 459.926C457.22 459.189 458.532 458.136 459.211 456.767C459.905 455.363 459.986 453.693 459.452 451.757L453.542 453.995L451.884 449.619L463.106 445.368L468.575 459.807L464.834 461.224L463.088 458.421ZM470.051 452.661L475.924 450.437L478.106 456.198L472.233 458.422L470.051 452.661ZM472.715 427.699L476.718 426.183L481.265 438.191L477.263 439.707L472.715 427.699ZM479.673 425.064L483.675 423.548L488.223 435.556L484.221 437.072L479.673 425.064Z" fill="white"/>
<path d="M140.54 620.484L143.457 619.379L153.608 630.932L153.58 615.545L156.497 614.44L162.567 630.465L160.547 631.23L155.498 617.898L155.453 617.915L155.497 633.143L153.679 633.831L143.625 622.395L143.58 622.412L148.629 635.744L146.609 636.509L140.54 620.484ZM165.919 621.624L171.351 619.567L165.849 613.105L165.804 613.122L165.919 621.624ZM163.951 611.617L166.308 610.724L178.639 624.377L176.282 625.27L172.704 621.108L165.926 623.675L165.958 629.18L163.781 630.005L163.951 611.617ZM173.702 607.924L181.243 605.067C182.769 604.489 184.1 604.413 185.236 604.838C186.388 605.257 187.21 606.118 187.703 607.42C188.071 608.392 188.17 609.33 187.999 610.233C187.842 611.131 187.329 611.899 186.458 612.536L186.475 612.581C186.973 612.495 187.404 612.503 187.768 612.605C188.146 612.701 188.474 612.868 188.752 613.105C189.04 613.321 189.289 613.594 189.499 613.925C189.725 614.25 189.934 614.599 190.126 614.971C190.304 615.349 190.476 615.737 190.644 616.135C190.812 616.533 191 616.916 191.207 617.282C191.414 617.648 191.638 617.991 191.879 618.311C192.129 618.609 192.417 618.851 192.744 619.035L190.365 619.936C190.153 619.828 189.963 619.644 189.795 619.382C189.643 619.115 189.494 618.812 189.349 618.473C189.198 618.12 189.038 617.744 188.87 617.346C188.702 616.947 188.507 616.568 188.285 616.207C188.078 615.841 187.864 615.503 187.644 615.193C187.418 614.867 187.16 614.615 186.869 614.434C186.573 614.238 186.239 614.125 185.868 614.094C185.491 614.049 185.041 614.125 184.518 614.324L179.311 616.296L181.903 623.141L179.771 623.949L173.702 607.924ZM183.074 612.817C183.568 612.63 184.025 612.414 184.446 612.169C184.866 611.924 185.202 611.635 185.451 611.301C185.711 610.946 185.869 610.552 185.928 610.119C185.996 609.666 185.919 609.148 185.698 608.564C185.392 607.756 184.918 607.183 184.277 606.844C183.635 606.505 182.813 606.526 181.811 606.905L176.514 608.912L178.63 614.5L183.074 612.817ZM192.539 602.842L187.197 604.865L186.517 603.07L199.333 598.216L200.013 600.011L194.671 602.035L200.06 616.264L197.928 617.072L192.539 602.842ZM210.87 604.676L213.352 611.23L211.22 612.037L208.738 605.484L198.956 598.359L201.492 597.398L209.185 603.21L210.986 593.802L213.41 592.884L210.87 604.676ZM220.542 590.183L222.809 589.324L236.169 599.123L236.214 599.106L231.292 586.111L233.312 585.346L239.382 601.371L237.048 602.255L223.805 592.566L223.76 592.583L228.631 605.443L226.611 606.208L220.542 590.183ZM236.313 584.21L247.378 580.019L248.058 581.814L239.125 585.198L241.055 590.292L249.381 587.139L250.061 588.934L241.735 592.088L243.834 597.632L252.834 594.223L253.515 596.018L242.382 600.235L236.313 584.21ZM266.254 584.572C267.03 586.622 267.068 588.37 266.367 589.816C265.66 591.247 264.296 592.345 262.276 593.11C260.212 593.893 258.411 594.018 256.876 593.488C255.35 592.937 254.182 591.591 253.371 589.452L249.495 579.217L251.627 578.409L255.503 588.644C256.047 590.08 256.843 591.028 257.889 591.487C258.93 591.931 260.168 591.881 261.605 591.337C262.966 590.822 263.86 590.064 264.286 589.065C264.72 588.044 264.666 586.816 264.122 585.38L260.246 575.145L262.378 574.338L266.254 584.572ZM265.378 573.201L268.296 572.096L278.446 583.65L278.418 568.262L281.336 567.157L287.405 583.182L285.385 583.947L280.336 570.616L280.291 570.633L280.335 585.86L278.517 586.549L268.463 575.112L268.418 575.129L273.467 588.461L271.448 589.226L265.378 573.201ZM284.435 565.983L295.5 561.792L296.18 563.588L287.247 566.971L289.177 572.066L297.504 568.912L298.184 570.708L289.857 573.862L291.957 579.405L300.957 575.997L301.637 577.792L290.505 582.008L284.435 565.983ZM297.797 560.923L299.929 560.115L305.998 576.14L303.866 576.948L297.797 560.923ZM303.066 558.927L314.131 554.736L314.811 556.531L305.879 559.915L307.808 565.01L316.135 561.856L316.815 563.651L308.488 566.805L310.588 572.349L319.588 568.94L320.268 570.736L309.136 574.952L303.066 558.927ZM316.338 553.9L323.879 551.044C325.406 550.466 326.737 550.389 327.873 550.814C329.024 551.234 329.846 552.094 330.339 553.396C330.708 554.369 330.806 555.307 330.635 556.21C330.479 557.107 329.966 557.875 329.095 558.513L329.112 558.558C329.61 558.472 330.041 558.48 330.404 558.581C330.783 558.678 331.111 558.844 331.389 559.081C331.676 559.297 331.925 559.571 332.136 559.902C332.362 560.227 332.571 560.575 332.763 560.947C332.94 561.325 333.113 561.713 333.281 562.111C333.449 562.51 333.637 562.892 333.844 563.258C334.051 563.625 334.275 563.968 334.516 564.287C334.766 564.586 335.054 564.827 335.38 565.012L333.001 565.913C332.789 565.805 332.6 565.62 332.432 565.359C332.28 565.091 332.131 564.788 331.985 564.45C331.834 564.096 331.675 563.721 331.507 563.322C331.339 562.924 331.144 562.544 330.922 562.184C330.715 561.817 330.501 561.479 330.281 561.169C330.055 560.844 329.797 560.591 329.506 560.41C329.209 560.215 328.876 560.101 328.505 560.071C328.128 560.025 327.678 560.102 327.154 560.3L321.947 562.272L324.54 569.118L322.408 569.925L316.338 553.9ZM325.711 558.793C326.205 558.606 326.662 558.391 327.083 558.146C327.503 557.901 327.838 557.611 328.088 557.277C328.347 556.922 328.506 556.529 328.565 556.096C328.632 555.642 328.556 555.124 328.335 554.54C328.029 553.732 327.555 553.159 326.913 552.82C326.272 552.482 325.45 552.502 324.447 552.882L319.151 554.888L321.267 560.477L325.711 558.793Z" fill="white"/>
<path d="M417.976 259.213L315.577 241.479L351.419 339.026L417.976 259.213ZM-244.896 512.359L345.05 295.596L338.842 278.7L-251.104 495.463L-244.896 512.359Z" fill="white"/>
<path d="M672.268 511.09L689.881 408.67L592.377 444.627L672.268 511.09ZM551.395 209.323L635.799 438.207L652.687 431.979L568.283 203.095L551.395 209.323Z" fill="white"/>
<line x1="447.856" y1="251.892" x2="1134.99" y2="8.51635" stroke="#F9F5F1" stroke-width="18" stroke-dasharray="50 50"/>
</svg>
