<svg width="1109" height="708" viewBox="0 0 1109 708" fill="none" xmlns="http://www.w3.org/2000/svg">
<path d="M190.663 517.653L181.327 521.189L163.068 494.844L162.948 494.89L166.843 526.675L157.326 530.279L129.829 491.83L139.226 488.271L157.006 514.797L157.126 514.751L153.53 482.853L162.328 479.521L180.783 506.202L180.903 506.156L176.752 474.058L185.969 470.567L190.663 517.653ZM189.102 469.38L198.498 465.821L204.71 482.22L222.006 475.669L215.795 459.27L225.192 455.711L241.377 498.445L231.981 502.004L224.999 483.57L207.702 490.121L214.684 508.555L205.287 512.114L189.102 469.38ZM232.267 453.031L264.227 440.926L267.22 448.827L244.656 457.373L248.124 466.53L268.832 458.687L271.598 465.989L250.89 473.832L254.857 484.306L277.899 475.578L280.891 483.479L248.452 495.765L232.267 453.031ZM269.88 438.786L279.216 435.249L307.91 457.163L308.03 457.117L297.172 428.449L305.97 425.117L322.155 467.85L312.758 471.409L284.147 449.533L284.027 449.578L294.863 478.187L286.065 481.519L269.88 438.786ZM349.461 438.483L323.897 418.327L334.431 414.337L350.818 427.429L354.361 406.788L364.835 402.821L358.949 435.163L365.16 451.562L355.763 455.121L349.461 438.483ZM382.93 420.605C383.61 422.4 384.475 424.081 385.524 425.645C386.597 427.155 387.85 428.414 389.281 429.423C390.713 430.432 392.326 431.076 394.119 431.355C395.898 431.594 397.845 431.313 399.959 430.512C402.074 429.711 403.718 428.632 404.892 427.274C406.051 425.877 406.833 424.327 407.237 422.623C407.641 420.918 407.725 419.153 407.489 417.326C407.278 415.444 406.833 413.605 406.153 411.81C405.442 409.934 404.535 408.202 403.431 406.612C402.367 405.008 401.12 403.701 399.688 402.692C398.242 401.643 396.629 400.999 394.85 400.76C393.057 400.482 391.102 400.743 388.988 401.544C386.873 402.345 385.236 403.444 384.077 404.841C382.903 406.198 382.122 407.749 381.733 409.493C381.329 411.197 381.24 413.01 381.466 414.932C381.732 416.839 382.22 418.73 382.93 420.605ZM373.534 424.164C372.325 420.972 371.685 417.838 371.615 414.762C371.53 411.646 372 408.731 373.025 406.016C374.05 403.301 375.64 400.873 377.795 398.734C379.99 396.58 382.724 394.883 385.995 393.643C389.307 392.389 392.479 391.849 395.511 392.024C398.543 392.199 401.342 392.964 403.908 394.319C406.474 395.674 408.757 397.546 410.758 399.937C412.743 402.287 414.34 405.059 415.549 408.251C416.728 411.363 417.352 414.457 417.422 417.533C417.477 420.569 416.985 423.424 415.945 426.1C414.905 428.775 413.307 431.182 411.152 433.321C408.982 435.421 406.241 437.098 402.929 438.352C399.657 439.591 396.493 440.151 393.436 440.031C390.404 439.856 387.613 439.112 385.062 437.797C382.511 436.482 380.25 434.669 378.28 432.358C376.295 430.008 374.713 427.276 373.534 424.164ZM458.949 397.562C461.141 403.347 461.157 408.268 458.998 412.325C456.824 416.343 452.884 419.432 447.178 421.593C441.392 423.784 436.375 424.088 432.125 422.504C427.915 420.904 424.706 417.192 422.5 411.367L412.435 384.793L421.832 381.234L431.897 407.808C432.335 408.965 432.865 410.064 433.488 411.106C434.111 412.148 434.907 412.986 435.878 413.622C436.834 414.218 437.976 414.584 439.305 414.72C440.659 414.8 442.293 414.478 444.208 413.752C447.56 412.483 449.595 410.868 450.312 408.908C451.015 406.908 450.762 404.313 449.553 401.12L439.488 374.547L448.884 370.988L458.949 397.562ZM472.498 384.149L482.793 380.25C484.947 379.434 486.382 378.343 487.097 376.977C487.811 375.612 487.761 373.852 486.945 371.697C486.159 369.622 485.053 368.33 483.628 367.82C482.188 367.271 480.391 367.404 478.236 368.22L467.942 372.119L472.498 384.149ZM455.78 368.376L478.823 359.649C480.738 358.923 482.574 358.593 484.332 358.657C486.115 358.666 487.749 359.005 489.235 359.674C490.76 360.329 492.074 361.268 493.177 362.493C494.304 363.663 495.177 365.066 495.797 366.702C496.749 369.215 497.034 371.594 496.652 373.837C496.31 376.066 495.123 378.112 493.092 379.976L493.137 380.096C494.415 379.977 495.561 380.113 496.576 380.504C497.576 380.856 498.49 381.399 499.316 382.136C500.127 382.832 500.837 383.681 501.444 384.683C502.092 385.67 502.659 386.687 503.147 387.734C503.444 388.397 503.786 389.18 504.174 390.082C504.561 390.985 504.976 391.9 505.418 392.827C505.901 393.74 506.408 394.597 506.94 395.399C507.497 396.146 508.108 396.736 508.774 397.168L499.377 400.727C498.344 399.567 497.413 398.072 496.583 396.242C495.753 394.412 494.894 392.685 494.004 391.06C492.839 388.946 491.541 387.567 490.111 386.923C488.68 386.278 486.788 386.402 484.434 387.293L475.037 390.852L481.362 407.551L471.965 411.11L455.78 368.376ZM190.023 552.823C189.456 551.807 188.726 550.965 187.835 550.299C186.929 549.593 185.928 549.059 184.834 548.698C183.739 548.337 182.585 548.181 181.371 548.23C180.183 548.224 179.01 548.44 177.853 548.878C175.738 549.679 174.101 550.778 172.942 552.175C171.768 553.533 170.987 555.083 170.598 556.827C170.194 558.531 170.105 560.345 170.331 562.266C170.597 564.173 171.085 566.064 171.796 567.94C172.476 569.735 173.34 571.415 174.389 572.98C175.463 574.489 176.715 575.749 178.147 576.758C179.578 577.767 181.191 578.411 182.984 578.689C184.763 578.928 186.71 578.647 188.824 577.846C191.697 576.758 193.599 575.034 194.53 572.674C195.501 570.299 195.622 567.607 194.893 564.598L203.991 561.152C204.764 563.916 205.06 566.564 204.878 569.097C204.697 571.629 204.075 573.963 203.014 576.099C201.952 578.235 200.475 580.118 198.583 581.747C196.69 583.376 194.427 584.689 191.794 585.687C188.522 586.926 185.358 587.486 182.301 587.366C179.27 587.191 176.478 586.446 173.927 585.131C171.376 583.816 169.115 582.003 167.145 579.693C165.16 577.342 163.578 574.611 162.399 571.498C161.19 568.306 160.55 565.172 160.48 562.096C160.395 558.981 160.865 556.065 161.89 553.35C162.915 550.635 164.505 548.208 166.66 546.069C168.855 543.914 171.589 542.217 174.861 540.978C177.215 540.086 179.558 539.587 181.889 539.479C184.261 539.357 186.514 539.644 188.649 540.341C190.808 540.983 192.789 542.058 194.592 543.565C196.395 545.072 197.904 547.01 199.121 549.378L190.023 552.823ZM214.961 551.591C215.641 553.386 216.505 555.066 217.554 556.631C218.628 558.141 219.88 559.4 221.312 560.409C222.743 561.418 224.356 562.062 226.15 562.341C227.928 562.579 229.875 562.298 231.99 561.497C234.104 560.696 235.749 559.617 236.923 558.26C238.082 556.863 238.863 555.313 239.267 553.608C239.671 551.904 239.755 550.139 239.519 548.312C239.308 546.43 238.863 544.591 238.183 542.795C237.473 540.92 236.566 539.188 235.462 537.598C234.398 535.994 233.15 534.687 231.718 533.678C230.272 532.629 228.659 531.985 226.881 531.746C225.087 531.467 223.133 531.729 221.018 532.53C218.903 533.33 217.266 534.43 216.107 535.827C214.933 537.184 214.152 538.734 213.763 540.478C213.359 542.183 213.27 543.996 213.496 545.918C213.762 547.824 214.25 549.715 214.961 551.591ZM205.564 555.15C204.355 551.958 203.716 548.824 203.646 545.748C203.56 542.632 204.03 539.716 205.055 537.001C206.08 534.286 207.67 531.859 209.825 529.72C212.02 527.565 214.754 525.868 218.026 524.629C221.338 523.375 224.509 522.835 227.541 523.01C230.573 523.185 233.372 523.95 235.938 525.304C238.504 526.659 240.788 528.532 242.788 530.922C244.773 533.273 246.371 536.044 247.58 539.236C248.758 542.349 249.383 545.443 249.453 548.519C249.508 551.555 249.015 554.41 247.975 557.085C246.935 559.76 245.338 562.168 243.182 564.307C241.012 566.407 238.271 568.084 234.959 569.338C231.687 570.577 228.523 571.137 225.467 571.017C222.435 570.842 219.643 570.097 217.092 568.782C214.541 567.467 212.28 565.655 210.31 563.344C208.325 560.993 206.743 558.262 205.564 555.15ZM244.645 515.711L257.872 510.701L278.997 536.302L279.117 536.257L277.443 503.288L290.67 498.278L306.856 541.012L298.058 544.344L286.587 514.06L286.468 514.105L287.464 548.357L280.222 551.1L258.391 525.081L258.272 525.127L269.628 555.112L260.83 558.444L244.645 515.711ZM314.76 512.149L322.061 509.384C323.139 508.976 324.146 508.503 325.083 507.966C326.02 507.428 326.785 506.797 327.376 506.071C327.953 505.305 328.302 504.42 328.424 503.415C328.585 502.396 328.409 501.208 327.895 499.852C327.382 498.495 326.727 497.488 325.93 496.832C325.174 496.16 324.334 495.748 323.409 495.597C322.47 495.405 321.471 495.418 320.413 495.636C319.355 495.855 318.288 496.168 317.21 496.576L309.909 499.341L314.76 512.149ZM297.746 495.598L317.018 488.299C319.692 487.287 322.117 486.824 324.295 486.912C326.457 486.96 328.359 487.403 330 488.242C331.68 489.065 333.09 490.197 334.228 491.636C335.406 493.06 336.328 494.65 336.993 496.406C337.643 498.122 338.006 499.923 338.082 501.811C338.183 503.643 337.876 505.424 337.163 507.155C336.489 508.87 335.366 510.481 333.793 511.99C332.205 513.458 330.074 514.698 327.401 515.711L317.525 519.451L323.328 534.773L313.932 538.332L297.746 495.598ZM336.47 480.932L368.43 468.827L371.422 476.727L348.858 485.273L352.327 494.431L373.035 486.587L375.801 493.889L355.092 501.733L359.059 512.206L382.102 503.479L385.094 511.379L352.655 523.666L336.47 480.932ZM386.531 471.005L373.723 475.856L370.73 467.956L405.743 454.695L408.736 462.595L395.927 467.446L409.121 502.279L399.724 505.838L386.531 471.005ZM409.474 453.282L418.87 449.723L435.056 492.456L425.659 496.015L409.474 453.282ZM438.377 451.368L425.569 456.22L422.576 448.319L457.589 435.058L460.581 442.958L447.773 447.809L460.966 482.643L451.57 486.202L438.377 451.368ZM461.32 433.645L470.716 430.086L486.902 472.82L477.505 476.379L461.32 433.645ZM493.476 446.103C494.156 447.899 495.02 449.579 496.069 451.143C497.143 452.653 498.395 453.912 499.827 454.921C501.258 455.93 502.871 456.574 504.665 456.853C506.443 457.092 508.39 456.811 510.505 456.01C512.619 455.209 514.264 454.13 515.438 452.773C516.597 451.376 517.378 449.825 517.782 448.121C518.186 446.417 518.27 444.651 518.034 442.824C517.824 440.942 517.378 439.103 516.698 437.308C515.988 435.433 515.081 433.7 513.977 432.111C512.913 430.506 511.665 429.2 510.234 428.19C508.787 427.142 507.174 426.498 505.396 426.259C503.602 425.98 501.648 426.241 499.533 427.042C497.418 427.843 495.782 428.942 494.623 430.339C493.449 431.696 492.667 433.247 492.278 434.991C491.874 436.695 491.785 438.508 492.012 440.43C492.277 442.337 492.766 444.228 493.476 446.103ZM484.079 449.662C482.87 446.47 482.231 443.336 482.161 440.26C482.076 437.144 482.545 434.229 483.57 431.514C484.595 428.799 486.185 426.372 488.34 424.232C490.536 422.078 493.269 420.381 496.541 419.142C499.853 417.887 503.024 417.348 506.056 417.522C509.088 417.697 511.887 418.462 514.453 419.817C517.02 421.172 519.303 423.045 521.303 425.435C523.288 427.786 524.886 430.557 526.095 433.749C527.273 436.861 527.898 439.955 527.968 443.031C528.023 446.067 527.53 448.923 526.49 451.598C525.45 454.273 523.853 456.68 521.697 458.82C519.527 460.919 516.786 462.596 513.474 463.85C510.202 465.09 507.038 465.649 503.982 465.53C500.95 465.355 498.158 464.61 495.607 463.295C493.056 461.98 490.795 460.167 488.825 457.856C486.84 455.506 485.258 452.774 484.079 449.662ZM523.16 410.223L532.497 406.687L561.191 428.6L561.31 428.555L550.452 399.886L559.25 396.554L575.436 439.288L566.039 442.847L537.428 420.97L537.308 421.016L548.144 449.624L539.345 452.957L523.16 410.223ZM582.744 387.656L589.148 385.23L596.424 404.443L590.02 406.868L582.744 387.656ZM593.876 383.44L600.28 381.014L607.557 400.226L601.153 402.652L593.876 383.44ZM618.915 414.334L631.455 378.24L610.328 386.242L607.336 378.342L640.972 365.602L643.783 373.023L631.242 409.117L654.764 400.209L657.756 408.109L621.726 421.755L618.915 414.334ZM645.906 363.733L655.303 360.174L671.488 402.908L662.091 406.467L645.906 363.733ZM707.593 383.69C706.733 386.479 705.452 388.698 703.749 390.347C702.032 391.955 700.136 393.153 698.061 393.938C694.789 395.178 691.625 395.737 688.568 395.618C685.536 395.443 682.745 394.698 680.194 393.383C677.642 392.068 675.382 390.255 673.412 387.944C671.426 385.594 669.844 382.862 668.666 379.75C667.457 376.558 666.817 373.424 666.747 370.348C666.662 367.232 667.132 364.317 668.157 361.602C669.181 358.887 670.771 356.46 672.927 354.32C675.122 352.166 677.855 350.469 681.127 349.23C683.322 348.399 685.565 347.937 687.857 347.844C690.174 347.697 692.392 347.952 694.511 348.609C696.671 349.251 698.644 350.306 700.432 351.773C702.219 353.24 703.694 355.146 704.855 357.489L695.877 360.889C694.412 358.707 692.655 357.319 690.605 356.727C688.556 356.134 686.394 356.269 684.12 357.13C682.005 357.931 680.368 359.03 679.209 360.427C678.035 361.784 677.254 363.335 676.865 365.079C676.461 366.783 676.372 368.596 676.598 370.518C676.864 372.425 677.352 374.316 678.062 376.191C678.742 377.987 679.607 379.667 680.656 381.231C681.729 382.741 682.982 384 684.413 385.009C685.845 386.018 687.457 386.662 689.251 386.941C691.03 387.18 692.976 386.899 695.091 386.098C698.203 384.919 700.303 383.234 701.389 381.044C702.5 378.798 702.629 376.126 701.775 373.027L692.318 376.609L689.666 369.606L707.621 362.806L716.372 385.908L710.386 388.175L707.593 383.69ZM723.795 366.877C724.339 368.314 725.059 369.432 725.955 370.233C726.852 371.035 727.84 371.596 728.92 371.917C730.024 372.183 731.216 372.256 732.494 372.137C733.756 371.978 735.006 371.664 736.243 371.196C737.081 370.879 737.956 370.479 738.869 369.996C739.766 369.474 740.558 368.855 741.245 368.138C741.931 367.422 742.426 366.619 742.727 365.729C743.014 364.799 742.953 363.796 742.545 362.718C742.107 361.561 741.373 360.767 740.342 360.336C739.352 359.89 738.168 359.654 736.79 359.629C735.411 359.603 733.896 359.698 732.244 359.913C730.591 360.128 728.904 360.311 727.182 360.462C725.435 360.667 723.697 360.778 721.969 360.793C720.226 360.769 718.583 360.525 717.038 360.06C715.493 359.596 714.085 358.829 712.813 357.76C711.566 356.635 710.572 355.095 709.832 353.14C709.001 350.946 708.742 348.877 709.055 346.933C709.393 344.934 710.116 343.109 711.224 341.458C712.332 339.806 713.746 338.358 715.465 337.114C717.183 335.87 719 334.885 720.916 334.16C723.15 333.314 725.383 332.764 727.614 332.512C729.871 332.205 732.008 332.308 734.027 332.821C736.047 333.334 737.847 334.294 739.43 335.702C741.038 337.055 742.31 338.969 743.247 341.442L734.149 344.888C733.586 343.641 732.906 342.69 732.11 342.033C731.354 341.362 730.506 340.93 729.566 340.738C728.627 340.547 727.621 340.54 726.548 340.718C725.514 340.881 724.419 341.182 723.262 341.62C722.504 341.908 721.776 342.274 721.079 342.721C720.381 343.168 719.788 343.712 719.301 344.353C718.854 344.978 718.544 345.666 718.372 346.416C718.199 347.165 718.287 347.999 718.634 348.917C718.952 349.754 719.368 350.372 719.884 350.77C720.4 351.168 721.199 351.413 722.283 351.504C723.407 351.58 724.87 351.528 726.672 351.347C728.515 351.151 730.901 350.886 733.831 350.552C734.689 350.409 735.9 350.293 737.463 350.203C739.05 350.058 740.716 350.18 742.46 350.569C744.204 350.957 745.87 351.741 747.457 352.919C749.068 354.043 750.328 355.801 751.234 358.195C751.975 360.15 752.283 362.11 752.16 364.072C752.037 366.035 751.451 367.923 750.403 369.734C749.38 371.49 747.88 373.13 745.903 374.655C743.965 376.164 741.54 377.471 738.627 378.574C736.273 379.466 733.865 380.035 731.404 380.283C728.998 380.556 726.703 380.398 724.519 379.811C722.374 379.209 720.441 378.139 718.718 376.602C716.995 375.064 715.655 372.971 714.697 370.323L723.795 366.877ZM756.464 360.184L765.861 356.625L769.352 365.842C769.866 367.199 770.075 368.534 769.979 369.847C769.939 371.186 769.658 372.433 769.138 373.588C768.617 374.743 767.876 375.799 766.916 376.756C766.01 377.738 764.957 378.571 763.755 379.254L762.123 374.944C762.676 374.598 763.144 374.147 763.527 373.591C763.95 373.021 764.262 372.401 764.465 371.731C764.682 371.101 764.77 370.429 764.728 369.715C764.701 369.041 764.546 368.392 764.264 367.769L759.955 369.401L756.464 360.184ZM760.667 320.268L767.071 317.842L774.348 337.054L767.944 339.48L760.667 320.268ZM771.799 316.051L778.203 313.626L785.48 332.838L779.076 335.263L771.799 316.051ZM199.364 630.067L173.799 609.911L184.333 605.921L200.721 619.013L204.264 598.372L214.738 594.405L208.851 626.747L215.062 643.146L205.666 646.705L199.364 630.067ZM232.833 612.189C233.513 613.984 234.378 615.665 235.426 617.229C236.5 618.739 237.753 619.998 239.184 621.007C240.616 622.016 242.228 622.66 244.022 622.939C245.8 623.178 247.747 622.897 249.862 622.096C251.977 621.295 253.621 620.216 254.795 618.858C255.954 617.461 256.735 615.911 257.139 614.207C257.543 612.502 257.627 610.737 257.392 608.91C257.181 607.028 256.735 605.189 256.055 603.394C255.345 601.518 254.438 599.786 253.334 598.196C252.27 596.592 251.022 595.285 249.591 594.276C248.144 593.227 246.532 592.583 244.753 592.344C242.959 592.066 241.005 592.327 238.89 593.128C236.776 593.929 235.139 595.028 233.98 596.425C232.806 597.782 232.024 599.333 231.635 601.077C231.232 602.781 231.143 604.594 231.369 606.516C231.635 608.423 232.123 610.314 232.833 612.189ZM223.436 615.748C222.227 612.556 221.588 609.422 221.518 606.346C221.433 603.23 221.903 600.315 222.927 597.6C223.952 594.885 225.542 592.457 227.698 590.318C229.893 588.164 232.626 586.467 235.898 585.227C239.21 583.973 242.382 583.433 245.413 583.608C248.445 583.783 251.244 584.548 253.81 585.903C256.377 587.258 258.66 589.13 260.66 591.521C262.646 593.871 264.243 596.643 265.452 599.835C266.631 602.947 267.255 606.041 267.325 609.117C267.38 612.153 266.887 615.008 265.847 617.684C264.808 620.359 263.21 622.766 261.055 624.905C258.884 627.005 256.143 628.682 252.831 629.936C249.56 631.175 246.395 631.735 243.339 631.615C240.307 631.44 237.516 630.696 234.964 629.381C232.413 628.066 230.153 626.253 228.182 623.942C226.197 621.592 224.615 618.86 223.436 615.748ZM308.852 589.146C311.043 594.931 311.059 599.852 308.9 603.909C306.726 607.927 302.786 611.016 297.08 613.177C291.295 615.368 286.277 615.672 282.027 614.088C277.817 612.488 274.609 608.776 272.403 602.951L262.338 576.377L271.734 572.818L281.799 599.392C282.237 600.549 282.768 601.648 283.391 602.69C284.013 603.732 284.81 604.57 285.781 605.206C286.737 605.802 287.879 606.168 289.208 606.304C290.561 606.384 292.196 606.062 294.111 605.336C297.463 604.067 299.497 602.452 300.215 600.492C300.917 598.492 300.664 595.897 299.455 592.704L289.39 566.131L298.787 562.572L308.852 589.146ZM338.36 580.228C338.904 581.664 339.624 582.783 340.521 583.584C341.418 584.385 342.406 584.946 343.485 585.267C344.59 585.533 345.781 585.607 347.059 585.488C348.322 585.329 349.572 585.015 350.809 584.546C351.647 584.229 352.522 583.829 353.434 583.347C354.331 582.824 355.123 582.205 355.81 581.489C356.497 580.772 356.991 579.969 357.293 579.079C357.579 578.15 357.519 577.146 357.111 576.069C356.672 574.912 355.938 574.117 354.908 573.686C353.918 573.24 352.734 573.004 351.355 572.979C349.977 572.954 348.461 573.048 346.809 573.264C345.157 573.479 343.47 573.662 341.747 573.812C340 574.018 338.263 574.128 336.535 574.144C334.792 574.12 333.148 573.875 331.604 573.411C330.059 572.947 328.651 572.18 327.379 571.11C326.132 569.986 325.138 568.446 324.397 566.491C323.566 564.296 323.307 562.227 323.62 560.283C323.958 558.285 324.682 556.46 325.79 554.808C326.898 553.157 328.311 551.709 330.03 550.465C331.749 549.221 333.566 548.236 335.481 547.51C337.716 546.664 339.949 546.115 342.18 545.863C344.436 545.556 346.574 545.659 348.593 546.171C350.612 546.684 352.413 547.645 353.996 549.053C355.603 550.406 356.875 552.319 357.812 554.793L348.715 558.239C348.152 556.992 347.472 556.04 346.676 555.384C345.919 554.712 345.072 554.28 344.132 554.089C343.193 553.897 342.186 553.89 341.113 554.069C340.08 554.232 338.985 554.533 337.828 554.971C337.07 555.258 336.342 555.625 335.644 556.072C334.946 556.518 334.354 557.062 333.867 557.703C333.419 558.329 333.109 559.016 332.937 559.766C332.765 560.516 332.852 561.349 333.2 562.267C333.517 563.105 333.934 563.723 334.45 564.121C334.965 564.518 335.765 564.763 336.849 564.854C337.973 564.93 339.436 564.878 341.238 564.698C343.08 564.502 345.466 564.237 348.396 563.903C349.255 563.76 350.466 563.644 352.028 563.553C353.616 563.408 355.282 563.53 357.026 563.919C358.77 564.308 360.435 565.091 362.022 566.27C363.634 567.393 364.893 569.152 365.8 571.546C366.54 573.501 366.849 575.46 366.726 577.423C366.602 579.386 366.017 581.273 364.969 583.084C363.946 584.84 362.446 586.481 360.468 588.005C358.531 589.515 356.105 590.821 353.193 591.924C350.839 592.816 348.431 593.386 345.97 593.633C343.564 593.906 341.268 593.749 339.084 593.162C336.94 592.559 335.006 591.49 333.283 589.952C331.561 588.415 330.22 586.322 329.263 583.673L338.36 580.228ZM358.814 539.836L368.211 536.277L374.422 552.677L391.719 546.125L385.508 529.726L394.904 526.167L411.09 568.901L401.693 572.46L394.711 554.026L377.414 560.577L384.396 579.011L375 582.57L358.814 539.836ZM417.681 542.178C418.361 543.973 419.226 545.653 420.275 547.218C421.348 548.728 422.601 549.987 424.032 550.996C425.464 552.005 427.077 552.649 428.87 552.928C430.649 553.166 432.595 552.885 434.71 552.084C436.825 551.283 438.469 550.204 439.643 548.847C440.802 547.45 441.584 545.9 441.988 544.195C442.392 542.491 442.476 540.726 442.24 538.899C442.029 537.017 441.584 535.178 440.904 533.382C440.193 531.507 439.286 529.775 438.182 528.185C437.118 526.581 435.871 525.274 434.439 524.265C432.992 523.216 431.38 522.572 429.601 522.333C427.808 522.054 425.853 522.316 423.739 523.117C421.624 523.918 419.987 525.017 418.828 526.414C417.654 527.771 416.873 529.321 416.484 531.066C416.08 532.77 415.991 534.583 416.217 536.505C416.483 538.411 416.971 540.302 417.681 542.178ZM408.285 545.737C407.076 542.545 406.436 539.411 406.366 536.335C406.281 533.219 406.751 530.303 407.776 527.588C408.8 524.873 410.391 522.446 412.546 520.307C414.741 518.152 417.475 516.455 420.746 515.216C424.058 513.962 427.23 513.422 430.262 513.597C433.294 513.772 436.093 514.537 438.659 515.891C441.225 517.246 443.508 519.119 445.509 521.509C447.494 523.86 449.091 526.631 450.3 529.823C451.479 532.936 452.103 536.03 452.173 539.106C452.228 542.142 451.736 544.997 450.696 547.672C449.656 550.347 448.058 552.755 445.903 554.894C443.733 556.994 440.992 558.671 437.68 559.925C434.408 561.164 431.244 561.724 428.187 561.604C425.155 561.429 422.364 560.684 419.813 559.369C417.262 558.054 415.001 556.242 413.031 553.931C411.045 551.58 409.463 548.849 408.285 545.737ZM493.7 519.134C495.891 524.92 495.908 529.841 493.749 533.898C491.575 537.915 487.635 541.005 481.929 543.166C476.143 545.357 471.125 545.66 466.876 544.076C462.666 542.477 459.457 538.765 457.251 532.939L447.186 506.366L456.583 502.807L466.648 529.38C467.086 530.538 467.616 531.637 468.239 532.679C468.862 533.72 469.658 534.559 470.629 535.195C471.585 535.791 472.727 536.157 474.056 536.293C475.41 536.373 477.044 536.051 478.959 535.325C482.311 534.056 484.346 532.441 485.063 530.481C485.766 528.481 485.513 525.885 484.304 522.693L474.239 496.119L483.635 492.56L493.7 519.134ZM490.531 489.949L499.927 486.39L513.12 521.223L533.949 513.334L536.941 521.235L506.716 532.682L490.531 489.949ZM547.402 508.239L555.781 505.066C557.137 504.552 558.371 503.834 559.481 502.911C560.592 501.989 561.457 500.84 562.077 499.464C562.682 498.049 562.973 496.41 562.952 494.548C562.931 492.685 562.475 490.577 561.583 488.222C560.767 486.068 559.815 484.216 558.726 482.666C557.662 481.062 556.417 479.822 554.991 478.948C553.565 478.074 551.933 477.62 550.095 477.586C548.282 477.497 546.218 477.891 543.904 478.767L537.201 481.306L547.402 508.239ZM524.812 476.965L543.246 469.983C545.999 468.94 548.719 468.412 551.406 468.398C554.132 468.369 556.686 468.908 559.066 470.013C561.487 471.104 563.675 472.785 565.63 475.056C567.625 477.311 569.295 480.215 570.64 483.766C571.818 486.878 572.508 489.902 572.707 492.838C572.906 495.773 572.551 498.509 571.64 501.043C570.77 503.563 569.329 505.843 567.318 507.882C565.332 509.866 562.703 511.477 559.431 512.717L540.997 519.698L524.812 476.965ZM584.395 454.398L590.799 451.972L598.076 471.184L591.672 473.61L584.395 454.398ZM595.528 450.181L601.932 447.756L609.208 466.968L602.804 469.393L595.528 450.181ZM620.566 481.076L633.107 444.982L611.98 452.984L608.988 445.083L642.624 432.344L645.435 439.765L632.894 475.859L656.415 466.95L659.408 474.851L623.377 488.497L620.566 481.076ZM668.26 452.609L679.332 448.416L668.006 434.775L667.887 434.82L668.26 452.609ZM659.229 426.055L668.865 422.405L701.03 459.086L691.275 462.781L684.438 454.489L668.458 460.541L668.711 471.327L659.254 474.909L659.229 426.055ZM732.565 441.599C731.705 444.388 730.424 446.607 728.722 448.256C727.004 449.864 725.108 451.062 723.033 451.847C719.761 453.087 716.597 453.646 713.541 453.526C710.509 453.352 707.717 452.607 705.166 451.292C702.615 449.977 700.354 448.164 698.384 445.853C696.399 443.503 694.817 440.771 693.638 437.659C692.429 434.467 691.79 431.333 691.72 428.257C691.635 425.141 692.104 422.226 693.129 419.511C694.154 416.796 695.744 414.369 697.899 412.229C700.095 410.075 702.828 408.378 706.1 407.139C708.294 406.308 710.538 405.846 712.829 405.753C715.146 405.606 717.364 405.861 719.484 406.518C721.643 407.16 723.617 408.215 725.404 409.682C727.192 411.149 728.666 413.055 729.828 415.398L720.85 418.798C719.385 416.616 717.627 415.228 715.578 414.636C713.528 414.043 711.366 414.178 709.092 415.039C706.977 415.84 705.341 416.939 704.182 418.336C703.008 419.693 702.226 421.244 701.837 422.988C701.433 424.692 701.344 426.505 701.571 428.427C701.836 430.334 702.325 432.225 703.035 434.1C703.715 435.896 704.579 437.576 705.628 439.14C706.702 440.65 707.954 441.909 709.386 442.918C710.817 443.927 712.43 444.571 714.224 444.85C716.002 445.089 717.949 444.808 720.064 444.007C723.176 442.828 725.275 441.143 726.362 438.952C727.473 436.707 727.602 434.035 726.747 430.936L717.291 434.518L714.639 427.515L732.594 420.715L741.344 443.817L735.359 446.084L732.565 441.599ZM743.706 432.383L753.102 428.824L756.593 438.042L747.197 441.6L743.706 432.383ZM747.969 392.444L754.373 390.019L761.649 409.231L755.245 411.657L747.969 392.444ZM759.101 388.228L765.505 385.803L772.781 405.015L766.377 407.44L759.101 388.228Z" fill="white"/>
<path d="M210.178 679.721L214.068 678.247L227.602 693.652L227.564 673.135L231.455 671.662L239.547 693.029L236.854 694.049L230.121 676.273L230.062 676.296L230.121 696.599L227.697 697.517L214.291 682.269L214.231 682.292L220.964 700.067L218.27 701.087L210.178 679.721ZM244.017 681.242L251.259 678.499L243.924 669.882L243.864 669.905L244.017 681.242ZM241.393 667.898L244.535 666.708L260.977 684.912L257.835 686.103L253.064 680.553L244.026 683.976L244.069 691.316L241.166 692.416L241.393 667.898ZM254.393 662.974L264.448 659.166C266.483 658.395 268.258 658.293 269.773 658.86C271.308 659.419 272.404 660.567 273.062 662.302C273.553 663.599 273.684 664.849 273.456 666.054C273.248 667.25 272.563 668.274 271.402 669.124L271.425 669.184C272.089 669.069 272.663 669.08 273.148 669.216C273.653 669.344 274.091 669.566 274.461 669.882C274.844 670.17 275.176 670.535 275.457 670.976C275.758 671.409 276.037 671.874 276.293 672.37C276.53 672.874 276.76 673.391 276.984 673.922C277.208 674.453 277.458 674.963 277.734 675.452C278.01 675.94 278.309 676.397 278.63 676.823C278.963 677.222 279.348 677.544 279.783 677.79L276.611 678.991C276.328 678.847 276.075 678.601 275.852 678.252C275.649 677.896 275.45 677.492 275.256 677.04C275.055 676.569 274.842 676.068 274.618 675.537C274.394 675.006 274.134 674.5 273.838 674.019C273.562 673.53 273.277 673.079 272.983 672.666C272.682 672.232 272.338 671.895 271.95 671.654C271.555 671.393 271.11 671.242 270.615 671.202C270.113 671.141 269.513 671.243 268.815 671.507L261.872 674.137L265.329 683.264L262.486 684.341L254.393 662.974ZM266.891 669.499C267.549 669.249 268.158 668.961 268.719 668.635C269.28 668.308 269.727 667.922 270.06 667.477C270.405 667.004 270.617 666.479 270.695 665.902C270.786 665.297 270.684 664.606 270.389 663.828C269.981 662.751 269.349 661.986 268.494 661.534C267.638 661.083 266.542 661.11 265.206 661.616L258.143 664.291L260.965 671.743L266.891 669.499ZM279.51 656.199L272.387 658.896L271.481 656.502L288.568 650.03L289.475 652.424L282.353 655.122L289.539 674.095L286.696 675.171L279.51 656.199ZM303.951 658.644L307.261 667.382L304.418 668.459L301.108 659.721L288.066 650.221L291.447 648.94L301.705 656.689L304.106 644.145L307.338 642.921L303.951 658.644ZM316.847 639.32L319.869 638.175L337.684 651.24L337.744 651.217L331.181 633.891L333.875 632.871L341.967 654.237L338.855 655.416L321.198 642.496L321.138 642.519L327.633 659.666L324.94 660.687L316.847 639.32ZM337.875 631.355L352.628 625.768L353.535 628.162L341.625 632.673L344.198 639.466L355.3 635.261L356.207 637.655L345.104 641.86L347.904 649.251L359.904 644.706L360.811 647.1L345.968 652.722L337.875 631.355ZM377.797 631.839C378.832 634.572 378.882 636.902 377.947 638.831C377.004 640.739 375.187 642.203 372.493 643.223C369.74 644.266 367.34 644.434 365.293 643.726C363.258 642.991 361.7 641.197 360.62 638.344L355.451 624.698L358.294 623.622L363.462 637.268C364.188 639.183 365.248 640.447 366.643 641.059C368.031 641.651 369.683 641.584 371.598 640.859C373.413 640.171 374.605 639.161 375.172 637.829C375.752 636.468 375.679 634.831 374.954 632.915L369.785 619.269L372.628 618.193L377.797 631.839ZM376.629 616.677L380.519 615.204L394.053 630.609L394.015 610.092L397.906 608.619L405.998 629.986L403.305 631.006L396.573 613.23L396.513 613.253L396.572 633.556L394.148 634.474L380.742 619.226L380.682 619.248L387.415 637.024L384.721 638.044L376.629 616.677ZM402.038 607.054L416.792 601.466L417.698 603.86L405.788 608.371L408.361 615.164L419.463 610.959L420.37 613.353L409.268 617.558L412.067 624.95L424.067 620.405L424.974 622.799L410.131 628.42L402.038 607.054ZM419.854 600.306L422.697 599.229L430.789 620.596L427.946 621.673L419.854 600.306ZM426.88 597.645L441.633 592.057L442.54 594.451L430.63 598.962L433.202 605.755L444.305 601.55L445.212 603.944L434.109 608.149L436.909 615.541L448.909 610.996L449.816 613.39L434.973 619.012L426.88 597.645ZM444.576 590.943L454.631 587.134C456.666 586.363 458.441 586.262 459.956 586.828C461.49 587.388 462.587 588.535 463.244 590.271C463.735 591.568 463.867 592.818 463.638 594.022C463.43 595.219 462.746 596.242 461.585 597.093L461.607 597.153C462.271 597.038 462.846 597.049 463.33 597.184C463.835 597.313 464.273 597.535 464.643 597.85C465.026 598.139 465.358 598.504 465.64 598.945C465.941 599.378 466.219 599.843 466.476 600.339C466.712 600.842 466.942 601.36 467.166 601.891C467.39 602.422 467.64 602.932 467.916 603.42C468.193 603.909 468.491 604.366 468.812 604.792C469.146 605.19 469.53 605.512 469.965 605.758L466.793 606.96C466.511 606.816 466.258 606.569 466.034 606.22C465.831 605.864 465.632 605.46 465.438 605.009C465.237 604.538 465.025 604.036 464.801 603.505C464.577 602.974 464.317 602.468 464.02 601.987C463.744 601.499 463.459 601.048 463.166 600.634C462.865 600.201 462.52 599.864 462.132 599.623C461.737 599.362 461.292 599.211 460.798 599.17C460.295 599.109 459.695 599.211 458.997 599.476L452.054 602.105L455.511 611.233L452.668 612.309L444.576 590.943ZM457.073 597.467C457.731 597.218 458.341 596.93 458.901 596.603C459.462 596.277 459.909 595.891 460.242 595.445C460.588 594.972 460.8 594.447 460.878 593.87C460.968 593.266 460.866 592.574 460.571 591.796C460.163 590.719 459.531 589.955 458.676 589.503C457.821 589.051 456.724 589.079 455.388 589.585L448.325 592.26L451.148 599.711L457.073 597.467Z" fill="white"/>
<path d="M646 185L492.036 160.602L547.889 306.137L646 185ZM9.83699 443.604L537.404 241.137L527.73 215.929L0.163007 418.396L9.83699 443.604Z" fill="white"/>
<path d="M983 584L1009.42 430.371L863.163 484.305L983 584ZM800.334 127.671L928.296 474.675L953.629 465.333L825.666 118.329L800.334 127.671Z" fill="white"/>
<line x1="597.263" y1="203.359" x2="1104.26" y2="13.3585" stroke="#F9F5F1" stroke-width="27" stroke-dasharray="50 50"/>
</svg>
