<svg width="79" height="76" viewBox="0 0 79 76" fill="none" xmlns="http://www.w3.org/2000/svg">
<path d="M56.2174 51.4968V43.7249L51.4348 43.4379V38.0645L41.5464 43.1484L39.2778 43.0535L37.0093 43.1484L27.1188 38.0645V43.4379L22.3383 43.7249V51.4968L17.5557 47.4661L20.2292 22.2361L28.8228 25.4008L39.2778 24.9216L49.7328 25.4008L58.3243 22.2361L61 47.4661L56.2174 51.4968Z" fill="#81130E"/>
<path d="M30.44 53.7518L32.2658 56.9141L26.4297 53.1242L27.8546 45.6661L27.949 45.1796C27.9969 45.0109 28.0588 44.848 28.1337 44.6931L32.2511 46.9432H32.2658L30.44 53.7518Z" fill="#FBE6D2"/>
<path d="M46.8564 57.3473L48.6801 54.185L46.8564 47.374L46.9362 47.3302C47.2156 47.8613 47.646 48.263 48.1534 48.4662C48.3904 48.5602 48.6394 48.6079 48.8899 48.6072C49.1866 48.6091 49.4806 48.5421 49.7546 48.4102C50.1736 48.2104 50.5321 47.871 50.7846 47.435C51.0371 46.9989 51.1723 46.4859 51.1732 45.9607C51.1729 45.6625 51.1296 45.3666 51.0452 45.085C51.0599 45.1287 51.0703 45.175 51.0808 45.2187L51.1459 45.5496L52.6736 53.5647L46.8564 57.3473Z" fill="#FBE6D2"/>
<path d="M51.1803 45.9533C51.1803 46.5313 51.0171 47.0935 50.7155 47.5538C50.414 48.0141 49.9907 48.3474 49.5104 48.5026C49.0301 48.6579 48.5191 48.6266 48.0556 48.4136C47.592 48.2005 47.2014 47.8174 46.9434 47.3229L51.0523 45.0776C51.1368 45.3592 51.1801 45.6552 51.1803 45.9533Z" fill="#FBE6D2"/>
<path d="M39.7217 45.98V51.2075H38.7501L36.8047 47.6584L37.94 45.98H39.7217Z" fill="white"/>
<path d="M39.5615 45.98V51.2075H40.5353L42.4785 47.6584L41.3453 45.98H39.5615Z" fill="white"/>
<path d="M32.4032 45.9823C32.3852 46.67 32.1369 47.3226 31.7109 47.8017C31.2848 48.2807 30.7146 48.5487 30.121 48.5487C29.5275 48.5487 28.9572 48.2807 28.5312 47.8017C28.1052 47.3226 27.8569 46.67 27.8389 45.9823C27.8391 45.875 27.8447 45.7678 27.8557 45.6612C27.8737 45.4959 27.9053 45.333 27.9501 45.1747C27.9976 45.0058 28.0594 44.8429 28.1348 44.6882C28.3832 44.1812 28.7692 43.7836 29.2326 43.557C29.6961 43.3303 30.2111 43.2875 30.6978 43.435C31.1844 43.5825 31.6154 43.9122 31.9238 44.3729C32.2322 44.8335 32.4007 45.3993 32.4032 45.9823Z" fill="#FBE6D2"/>
<path d="M51.1799 46.0458C51.1791 46.5726 51.0426 47.0871 50.788 47.5235C50.5335 47.9599 50.1723 48.2983 49.7508 48.4953C49.2397 48.7341 48.6717 48.7531 48.1496 48.5488C47.6388 48.3511 47.2047 47.9505 46.9241 47.4177C46.7092 47.0044 46.5959 46.5308 46.5967 46.0482C46.5969 45.9409 46.6025 45.8337 46.6135 45.7271C46.6317 45.5619 46.6633 45.399 46.7079 45.2406C46.7565 45.0719 46.8191 44.9089 46.8947 44.7541C47.1159 44.3169 47.4397 43.9614 47.8284 43.7292C48.2171 43.497 48.6547 43.3975 49.0902 43.4424C49.5258 43.4872 49.9414 43.6746 50.2887 43.9826C50.636 44.2906 50.9007 44.7066 51.0519 45.1822C51.0645 45.2284 51.0771 45.2722 51.0876 45.3185L51.1505 45.6493C51.1703 45.7802 51.1801 45.9129 51.1799 46.0458Z" fill="#FBE6D2"/>
<path d="M37.8006 1.51586C38.8575 0.928824 40.1425 0.928823 41.1994 1.51586L71.4075 18.2942C72.5188 18.9114 73.208 20.0827 73.208 21.3539V54.6461C73.208 55.9173 72.5188 57.0886 71.4075 57.7058L41.1994 74.4841C40.1425 75.0712 38.8575 75.0712 37.8006 74.4841L7.59255 57.7058C6.48125 57.0886 5.792 55.9173 5.792 54.6461V21.3539C5.792 20.0827 6.48125 18.9114 7.59255 18.2942L37.8006 1.51586Z" stroke="white"/>
</svg>
