<svg width="88" height="89" viewBox="0 0 88 89" fill="none" xmlns="http://www.w3.org/2000/svg">
<path d="M30.3436 26.9915C30.4157 26.7556 30.2831 26.5057 30.0474 26.4335C29.8116 26.3613 29.562 26.494 29.4898 26.73C29.2966 27.3619 29.53 28.5083 31.0556 29.1661C31.282 29.2638 31.5447 29.1592 31.6422 28.9326C31.7398 28.706 31.6353 28.4431 31.4088 28.3455C30.2556 27.8482 30.2976 27.1417 30.3436 26.9915Z" fill="black"/>
<path d="M50.6044 25.7981C50.6044 26.3588 50.0995 26.8133 49.4766 26.8133C48.8538 26.8133 48.3489 26.3588 48.3489 25.7981C48.3489 25.2374 48.8538 24.7828 49.4766 24.7828C50.0995 24.7828 50.6044 25.2374 50.6044 25.7981Z" fill="black"/>
<path d="M39.5522 26.9486C40.175 26.9486 40.6799 26.4941 40.6799 25.9334C40.6799 25.3727 40.175 24.9182 39.5522 24.9182C38.9293 24.9182 38.4244 25.3727 38.4244 25.9334C38.4244 26.4941 38.9293 26.9486 39.5522 26.9486Z" fill="black"/>
<path d="M40.4798 22.6371C38.4948 22.2961 37.6767 23.3398 37.5144 23.7699C37.4273 24.0007 37.1697 24.1172 36.9391 24.03C36.7084 23.9428 36.5921 23.685 36.6792 23.4542C36.9916 22.6263 38.2215 21.3425 40.6308 21.7564C40.8738 21.7981 41.037 22.0291 40.9953 22.2723C40.9535 22.5155 40.7228 22.6788 40.4798 22.6371Z" fill="black"/>
<path d="M47.8968 22.7462C48.3152 22.42 49.5309 21.9193 50.8378 22.7685C51.0446 22.9029 51.3211 22.844 51.4553 22.6371C51.5896 22.4301 51.5308 22.1534 51.324 22.019C49.6126 20.907 47.9777 21.5504 47.3481 22.0413C47.1536 22.193 47.1188 22.4737 47.2703 22.6683C47.4218 22.863 47.7023 22.8979 47.8968 22.7462Z" fill="black"/>
<path d="M44.0427 24.7934C43.7982 24.7613 43.5741 24.9336 43.542 25.1783C43.4522 25.8639 43.3753 26.9084 43.4422 27.8128C43.4755 28.2612 43.5461 28.7078 43.6864 29.0653C43.8205 29.4071 44.0736 29.7978 44.5441 29.8737C44.7875 29.913 45.0166 29.7473 45.0558 29.5037C45.0951 29.2601 44.9296 29.0308 44.6862 28.9915L44.6859 28.9915C44.6833 28.9912 44.6697 28.9894 44.6416 28.9594C44.6076 28.9229 44.5629 28.8545 44.5174 28.7386C44.4254 28.5042 44.3633 28.1616 44.3326 27.7467C44.2717 26.9245 44.3419 25.9454 44.4272 25.2945C44.4593 25.0498 44.2871 24.8255 44.0427 24.7934Z" fill="black"/>
<path d="M16.4434 48.0017L15.4167 44.7625L14.3565 48.0017H16.4434Z" fill="black"/>
<path d="M68.0672 48.3745C68.0672 49.0698 67.918 49.6059 67.6194 49.9829C67.3181 50.3599 66.9122 50.5484 66.4016 50.5484C65.891 50.5484 65.4837 50.3599 65.1796 49.9829C64.8754 49.6059 64.7234 49.0698 64.7234 48.3745C64.7234 47.6792 64.8754 47.143 65.1796 46.766C65.4837 46.3891 65.891 46.2006 66.4016 46.2006C66.9122 46.2006 67.3167 46.3905 67.6152 46.7702C67.9166 47.1472 68.0672 47.682 68.0672 48.3745Z" fill="black"/>
<path d="M31.9308 64.2229C32.5279 63.4689 32.8264 62.3966 32.8264 61.006C32.8264 59.621 32.5251 58.5515 31.9224 57.7975C31.3254 57.038 30.5163 56.6582 29.4951 56.6582C28.474 56.6582 27.6593 57.0352 27.0511 57.7891C26.4428 58.5431 26.1387 59.6154 26.1387 61.006C26.1387 62.3966 26.4428 63.4689 27.0511 64.2229C27.6593 64.9768 28.474 65.3538 29.4951 65.3538C30.5163 65.3538 31.3282 64.9768 31.9308 64.2229Z" fill="black"/>
<path d="M61.4186 61.006C61.4186 62.3966 61.1201 63.4689 60.523 64.2229C59.9204 64.9768 59.1085 65.3538 58.0873 65.3538C57.0662 65.3538 56.2515 64.9768 55.6432 64.2229C55.035 63.4689 54.7309 62.3966 54.7309 61.006C54.7309 59.6154 55.035 58.5431 55.6432 57.7891C56.2515 57.0352 57.0662 56.6582 58.0873 56.6582C59.1085 56.6582 59.9176 57.038 60.5146 57.7975C61.1173 58.5515 61.4186 59.621 61.4186 61.006Z" fill="black"/>
<path fill-rule="evenodd" clip-rule="evenodd" d="M59.9378 15.8402C58.4181 20.7527 57.5965 21.5517 55.6071 23.4863L55.4657 23.6239C55.472 24.7577 55.4296 25.9321 55.3145 27.116C55.2259 28.0265 55.0941 28.9456 54.9075 29.8585C55.9707 28.9067 56.7028 26.904 56.3247 23.8015C56.2948 23.5565 56.469 23.3338 56.7137 23.3039C56.9585 23.274 57.181 23.4484 57.2109 23.6933C57.6493 27.2905 56.686 29.8752 54.9826 30.9177H84.4287C86.4764 30.9177 88.1048 32.6375 87.9947 34.6841L85.6114 79.0053C85.5094 80.902 83.9431 82.3876 82.0454 82.3876H5.87776C3.97761 82.3876 2.41019 80.8984 2.31136 78.9992L0.00493406 34.6779C-0.101448 32.6336 1.52603 30.9177 3.57133 30.9177H28.5719C28.1227 30.5655 27.7661 30.1571 27.4935 29.7156C26.6493 28.3483 26.6519 26.7219 27.1268 25.6727C27.1428 25.6372 27.163 25.6049 27.1863 25.5759C15.35 7.4195 34.6459 3.88697 38.3669 4.2285C41.2163 2.03844 45.19 0.322193 47.9835 0.0704636C58.0582 -0.837402 62.6198 7.17052 59.9378 15.8402ZM30.4366 30.9177C29.3572 30.5408 28.6676 29.9172 28.253 29.2458C27.5764 28.1501 27.5873 26.8631 27.9228 26.0806C29.0719 25.0481 31.3077 24.3221 32.7102 28.3946C33.234 29.1813 34.1978 29.8673 33.8625 26.3179C33.4435 21.8811 32.7102 19.8987 32.7102 19.8987C32.7102 19.8987 37.8223 16.6892 37.7385 11.7804C40.0194 13.1916 46.396 15.9787 54.0145 16.1174C53.9807 16.1916 53.9667 16.276 53.9785 16.3628C54.3284 18.9335 54.8243 22.9322 54.4258 27.0295C54.2988 28.3355 54.0816 29.6452 53.7422 30.9177H30.4366ZM25.4105 50.9114C24.9567 51.1906 24.3987 51.3303 23.7365 51.3303C22.6465 51.3303 21.7537 50.9524 21.0581 50.1965C20.3327 49.437 19.97 48.3982 19.97 47.0802C19.97 45.7473 20.3364 44.6787 21.0693 43.8745C21.8021 43.0703 22.7712 42.6682 23.9765 42.6682C25.0218 42.6682 25.8607 42.9344 26.4931 43.4668C27.1292 43.9955 27.4937 44.6564 27.5868 45.4494H25.896C25.7658 44.8872 25.4477 44.4944 24.9418 44.271C24.6591 44.1482 24.3447 44.0867 23.9988 44.0867C23.3366 44.0867 22.7916 44.338 22.3638 44.8407C21.9397 45.3396 21.7277 46.0917 21.7277 47.097C21.7277 48.1097 21.9583 48.8264 22.4196 49.2471C22.8809 49.6678 23.4054 49.8782 23.9932 49.8782C24.5698 49.8782 25.0422 49.7125 25.4105 49.3811C25.7788 49.0461 26.0057 48.6086 26.0913 48.0687H24.1885V46.6948H27.6147V51.1124H26.4763L26.3033 50.0848C25.9723 50.4758 25.6747 50.7513 25.4105 50.9114ZM16.9233 49.4202H13.8933L13.3241 51.1124H11.5274L14.4625 42.8804H16.4043L19.3171 51.1124H17.4534L16.9233 49.4202ZM30.9906 47.5158H34.9859V46.0861H30.9906V44.338H35.343V42.8804H29.311V51.1124H35.5439V49.6325H30.9906V47.5158ZM43.5345 51.1124H41.8159L38.4567 45.2651V51.1124H36.8552V42.8804H38.6576L41.9331 48.6272V42.8804H43.5345V51.1124ZM48.5901 51.3414C49.5461 51.3414 50.331 51.0603 50.9448 50.4981C51.5549 49.9359 51.9344 49.2062 52.0832 48.3089H50.3813C50.2659 48.7333 50.1209 49.0516 49.946 49.2639C49.6298 49.6585 49.1704 49.8559 48.5677 49.8559C47.98 49.8559 47.4945 49.6269 47.1114 49.1689C46.7319 48.7072 46.5422 48.0147 46.5422 47.0914C46.5422 46.168 46.7226 45.455 47.0835 44.9524C47.4443 44.446 47.9372 44.1928 48.5622 44.1928C49.176 44.1928 49.6391 44.3715 49.9516 44.729C50.1264 44.93 50.2697 45.2279 50.3813 45.6226H52.0999C52.0739 45.1087 51.8842 44.5968 51.5308 44.0867C50.8909 43.1783 49.8791 42.724 48.4952 42.724C47.461 42.724 46.6091 43.0628 45.9395 43.7405C45.1695 44.5186 44.7845 45.6263 44.7845 47.0634C44.7845 48.3926 45.123 49.4389 45.8 50.2021C46.4771 50.9617 47.4071 51.3414 48.5901 51.3414ZM57.2894 48.0184V51.1124H55.5707V48.0184L52.7249 42.8804H54.7504L56.4579 46.4659L58.0929 42.8804H60.0403L57.2894 48.0184ZM64.3802 50.9212C64.8461 51.4015 65.5199 51.6416 66.4016 51.6416C67.2832 51.6416 67.957 51.4015 68.423 50.9212C69.0451 50.332 69.3562 49.4831 69.3562 48.3745C69.3562 47.2436 69.0451 46.3947 68.423 45.8278C67.957 45.3475 67.2832 45.1073 66.4016 45.1073C65.5199 45.1073 64.8461 45.3475 64.3802 45.8278C63.7552 46.3947 63.4428 47.2436 63.4428 48.3745C63.4428 49.4831 63.7552 50.332 64.3802 50.9212ZM75.3325 51.4699H74.0435L71.5241 47.0844V51.4699H70.323V45.2958H71.6747L74.1314 49.6059V45.2958H75.3325V51.4699ZM19.0493 67.1968H21.6273V54.8487H19.225V63.4689L14.3118 54.8487H11.6083V67.1968H14.0105V58.4258L19.0493 67.1968ZM29.4951 67.5403C27.7318 67.5403 26.3842 67.06 25.4524 66.0994C24.2024 64.921 23.5775 63.2232 23.5775 61.006C23.5775 58.7441 24.2024 57.0463 25.4524 55.9126C26.3842 54.952 27.7318 54.4717 29.4951 54.4717C31.2584 54.4717 32.606 54.952 33.5379 55.9126C34.7822 57.0463 35.4044 58.7441 35.4044 61.006C35.4044 63.2232 34.7822 64.921 33.5379 66.0994C32.606 67.06 31.2584 67.5403 29.4951 67.5403ZM46.3441 57.0352V54.8487H36.3502V57.0352H40.0582V67.1968H42.6529V57.0352H46.3441ZM47.6582 54.8487H50.2194V67.1968H47.6582V54.8487ZM54.0446 66.0994C54.9764 67.06 56.324 67.5403 58.0873 67.5403C59.8506 67.5403 61.1982 67.06 62.1301 66.0994C63.3744 64.921 63.9966 63.2232 63.9966 61.006C63.9966 58.7441 63.3744 57.0463 62.1301 55.9126C61.1982 54.952 59.8506 54.4717 58.0873 54.4717C56.324 54.4717 54.9764 54.952 54.0446 55.9126C52.7946 57.0463 52.1697 58.7441 52.1697 61.006C52.1697 63.2232 52.7946 64.921 54.0446 66.0994ZM75.9491 67.1968H73.3711L68.3323 58.4258V67.1968H65.9301V54.8487H68.6336L73.5468 63.4689V54.8487H75.9491V67.1968Z" fill="black"/>
<path d="M5.16617 87.0341C5.16617 86.0471 5.96562 85.247 6.95178 85.247H83.1976C84.1838 85.247 84.9832 86.0471 84.9832 87.0341V87.2129C84.9832 88.1999 84.1838 89 83.1976 89H6.95178C5.96561 89 5.16617 88.1999 5.16617 87.2129V87.0341Z" fill="black"/>
</svg>
